<svg xmlns="http://www.w3.org/2000/svg" viewBox="0 0 228.62 720">
  <defs>
    <style>
      .cls-1 {
        fill: #494546;
      }
    </style>
  </defs>
  <title>Asset 4</title>
  <g id="Layer_2" data-name="Layer 2">
    <g id="Layer_1-2" data-name="Layer 1">
      <g>
        <path class="cls-1" d="M136.61,699.17a15.34,15.34,0,0,1-5,1.37,22.43,22.43,0,0,1-2.73-.08l-3-.15c-4-.14-7.94-.2-11.92-.24s-7.94.09-11.91.25l-3,.15a22.29,22.29,0,0,1-2.74.07,15.06,15.06,0,0,1-5-1.36,60.83,60.83,0,0,1-9.93-5.8,110.63,110.63,0,0,1-9.42-7.15,57,57,0,0,0,7.91,9,49.09,49.09,0,0,0,9.76,7.36,16.39,16.39,0,0,0,6.28,2.22,26.22,26.22,0,0,0,3.19.11l3,0L114,705l11.83,0,2.95,0a24.67,24.67,0,0,0,3.2-.12,16.39,16.39,0,0,0,6.28-2.21,48.47,48.47,0,0,0,9.76-7.37,57,57,0,0,0,7.91-9,110.78,110.78,0,0,1-9.43,7.15A60.76,60.76,0,0,1,136.61,699.17Z"/>
        <path class="cls-1" d="M228.29,430.7l-.54-27.95-.43-27.95,0-1.75a11.65,11.65,0,0,0-.63-3.7,11.25,11.25,0,0,0-4.7-5.85,11,11,0,0,0-3.53-1.43,11.11,11.11,0,0,0-1.89-.24h-.62l0-3.06.32-41.55,1.36-110.81L219,95.59l.21-27.7L219.3,54l0-6.92c0-1.07,0-2.54-.12-3.89l-.11-2-.3-2A45.68,45.68,0,0,0,189,2.75c-.64-.23-1.29-.48-1.94-.69l-2-.53-2-.51c-.67-.15-1.35-.23-2-.35A35.13,35.13,0,0,0,177,.17l-2.05-.1C174.24,0,173.51,0,173,0a46.1,46.1,0,0,0-40.37,24.26,45.14,45.14,0,0,0-5,15.61,32.85,32.85,0,0,0-.34,4.09l-.08,2v1.73l.05,6.92.32,41.56,2.72,221.61.21,27.7.11,13.86,0,3.65-16.6.26-16.61.18,0-4.71.32-41.55L99.15,206.4l1.36-110.81L100.83,54l0-6.92c0-1.07,0-2.54-.12-3.89l-.11-2-.3-2A45.68,45.68,0,0,0,70.56,2.75c-.65-.23-1.29-.48-1.94-.69l-2-.53-2-.51c-.67-.15-1.35-.23-2-.35A35.13,35.13,0,0,0,58.5.17l-2-.1C55.77,0,55,0,54.5,0A46.14,46.14,0,0,0,14.13,24.26a45.34,45.34,0,0,0-5,15.61A32.85,32.85,0,0,0,8.82,44l-.08,2v1.73l0,6.92.32,41.56,2.72,221.61.21,27.7.11,13.86,0,4.6H12l-.38,0a7.82,7.82,0,0,0-1.52.2,8.82,8.82,0,0,0-2.84,1.16,9.18,9.18,0,0,0-3.76,4.71,9.5,9.5,0,0,0-.5,3l0,1.75c-.09,18.63-.82,37.27-1.63,55.9S0,468,0,486.61v.08a6.47,6.47,0,0,0,.47,2.42l7.49,19c2.62,6.3,5.11,12.65,7.83,18.9S21.2,539.57,24,545.81c1.94,4.23,3.9,8.45,5.92,12.65l-6.14,0h-.22A4.43,4.43,0,0,0,19.22,563l.32,13.25v-.3q0,1,.06,1.92a5.9,5.9,0,0,0,.08.9c0,.27.1.61.17.91a13.55,13.55,0,0,0,1.32,3.55,14.38,14.38,0,0,0,2.11,2.88L25.07,588l7.13,7.71,7.12,7.71,3.56,3.85.89,1,.43.47.27.31.18.26c-1.56,2.74-3.15,5.42-4.72,8.39a16.14,16.14,0,0,0-1.36,3.3,6.43,6.43,0,0,0-.13,2.95,6.32,6.32,0,0,0,1.41,2.77,11,11,0,0,0,2.59,2.13l-.61.89c-1,1.57-2.12,3.06-3.23,5.07a13.25,13.25,0,0,0-.87,1.86,9.32,9.32,0,0,0-.4,1.49,6.52,6.52,0,0,0,0,2.29,7.19,7.19,0,0,0,1.6,3.26,10,10,0,0,0,1.8,1.67,17.68,17.68,0,0,0,2.19,1.32c-.93,1.13-1.86,2.29-2.79,3.55a14,14,0,0,0-1.86,3.31,4.71,4.71,0,0,0-.22.69,6.51,6.51,0,0,0-.17.84,6.1,6.1,0,0,0,.1,2A6.59,6.59,0,0,0,39.53,660a12.38,12.38,0,0,0,3.33,2.55,26.48,26.48,0,0,0,3,1.38v1.39a12.47,12.47,0,0,0,.16,2,11.84,11.84,0,0,0,1.35,3.83,10.23,10.23,0,0,0,.56.89l.45.63.84,1.19L56,683.4l6.77,9.48,3.41,4.73,1.7,2.37.85,1.18c.16.22.23.34.48.65s.52.64.68.8a87.4,87.4,0,0,0,9,8.32,55.1,55.1,0,0,0,10.45,6.92,28.7,28.7,0,0,0,3.19,1.3,15.94,15.94,0,0,0,3.87.72c.34,0,.76,0,1,0l.72,0,1.45,0,2.89,0c3.86-.07,7.72-.09,11.58-.08s7.71,0,11.57.13l2.9.07,1.44,0,.73,0c.24,0,.68,0,1,0a16.4,16.4,0,0,0,3.91-.7,28.85,28.85,0,0,0,3.2-1.29,53.91,53.91,0,0,0,10.54-6.86,88.8,88.8,0,0,0,9-8.32,30.43,30.43,0,0,0,2-2.65l1.71-2.36,3.41-4.73,6.74-9.5L179,674l.83-1.19.44-.64a8.33,8.33,0,0,0,.55-.9,11.56,11.56,0,0,0,1.34-3.88,12.5,12.5,0,0,0,.16-2l0-1.48v-.46l.22-.09a21.58,21.58,0,0,0,3-1.47,10,10,0,0,0,3.19-2.81,5.72,5.72,0,0,0,1.06-3.2,6.29,6.29,0,0,0-.76-2.92,20,20,0,0,0-1.91-2.85c-1.09-1.38-2.16-2.67-3.22-3.94a18.92,18.92,0,0,0,3-1.71,9,9,0,0,0,1.67-1.53,7.41,7.41,0,0,0,.45-.61,7.75,7.75,0,0,0,.42-.81,6.59,6.59,0,0,0,.32-1.07,5.39,5.39,0,0,0,0-1.27,5.86,5.86,0,0,0-.27-1.16l-.14-.37-.3-.73c-.21-.48-.43-1-.66-1.43a36.79,36.79,0,0,0-3.37-5.4l.69-.35a11.46,11.46,0,0,0,3.46-2.85,6.93,6.93,0,0,0,1.43-3.45,7.5,7.5,0,0,0-.34-3,21.19,21.19,0,0,0-1.32-3.24,61.43,61.43,0,0,0-5.22-8.34l1.6-1.83,3.44-3.9,6.9-7.81,6.89-7.8,1.72-2c.24-.27.71-.81,1-1.26a12.49,12.49,0,0,0,2.08-4.85l.13-.76c0-.29.08-.59.1-.89a11.18,11.18,0,0,0,0-1.83V563h0a3.28,3.28,0,0,0-3.25-3.28h0l-6.71,0c2.21-4.58,4.36-9.2,6.49-13.82,2.8-6.22,5.58-12.46,8.27-18.73s5.3-12.57,8-18.85l7.69-19a6.59,6.59,0,0,0,.49-2.47v-.19c.07-9.32.13-18.63.09-27.95ZM216,373.92h0Zm-77.72-14.54.11-13.86.21-27.7,2.72-221.61.21-27.71.11-13.85.05-6.92V46l.08-1.43a18.78,18.78,0,0,1,.24-2.8,30.84,30.84,0,0,1,10.45-19.32A31.48,31.48,0,0,1,173,14.76c.62,0,1,0,1.51.05l1.41.07a21.71,21.71,0,0,1,2.78.32c.46.08.92.12,1.38.22l1.35.35,1.36.34c.44.14.88.32,1.31.47a31.11,31.11,0,0,1,20.42,24.7l.23,1.39.07,1.41c0,1,.13,1.79.11,3L205,54l.32,41.55,1.36,110.81L208,317.21l.21,27.7.11,13.85,0,3.16-8,.11c.11-.69.2-1.38.3-2.06s.07-1.21.1-1.81.05-1.24,0-1.67L200.63,345l-1.25-138.42-.75-92.29c-.16-15.38-.13-30.76-.19-46.14l0-11.53A25.17,25.17,0,0,0,195,43.94a26,26,0,0,0-4-5.24,26.49,26.49,0,0,0-5.27-4,25.3,25.3,0,0,0-12.63-3.22A24.88,24.88,0,0,0,160.52,35a24.94,24.94,0,0,0-12.26,21.93l0,11.54-.13,46.14q0,23.07-.26,46.14l-.37,46.14-.86,92.28-.44,46.14-.11,11.54a27.44,27.44,0,0,0,.6,6l-8.44.13Zm19.66,3.23a17,17,0,0,1-1.1-5.77l-.11-11.54-.44-46.14-.86-92.28L155,160.74q-.21-23.07-.26-46.14l-.12-46.14,0-11.54c0-1,.07-1.69.11-2.54a19.44,19.44,0,0,1,.43-2.42,18.39,18.39,0,0,1,1.76-4.59,18.85,18.85,0,0,1,25.67-7.06,19.8,19.8,0,0,1,3.9,3,19.38,19.38,0,0,1,3,3.9,18.6,18.6,0,0,1,2.44,9.4l0,11.53c-.07,15.38,0,30.76-.19,46.14l-.75,92.29-.83,92.28L189.64,345l-.11,11.53c0,.54,0,.87-.05,1.22s0,.71-.07,1.07a18.82,18.82,0,0,1-.41,2.09,11.62,11.62,0,0,1-.39,1.31l-18.66.25Zm-138-17.09.21-27.7L22.81,96.21l.32-41.56.05-6.92V46l.09-1.43a18.78,18.78,0,0,1,.24-2.8A30.84,30.84,0,0,1,34,22.45,31.48,31.48,0,0,1,54.5,14.76c.63,0,1,0,1.52.05l1.4.07a21.31,21.31,0,0,1,2.78.32c.46.08.93.12,1.39.22l1.35.35,1.36.34c.44.14.87.32,1.31.47A31.11,31.11,0,0,1,86,41.28l.23,1.39.07,1.41c0,1,.13,1.79.11,3l0,6.92.32,41.55L88.17,206.4l1.36,110.81.32,41.55,0,4.79-8.39.09s0-.06,0-.09a27.06,27.06,0,0,0,.62-3.58c.06-.6.07-1.21.1-1.81s0-1.24,0-1.67L82.16,345,80.91,206.54l-.75-92.29C80,98.87,80,83.49,80,68.11l0-11.53a25.27,25.27,0,0,0-3.37-12.64,26,26,0,0,0-4-5.24,26.49,26.49,0,0,0-5.27-4,25.3,25.3,0,0,0-12.63-3.22A24.88,24.88,0,0,0,42.05,35,24.94,24.94,0,0,0,29.79,56.92l0,11.54-.13,46.14q0,23.07-.26,46.14L29,206.88l-.86,92.28L27.7,345.3l-.11,11.54A28.19,28.19,0,0,0,28.5,364H19.74l0-4.6ZM40,364a16.71,16.71,0,0,1-1.68-7.11l-.11-11.54-.44-46.14-.86-92.28-.38-46.14q-.21-23.07-.26-46.14l-.12-46.14,0-11.54c0-1,.07-1.69.11-2.54A19.44,19.44,0,0,1,36.66,52a18.39,18.39,0,0,1,1.76-4.59,18.85,18.85,0,0,1,25.67-7.06,19.8,19.8,0,0,1,3.9,3,19.38,19.38,0,0,1,3,3.9,18.6,18.6,0,0,1,2.44,9.4l0,11.53c-.07,15.38,0,30.76-.19,46.14l-.75,92.29L71.17,345l-.11,11.53c0,.54,0,.87,0,1.22s0,.71-.07,1.07a18.82,18.82,0,0,1-.41,2.09,12.84,12.84,0,0,1-1.06,2.89l-11.33.13ZM10.94,372.6a1.12,1.12,0,0,1,.49-.66,1.4,1.4,0,0,1,.38-.16,1.49,1.49,0,0,1,.21,0H30.18l28,.1,55.91.59,55.9.86,28,.37,14,.19,3.07,0v.9l-.43,27.95-.19,9.93-7,.09-2.59-30.86-2.6,30.93-24.64.33-2.62-31.26-2.63,31.33-24.58.34L145,381.91l-2.66,31.74-24.51.33-2.69-32.07-2.7,32.14L88,414.38l-2.73-32.47-2.73,32.55-24.37.32-2.76-32.87-2.77,32.95-24.28.33-2.82-34.85-2.81,34.92-10.87.15c-.53-13.54-.93-27.07-1-40.61l0-1.75A1.69,1.69,0,0,1,10.94,372.6ZM201,566.25v9.59l-8.78,2.76-11,3-11.05,2.56-11.15,2.07A272,272,0,0,1,68.9,586l-11.14-2.12-11-2.61-10.95-3L28,575.81l.17-8.36ZM182,622.84c0,.08,0,.1,0,0Zm-4.28-10.19c1.1,2.84,2.39,5.58,3.5,8.12.19.44.37.88.52,1.27l-.32.19a15.67,15.67,0,0,1-2,.94A62.54,62.54,0,0,1,169.32,626c-3.54.73-7.16,1.29-10.81,1.77a363.81,363.81,0,0,1-44.36,2.66,359.13,359.13,0,0,1-44.42-2.2c-3.66-.45-7.3-.94-10.87-1.62a66.9,66.9,0,0,1-10.28-2.62,18.74,18.74,0,0,1-2.15-1,6.71,6.71,0,0,1-1.07-.68,14,14,0,0,1,.68-1.6c1.26-2.53,2.73-5.19,4.17-7.84a413,413,0,0,0,127.49-.22Zm4.62,25.76c.1.21.19.43.28.64a20.4,20.4,0,0,1-3.87,1.73,75,75,0,0,1-10.21,2.52c-3.53.63-7.1,1.17-10.7,1.58A365,365,0,0,1,114.16,647a365.12,365.12,0,0,1-43.58-2.75c-3.59-.46-7.14-1.05-10.63-1.73a73.43,73.43,0,0,1-10.05-2.62A21,21,0,0,1,47,638.58c.68-1.1,1.57-2.37,2.45-3.61l1.86-2.66c2.06.58,4.1,1.06,6.14,1.5q5.67,1.2,11.34,2a367.89,367.89,0,0,0,45.4,2.88,361,361,0,0,0,45.46-2.48c3.79-.49,7.59-1.06,11.4-1.82,2.5-.51,5-1.08,7.54-1.83A34.41,34.41,0,0,1,182.32,638.41ZM45.26,622.69c0,.1,0,.06,0,0Zm130.09,43.49a4.64,4.64,0,0,1-.64,1.57,2.75,2.75,0,0,1-.23.33l-.41.54-.89,1.16-7,9.28-13.72,18.3a82,82,0,0,1-8.17,7.36,50.89,50.89,0,0,1-8.93,5.86,20.56,20.56,0,0,1-2.18.9,8.61,8.61,0,0,1-1.81.35,3.52,3.52,0,0,1-.44,0l-.73,0-1.46,0-2.94-.05c-3.9-.07-7.81-.09-11.72-.09s-7.82.06-11.73.14l-2.93.07-1.46,0-.74,0a4.19,4.19,0,0,1-.44,0,8.18,8.18,0,0,1-1.83-.34,20.83,20.83,0,0,1-2.2-.9,47.36,47.36,0,0,1-9-5.81,80.13,80.13,0,0,1-8.22-7.35l-.27-.3c-.07-.06-.27-.35-.4-.52L74,695.52l-1.74-2.34-3.47-4.68-7-9.32-7-9.32-.87-1.17-.41-.54-.23-.34a5.19,5.19,0,0,1-.62-1.62c0-.06,0-.13,0-.2,1.6.4,3.2.75,4.79,1.07,3.81.76,7.6,1.33,11.39,1.81a366.58,366.58,0,0,0,45.46,2.49,368.12,368.12,0,0,0,45.42-2.82c3.78-.51,7.56-1.12,11.35-1.92,1.46-.32,2.93-.66,4.4-1A5.59,5.59,0,0,1,175.35,666.18ZM182,656a18.66,18.66,0,0,1-2.09,1,62.85,62.85,0,0,1-10.24,2.72c-3.57.71-7.22,1.21-10.88,1.68a360.32,360.32,0,0,1-44.49,2.36,365.37,365.37,0,0,1-44.45-2.58c-3.66-.47-7.3-1-10.86-1.75a67.29,67.29,0,0,1-10.2-2.76,15.72,15.72,0,0,1-2.09-1,4.54,4.54,0,0,1-.54-.33c.14-.24.29-.5.46-.75,1.1-1.67,2.35-3.44,3.59-5.27,2.74.76,5.44,1.33,8.14,1.82q5.61,1,11.2,1.65a371.34,371.34,0,0,0,44.66,2.13,370,370,0,0,0,44.56-2.84q5.57-.72,11.14-1.82c2.42-.49,4.85-1,7.28-1.74,1.57,1.93,3.13,3.83,4.53,5.66.35.47.69,1,.94,1.36A5.84,5.84,0,0,1,182,656Zm8.75-65-6.89,7.8-3.44,3.9-.87,1c-.29.34-.53.59-.95,1.11a13.83,13.83,0,0,0-.88,1.28,407.35,407.35,0,0,1-127,.28,11.76,11.76,0,0,0-.8-1.31c-.18-.24-.36-.48-.56-.71l-.44-.52-.84-1-3.38-4-6.76-8-5-6,.8.3,11.12,3.55,11.3,3,11.43,2.47a250.85,250.85,0,0,0,93.08.21L172,591.84l11.31-2.93,11.14-3.52,1.77-.65Zm23-132.29c0,2.8,0,5.59,0,8.39a105,105,0,0,1-6.42,36.12h0c-2.24,6.44-4.58,12.85-6.74,19.32s-4.34,12.94-6.44,19.44c-1.84,5.86-3.66,11.72-5.35,17.63l-149.58-1c-1.6-5.56-3.31-11.08-5-16.6-2.12-6.49-4.26-13-6.52-19.4S23,509.67,20.66,503.25l-.18-.49a106.16,106.16,0,0,1-6.76-35.42c-.23-12.21-.66-24.42-1.19-36.64l-.36-8.59,201.91,2.72L214,430.7Z"/>
      </g>
    </g>
  </g>
</svg>
