<svg xmlns="http://www.w3.org/2000/svg" viewBox="0 0 327.67 720">
  <defs>
    <style>
      .cls-1 {
        fill: #494546;
      }
    </style>
  </defs>
  <title>Asset 1</title>
  <g id="Layer_2" data-name="Layer 2">
    <g id="Layer_1-2" data-name="Layer 1">
      <path class="cls-1" d="M324.27,121a133.82,133.82,0,0,0-15.11-40.38,122.25,122.25,0,0,0-28-33,148.93,148.93,0,0,0-36.84-22A206.82,206.82,0,0,0,203.84,13l-5.16-1.12-2.21-.47c-.69-.16-1.36-.35-2-.54a27.24,27.24,0,0,1-7.32-3.4,49.46,49.46,0,0,0-10.84-5.41,36.38,36.38,0,0,0-25,.25,40.41,40.41,0,0,0-5.66,2.6c-.9.5-1.78,1-2.63,1.58l-1.94,1.22a30.5,30.5,0,0,1-7.6,3.2c-1.41.4-2.57.58-4.44,1L123.85,13l-5.16,1.1c-1.73.36-3.44.73-5.14,1.24L103.34,18.2c-3.39,1-6.71,2.28-10.07,3.41-1.66.61-3.36,1.11-5,1.81l-4.91,2.11a149.27,149.27,0,0,0-36.84,22,121.94,121.94,0,0,0-28,33A132.83,132.83,0,0,0,3.41,121a185.66,185.66,0,0,0-3.3,42.45,255.29,255.29,0,0,0,5.11,41.82q2.12,10.28,4.93,20.38c.93,3.36,1.92,6.7,2.94,10L16,245.41c7.63,26.15,14.9,52.52,22.17,78.87l21.65,79.13c7.3,26.37,14.53,52.72,22.06,79.09,1.93,6.67,3.77,13,5.35,19.57s3,13.12,4.08,19.76c.86,5,1.58,9.95,2.21,14.94a15.33,15.33,0,0,0-5.17,2.59,17.26,17.26,0,0,0-6.18,9.9,20.72,20.72,0,0,0-.42,2.81c0,.46,0,.93,0,1.4s0,.72,0,1.1l.1,4,.23,8c.35,10.69.7,21.39,1.27,32.09h0a2.89,2.89,0,0,0,.13,1l.08.27,12,40.42c.19,2.82.3,5.63.46,8.44l.3,9.41c.06,1.81.08,3.62.12,5.43L84.4,665a3.66,3.66,0,0,0,0,7.28l12.11,1.38,0,3.37a22.74,22.74,0,0,0,4.16,13.33,19.15,19.15,0,0,0,4,4.15c1.61,4.8,3.45,9.49,5.37,14.14l.45,1.05c.21.45.41.91.67,1.35a15.76,15.76,0,0,0,1.68,2.57,17.08,17.08,0,0,0,4.79,4.17,15.35,15.35,0,0,0,6.32,2.05c.53.06,1.21.07,1.63.08h3.26l34.77.08c11.59,0,23.18-.12,34.77-.18h3.26c.42,0,1.09,0,1.61-.08a15.52,15.52,0,0,0,6.27-2.05,17.16,17.16,0,0,0,4.76-4.14A17.51,17.51,0,0,0,216,711c.26-.43.47-.89.69-1.34l.46-1,5.92-13.5a21.46,21.46,0,0,0,6.32-7.93,23.71,23.71,0,0,0,2-7c.07-.61.12-1.21.15-1.81s0-1.29,0-1.71l0-2.86v-.07l12.6-1.43a3.66,3.66,0,0,0,0-7.28l-12.8-1.45c0-.41,0-.82,0-1.23l-.4-11.46c-.19-3.65-.35-7.29-.62-10.94l13.44-40h0a2.6,2.6,0,0,0,.18-.8l0-.43c.62-10.7,1-21.4,1.35-32.09l.23-8,.11-4a22.94,22.94,0,0,0,0-2.56,21.16,21.16,0,0,0-.44-2.82,17.47,17.47,0,0,0-6.33-9.89,15.47,15.47,0,0,0-4.7-2.4c.64-5,1.36-10.07,2.23-15.07,1.12-6.64,2.54-13.22,4.08-19.76s3.41-12.9,5.34-19.57c7.53-26.37,14.75-52.73,22.06-79.09l21.65-79.13c7.27-26.35,14.54-52.73,22.17-78.88l2.93-9.73q1.53-5,2.94-10,2.81-10.08,4.92-20.38a252.91,252.91,0,0,0,5.13-41.81A186.79,186.79,0,0,0,324.27,121ZM92.17,600.89c4.8-.81,9.8-1.45,14.72-1.89,3.13-.35,6.28-.56,9.42-.85l9.45-.55c12.62-.65,25.28-.78,37.94-.5,12.67,0,25.34.85,38,1.53,6.34.39,12.67.92,19,1.36,4.81.4,9.62.83,14.44,1.22l-11.45,34.06q-6.45-1.17-12.95-2.19l-7.87-1q-3.94-.52-7.89-.89c-10.53-1.14-21.13-1.58-31.73-1.79-10.61,0-21.23.26-31.81,1.26-5.28.51-10.56,1.1-15.82,1.91-3.6.6-7.15,1.22-10.73,2Zm129.69,50-.39,11.46c-.1,3.82-.18,7.64-.22,11.46l0,2.86c0,.54,0,.78,0,1.16s-.06.7-.1,1.05a14.21,14.21,0,0,1-1.15,3.94,10.25,10.25,0,0,1-5.18,5.27,7.46,7.46,0,0,1-1.64.47,8,8,0,0,1-.84.1h-1.17l-5.73,0c-7.64,0-15.28,0-22.92.13l-45.84.46-11.46.1-5.73,0h-4.22a7.28,7.28,0,0,1-.93-.07,9.63,9.63,0,0,1-6.47-4.08,14.21,14.21,0,0,1-2.58-8.2c0-6.27.08-12.54.28-18.82l.3-9.41c.15-2.79.27-5.58.45-8.36,3.38-.44,6.79-.83,10.19-1.1,5.16-.52,10.35-.86,15.54-1.11q15.57-.75,31.18-.63c5.2.1,10.4.13,15.6.39,2.6.1,5.21.15,7.81.3l7.8.43c9.35.52,18.68,1.38,28.05,2.17C222.2,644.2,222,647.53,221.86,650.85Zm-14.34,53.34-.45.93c-.12.2-.2.41-.33.59a8.24,8.24,0,0,1-.75,1,6.52,6.52,0,0,1-1.81,1.48,5.19,5.19,0,0,1-2,.58l-.56,0h-3.26c-11.59-.06-23.18-.2-34.77-.18l-34.77.08h-3.26l-.55,0a5.25,5.25,0,0,1-1.89-.59,6.28,6.28,0,0,1-1.78-1.45,8.88,8.88,0,0,1-.76-1,6.59,6.59,0,0,1-.34-.57l-.47-.93c-1-2-2-3.95-3.08-5.92h2.69l5.73,0,11.46.1,45.84.47c7.64.1,15.28.11,22.92.13H210Zm26.89-151.06c0,.42.08.65.1,1.44l.11,4,.23,8c.33,9.48.68,19,1.17,28.45-4.86-.7-9.74-1.37-14.61-2-6.37-.68-12.74-1.4-19.13-2-3.19-.27-6.39-.54-9.59-.76s-6.4-.46-9.6-.58l-9.62-.47c-3.21-.13-6.42-.18-9.63-.27-12.84-.13-25.71,0-38.56,1l-9.63.88c-3.21.4-6.41.71-9.61,1.19l-4.79.74-4.79.86c-1.75.35-3.47.71-5.2,1.11.45-9.37.78-18.74,1.09-28.11l.22-8,.1-4c0-.29,0-.77,0-.9l.05-.6a8.37,8.37,0,0,1,.25-1.15,6.32,6.32,0,0,1,2.28-3.36c1.18-.69,1-.6,4.48-.74q31.85-1.16,63.8-1c21.28.07,42.56.52,63.85,1.24,3.45.11,3.31,0,4.47.68a6,6,0,0,1,2.27,3.28A10.3,10.3,0,0,1,234.41,553.13ZM127.9,168.66c4.13,8.54,10.68,15.52,18,21.13a108.76,108.76,0,0,0,23.88,13.41c8.36,3.53,16.92,6.35,25.38,9.21l6.32,2.17c2.11.72,4.25,1.43,6.2,2.23a36.64,36.64,0,0,1,10.76,6.35,16.49,16.49,0,0,1,5.7,9.84,14.58,14.58,0,0,1-2.56,10.76c-2.21,3.09-5.77,5.23-9.58,6.79a52,52,0,0,1-12.32,3c-3.38.4-6.77.91-10.15,1.48-4.14-1.78-8.33-3.35-12.53-4.85.72-.17,1.44-.37,2.17-.53q6.44-1.44,13-2.47c2.2-.37,4.26-.62,6.61-1a55.85,55.85,0,0,0,7-1.53,31.8,31.8,0,0,0,3.57-1.26,17.82,17.82,0,0,0,3.66-2,9.84,9.84,0,0,0,1.87-1.77,7,7,0,0,0,1.47-3A6.45,6.45,0,0,0,216,233a8.74,8.74,0,0,0-1.44-2.41,20.46,20.46,0,0,0-6.57-4.79,49.17,49.17,0,0,0-6.64-2.66c-17-5.88-34.16-10.71-49.34-19.3a88.91,88.91,0,0,1-20.55-15.6,60.16,60.16,0,0,1-13.51-21.42,50.33,50.33,0,0,1-2.26-25,42.5,42.5,0,0,1,3.86-11.91c.48-.93,1-1.82,1.51-2.74l1.74-2.58a4.23,4.23,0,0,1,3.5-1.83,4.3,4.3,0,0,1,3.51,1.82,4.35,4.35,0,0,1,.54,3.94,4,4,0,0,1-.46.92l-.92,1.38a30.63,30.63,0,0,0-1.87,3.17,34.64,34.64,0,0,0-2.5,6.84A41.67,41.67,0,0,0,127.9,168.66Zm34.69-34.22,0-5.74v-1.44c0-.44,0-1.1,0-1.13a1.3,1.3,0,0,1,.48-.87,1.31,1.31,0,0,1,1.85.23,1.39,1.39,0,0,1,.22.46,3.05,3.05,0,0,1,0,.83v2.87l0,11.48q0,27.39.28,54.78c-1.05-.51-2.08-1.07-3.12-1.61,0-.82,0-1.64,0-2.46q.21-23,.2-45.92Zm40.38,6.4a34.89,34.89,0,0,0-2.49-6.8,33.51,33.51,0,0,0-1.86-3.16l-.93-1.37a5.11,5.11,0,0,1-.49-1,4.49,4.49,0,0,1,4.2-6,4.42,4.42,0,0,1,3.67,1.89c.58.87,1.18,1.72,1.75,2.6s1,1.82,1.52,2.75a42.59,42.59,0,0,1,3.87,12A50.23,50.23,0,0,1,210,166.84a60.26,60.26,0,0,1-13.55,21.5,85.39,85.39,0,0,1-16.92,13.41c-2.63-1-5.25-2-7.82-3.08-.25-.1-.48-.21-.72-.32l0-1.51a91.18,91.18,0,0,0,10.88-7.07c7.29-5.61,13.8-12.63,17.88-21.16A41.74,41.74,0,0,0,203,140.84Zm-47.66,103c-1.74-.42-3.47-.83-5.22-1.21q-6.66-1.42-13.4-2.45c-2.2-.36-4.58-.64-6.66-.94a48.05,48.05,0,0,1-6.12-1.26,17.52,17.52,0,0,1-5-2.16,2.9,2.9,0,0,1-.61-.55,2.22,2.22,0,0,1,.23-.32,14.27,14.27,0,0,1,4.31-3.06,42.91,42.91,0,0,1,5.81-2.37c9-3.21,18.27-6.21,27.4-9.71Q155.68,231.8,155.31,243.81Zm6.8-27.67c1.21.53,2.43,1.05,3.65,1.55q.21,14.53.47,29.05c-1.52-.45-3-.89-4.59-1.31Q161.91,230.79,162.11,216.14Zm10.08,27.54q-.37-11.85-.71-23.71c9.18,3.52,18.48,6.51,27.51,9.73a42.85,42.85,0,0,1,5.79,2.36,14.41,14.41,0,0,1,4.24,3l.11.16a2.89,2.89,0,0,1-.46.38,16.83,16.83,0,0,1-5,2.12,48.62,48.62,0,0,1-6.09,1.26c-2.06.3-4.45.58-6.66.94-4.49.68-9,1.51-13.41,2.47C175.75,242.78,174,243.24,172.19,243.68Zm-23.43-34.23c2.29,1.32,4.61,2.53,7,3.7-9.55,3.64-19.43,6.75-29.28,10.16a49.65,49.65,0,0,0-6.62,2.65,20.17,20.17,0,0,0-6.49,4.74,8.64,8.64,0,0,0-1.41,2.34,6.28,6.28,0,0,0-.3,3.53,6.75,6.75,0,0,0,1.42,2.89,9.72,9.72,0,0,0,1.83,1.73,17.33,17.33,0,0,0,3.62,2,32.55,32.55,0,0,0,3.53,1.26,55.68,55.68,0,0,0,7,1.51c2.35.36,4.41.61,6.62,1q6.52,1,13,2.48a218.43,218.43,0,0,1,25.35,7.31c8.28,3,16.47,6.28,23.85,10.6s14.05,9.75,18.61,16.59a40.54,40.54,0,0,1,6.66,23.2,52.08,52.08,0,0,1-1.64,12.41c-.44,2.06-1.14,4.08-1.76,6.11-.77,2-1.43,4-2.34,6a108.79,108.79,0,0,1-5.85,11.55c-2.24,3.73-4.59,7.36-7.14,10.95a125.82,125.82,0,0,1-16.9,19.79,81.22,81.22,0,0,1-7.05,5.82c-.1-2.74-.18-5.49-.29-8.23a98.39,98.39,0,0,0,13.66-14c2.91-3.59,5.6-7.22,8.21-11a118.27,118.27,0,0,0,7.17-11.89c4.25-8.24,7.82-17.33,8-27.37a35.13,35.13,0,0,0-2.91-14.86,36,36,0,0,0-8.91-12.12,61.14,61.14,0,0,0-11.8-8.21,109.55,109.55,0,0,0-12.62-5.85,199,199,0,0,0-26-8.35c-4.42-1.08-8.88-2-13.36-2.82q-3.36-.6-6.74-1.08l-6.67-.89a51,51,0,0,1-12.22-3c-3.77-1.52-7.24-3.63-9.43-6.6a13.64,13.64,0,0,1-2.31-4.92,14.88,14.88,0,0,1-.28-5.56,16,16,0,0,1,5.55-9.73A36.29,36.29,0,0,1,120.1,217c2-.8,4.09-1.53,6.19-2.26l6.3-2.21c4.48-1.55,9-3.12,13.47-4.75C147,208.33,147.85,208.92,148.76,209.45ZM140,352.69a138.14,138.14,0,0,1-14.21-21.78c-3.87-7.59-6.86-15.75-7-23.77A27,27,0,0,1,121,295.73a28.06,28.06,0,0,1,6.9-9.5c6-5.57,13.82-9.52,21.82-12.91,1.56-.65,3.15-1.24,4.73-1.85-.15,4-.28,8-.43,12l-1.78,45.86L152,335a20,20,0,0,1-.85,4.81c-.48,1.65-1.14,3.44-1.74,5.43a27.4,27.4,0,0,0-1.2,6.49l-.39,9.83A105.84,105.84,0,0,1,140,352.69Zm14.41,94c-.23-23.88.14-47.81.84-71.72l.65-22.84a19.27,19.27,0,0,1,.83-4.77c.48-1.68,1.13-3.5,1.69-5.52a27.68,27.68,0,0,0,1.06-6.48l.16-5.82,1.21-45.88q.19-8,.35-15.95,2.75.87,5.48,1.81.6,27.63,1.37,55.24l.16,5.73c.08,1.92.05,3.7.21,5.93a23.48,23.48,0,0,0,.47,3.29c.22,1,.5,2.1.79,3.07.59,1.95,1.22,3.71,1.64,5.35a20.1,20.1,0,0,1,.47,2.41A21.78,21.78,0,0,1,172,353l.16,5.73.32,11.46c.48,15.29.68,30.53.86,45.81q.16,15.36,0,30.7c-.57-.08-1.14-.16-1.7-.26-1.37-.12-2.92-.2-4.16-.22h-7.26c-1.24,0-2.79.1-4.15.23C155.52,446.55,155,446.62,154.43,446.7Zm25.28-85.14-.12-3.08-.23-5.74a28.19,28.19,0,0,0-.28-3.25,29.2,29.2,0,0,0-.67-3.22c-1.17-4.12-2.61-7.32-2.82-10.45-.13-1.59-.15-3.64-.24-5.54l-.23-5.74q-1.08-26.32-2-52.66c1.58.61,3.16,1.22,4.72,1.86a102.05,102.05,0,0,1,11.62,5.6,53.22,53.22,0,0,1,10.08,7.21,28.29,28.29,0,0,1,6.87,9.32,26.4,26.4,0,0,1,2.18,11.27c-.14,7.95-3,16.09-6.85,23.7a139,139,0,0,1-14.15,21.79A105.17,105.17,0,0,1,179.71,361.56Zm-39.29-99.31c3.76.78,7.48,1.68,11.18,2.66-1.56.56-3.1,1.13-4.64,1.74a104,104,0,0,0-12.58,5.81,60.5,60.5,0,0,0-11.71,8.15,35.88,35.88,0,0,0-8.88,11.94,34.6,34.6,0,0,0-3,14.71,50.68,50.68,0,0,0,2.45,14.31,82.36,82.36,0,0,0,5.42,13,117.23,117.23,0,0,0,7.15,11.88c2.6,3.8,5.28,7.44,8.17,11a99.25,99.25,0,0,0,13.41,13.72l-.14,3.52c-.06,1.64-.09,3.28-.15,4.92a79.31,79.31,0,0,1-6.89-5.71,126.23,126.23,0,0,1-16.88-19.8c-2.55-3.6-4.9-7.23-7.13-11a106.71,106.71,0,0,1-5.84-11.54c-.92-1.95-1.57-4-2.34-6s-1.32-4-1.76-6.11a52,52,0,0,1-1.63-12.4A40,40,0,0,1,111.4,284c4.59-6.77,11.22-12.19,18.59-16.49A102.82,102.82,0,0,1,140.42,262.25Zm10.84,195.13,1.41-.52,1.46-.37a27.16,27.16,0,0,1,3-.53c.5-.06,1,0,1.51-.08s.94-.07,1.6-.06l3.63,0h3.63c.66,0,1.07,0,1.6.05s1,0,1.51.09a22.64,22.64,0,0,1,3,.53l1.47.36,1.41.52a23.85,23.85,0,0,1,9.74,6.95,23.53,23.53,0,0,1,5.1,10.88l.26,1.5.1,1.53c.1.93.06,2.28.1,3.46l.13,7.26c.27,15.1.67,30.19,1.29,45.29-9.85-.28-19.69-.51-29.55-.5q-14.52,0-29.05.45c.61-15.08,1-30.16,1.28-45.24l.13-7.26c0-1.18,0-2.53.11-3.46l.09-1.53.26-1.5a23.58,23.58,0,0,1,5.1-10.88A24,24,0,0,1,151.26,457.38ZM313.63,163a246.16,246.16,0,0,1-4.69,39.54q-1.92,9.83-4.53,19.54c-.86,3.23-1.78,6.46-2.73,9.68l-2.89,9.93c-7.44,26.43-14.45,52.86-21.48,79.31l-20.88,79.36c-6.88,26.46-13.71,53-20.79,79.31-1.77,6.5-3.64,13.34-5.15,20.09s-2.85,13.61-3.89,20.48c-.79,5.18-1.42,10.38-2,15.59-8.49-.59-17-1-25.48-1.36.62-15.17,1-30.33,1.29-45.5l.14-7.26c0-1.25.07-2.33,0-3.81l-.1-2.1-.29-2.09a32.18,32.18,0,0,0-12.9-21.12,35,35,0,0,0-3.57-2.3c-.75-.35-1.49-.73-2.24-1.09q.12-16.65-.11-33.28-.23-13.79-.68-27.56l.68-.42a84.1,84.1,0,0,0,11-8.62,132.9,132.9,0,0,0,18-20.86c2.64-3.69,5.17-7.55,7.54-11.48a114.79,114.79,0,0,0,6.32-12.35c1-2.1,1.73-4.32,2.57-6.5s1.47-4.45,2-6.76a59.54,59.54,0,0,0,1.91-14.12,47.27,47.27,0,0,0-8-27.52c-5.46-8.07-13.12-14.12-21.16-18.75-.79-.46-1.59-.89-2.39-1.32l1.42-.22a57.23,57.23,0,0,0,13.59-3.68c4.38-1.89,8.76-4.6,11.8-8.84a19.43,19.43,0,0,0,3.14-7.06,20.3,20.3,0,0,0,.22-7.65,19.88,19.88,0,0,0-2.65-7.18,24.83,24.83,0,0,0-4.85-5.67,41.22,41.22,0,0,0-12.29-7.12c-2.2-.87-4.3-1.55-6.42-2.29l-6.37-2.18c-3.39-1.15-6.77-2.29-10.13-3.46a88.3,88.3,0,0,0,14.06-12,66,66,0,0,0,14.6-23.69,55.92,55.92,0,0,0,2.25-27.82A48.06,48.06,0,0,0,213,127.43c-.56-1.05-1.17-2.07-1.76-3.11s-1.34-2-2-2.95a9.57,9.57,0,0,0-15.72,10.92l.95,1.4a26.39,26.39,0,0,1,1.57,2.6,30.63,30.63,0,0,1,2.14,5.76,36.52,36.52,0,0,1-2.84,24.47c-3.67,7.65-9.64,14.13-16.49,19.39a82.82,82.82,0,0,1-8.05,5.37q-.57-25.08-.91-50.17l0-11.47v-2.86a7.6,7.6,0,0,0-.21-2,5.88,5.88,0,0,0-1-2.1,6,6,0,0,0-10.7,2.86,15.21,15.21,0,0,0-.07,1.73v1.44l-.06,5.73-.13,11.47q-.3,22.63-.82,45.29a84.73,84.73,0,0,1-7.93-5.29c-6.84-5.26-12.76-11.78-16.39-19.43a36.54,36.54,0,0,1-2.81-24.37,30.09,30.09,0,0,1,2.14-5.73,28.13,28.13,0,0,1,1.55-2.59l1-1.39a10,10,0,0,0,1.06-2.06,9.76,9.76,0,0,0-17.06-9.06c-.68,1-1.38,2-2,3s-1.21,2.06-1.76,3.12A47.85,47.85,0,0,0,110,140.81a56,56,0,0,0,2.25,27.92A66.26,66.26,0,0,0,126.9,192.5a88.62,88.62,0,0,0,13.92,11.84c-3.28,1.11-6.57,2.2-9.88,3.3l-6.38,2.14c-2.13.72-4.24,1.39-6.44,2.26a41.56,41.56,0,0,0-12.36,7.15,25.48,25.48,0,0,0-4.91,5.7,20.1,20.1,0,0,0-2.75,7.27,20.88,20.88,0,0,0,.18,7.76,19.86,19.86,0,0,0,3.16,7.22c3.07,4.36,7.53,7.1,12,9a57.92,57.92,0,0,0,13.69,3.73l.52.09c-.51.27-1,.52-1.52.8-8.06,4.64-15.75,10.71-21.17,18.85a47.87,47.87,0,0,0-8,27.6,59.48,59.48,0,0,0,1.92,14.12c.51,2.31,1.28,4.53,2,6.77s1.59,4.4,2.58,6.5A114.64,114.64,0,0,0,109.75,347c2.38,3.93,4.91,7.79,7.56,11.48a133.34,133.34,0,0,0,18,20.84,83.31,83.31,0,0,0,11,8.6l.52.32c-.58,20.32-.88,40.66-.73,61l-2.17,1a38.07,38.07,0,0,0-3.57,2.3,32.52,32.52,0,0,0-6.13,5.82,32.87,32.87,0,0,0-6.76,15.3l-.29,2.09-.1,2.1c-.08,1.48,0,2.56,0,3.81l.14,7.26c.27,15.15.67,30.29,1.28,45.44q-12.73.47-25.48,1.37c-.55-5.19-1.18-10.38-2-15.54-1-6.87-2.4-13.69-3.89-20.48S93.81,486.16,92,479.66c-7.08-26.34-13.9-52.85-20.78-79.31L50.38,321c-7-26.45-14-52.88-21.48-79.32L26,231.74q-1.44-4.83-2.74-9.68-2.61-9.69-4.52-19.53A243.93,243.93,0,0,1,14.06,163a171.68,171.68,0,0,1,3.15-39.16,118.65,118.65,0,0,1,13.6-36.08A108,108,0,0,1,55.65,58.63,135.37,135.37,0,0,1,89,38.84l4.52-1.92c1.51-.65,3.1-1.1,4.64-1.66,3.13-1,6.19-2.24,9.37-3.14l9.56-2.62c1.58-.48,3.21-.82,4.84-1.15l4.87-1,4.88-1c1.46-.32,3.68-.69,5.56-1.23a45.7,45.7,0,0,0,11.26-4.7c.44-.27.89-.53,1.32-.82l1.08-.69c.58-.39,1.17-.72,1.77-1.06a25,25,0,0,1,3.66-1.66,23.13,23.13,0,0,1,7.55-1.42c5.08-.11,10.25,1.85,15.1,5a41.87,41.87,0,0,0,11.23,5.19c1,.29,1.94.55,2.91.77l2.82.59,4.86,1a192,192,0,0,1,37.8,11.52A134.42,134.42,0,0,1,272,58.61a107.54,107.54,0,0,1,24.83,29.14,119.3,119.3,0,0,1,13.61,36.08A172.25,172.25,0,0,1,313.63,163Z"/>
    </g>
  </g>
</svg>
