<svg xmlns="http://www.w3.org/2000/svg" viewBox="0 0 494.82 720">
  <defs>
    <style>
      .cls-1 {
        fill: #494546;
      }
    </style>
  </defs>
  <title>Asset 10</title>
  <g id="Layer_2" data-name="Layer 2">
    <g id="Layer_1-2" data-name="Layer 1">
      <g>
        <path class="cls-1" d="M494.57,240a257.87,257.87,0,0,0-6.55-46.9A253.75,253.75,0,0,0,419,70.71a247.83,247.83,0,0,0-78.77-52.19,241.77,241.77,0,0,0-185.53,0A247.83,247.83,0,0,0,75.89,70.65,253.59,253.59,0,0,0,6.81,193,256.91,256.91,0,0,0,.25,239.93L0,251.77c0,3.94.23,7.89.33,11.83.09,2,.09,3.95.25,5.91l.55,5.9.56,5.89c.1,1,.17,2,.29,2.94l.45,2.93,1.8,11.7,2.48,11.57.63,2.89c.23,1,.52,1.9.77,2.85l1.58,5.71,1.58,5.7c.6,1.87,1.26,3.73,1.89,5.6l1.91,5.6,1,2.8c.34.92.73,1.83,1.1,2.74l4.46,10.95L26.66,366l1.28,2.67,1.42,2.59,2.84,5.18a250.59,250.59,0,0,0,26.69,38.91A261.71,261.71,0,0,0,92.5,448.36l9.26,7.26c3,2.21,5.83,4.56,8.62,7a130,130,0,0,1,15.3,16.08,123.86,123.86,0,0,1,21,39c4.73,13.66,10.7,27.06,19.19,39.13a6.62,6.62,0,0,0-.31,1.22c0,.24,0,.48,0,.72v.29l0,1.43.33,22.84a7.3,7.3,0,0,0,.46,2.32,7.88,7.88,0,0,0,.93,1.67,11.28,11.28,0,0,0,1,1.12c.31.27.63.53,1,.79a17.46,17.46,0,0,0,3.36,1.86l.6.25c-.13.57-.26,1.14-.37,1.73a34.08,34.08,0,0,0-.58,6.32,27,27,0,0,0,.76,6.43,21,21,0,0,0,1.4,4.11c-.25.3-.49.6-.74.93a21.6,21.6,0,0,0-1.84,2.87,17.18,17.18,0,0,0-2.05,6.81,13.8,13.8,0,0,0,1.38,7.21,17,17,0,0,0,1.84,3.06c.16.21.33.4.5.59l-.55.91a26.27,26.27,0,0,0-1.61,3.23,22.53,22.53,0,0,0-1.74,7.23,16.42,16.42,0,0,0,1.32,7.64,16.85,16.85,0,0,0,3.18,5,20.06,20.06,0,0,0-.22,2,25,25,0,0,0,0,3.67,20.7,20.7,0,0,0,1.92,7.29,19.14,19.14,0,0,0,2,3.31,20.12,20.12,0,0,0,5.92,4.84c.43.24.88.43,1.33.63,0,.24,0,.5.05.74a18.23,18.23,0,0,0,.52,2.86,21.23,21.23,0,0,0,2.16,5.31,25,25,0,0,0,7.61,8,34.64,34.64,0,0,0,4.64,2.74c1.59.77,3.23,1.39,4.86,2,1.66.49,3.31,1,5,1.47l3.3.71L218,713.64l.06.14,0,.07a10.09,10.09,0,0,0,8,5.75,11.3,11.3,0,0,0,1.21.06h2.62l3.5,0,14,.12,14,.12,3.5,0h3.19c.23,0,.45,0,.68,0a10.54,10.54,0,0,0,8.35-5.9l.09-.21v0l4.93-12.17,2.94-.69c1.68-.46,3.34-1.05,5-1.57,1.64-.68,3.29-1.34,4.88-2.15a34.74,34.74,0,0,0,4.64-2.84,25.37,25.37,0,0,0,7.56-8.24,21.48,21.48,0,0,0,2.1-5.38,18.21,18.21,0,0,0,.47-2.88c0-.22,0-.45,0-.67a14,14,0,0,0,1.38-.59,19.15,19.15,0,0,0,3.26-2,19.36,19.36,0,0,0,2.9-2.69,19.78,19.78,0,0,0,2.2-3.33,21.14,21.14,0,0,0,2.23-7.45,26.69,26.69,0,0,0,.14-3.79c0-.57-.07-1.13-.12-1.7a17.79,17.79,0,0,0,4-12.93,22.38,22.38,0,0,0-2-7.29,25.87,25.87,0,0,0-1.73-3.2l-.54-.83c.15-.17.32-.33.47-.51a17.73,17.73,0,0,0,2-3,14.48,14.48,0,0,0,1.75-7.27,17.7,17.7,0,0,0-1.73-7.14,22.67,22.67,0,0,0-1.75-3.08c-.13-.2-.28-.39-.42-.58a21.61,21.61,0,0,0,1.11-3.9,27.14,27.14,0,0,0,.45-6.64,34.59,34.59,0,0,0-.94-6.37c-.15-.58-.31-1.14-.48-1.7.48-.21,1-.42,1.47-.67a12.65,12.65,0,0,0,3.58-2.54,7.48,7.48,0,0,0,1-1.3,7.62,7.62,0,0,0,.46-.9l.2-.46.15-.59a9.63,9.63,0,0,0,.17-1.2l0-.34v-.9l.36-22.84V559c0-.07,0-.43,0-.63a6.57,6.57,0,0,0-.49-1.86,154.25,154.25,0,0,0,19.33-38.68,123.29,123.29,0,0,1,21-39,129.94,129.94,0,0,1,15.28-16.1c2.78-2.44,5.64-4.8,8.61-7l9.25-7.26a261.71,261.71,0,0,0,33.63-33,251.71,251.71,0,0,0,26.71-38.89l2.84-5.19,1.42-2.59,1.28-2.66,5.08-10.68,4.46-10.95,1.11-2.74.95-2.8,1.91-5.6,1.9-5.6,1.58-5.7,1.58-5.7.78-2.86.62-2.89L490.57,299l1.8-11.7.45-2.92c.13-1,.2-2,.3-2.95l.56-5.89.55-5.89c.17-2,.16-3.94.25-5.91.11-3.95.35-7.89.34-11.84ZM174.49,581.92s.07,0,.06.06h0Zm96,129A3.23,3.23,0,0,1,268,712.8l-.2,0h-2.92l-3.5,0-14,.12-14,.12-3.5,0-1.75,0h-.87c-.33,0-.35,0-.53,0a3.63,3.63,0,0,1-2.89-2l-3.54-8.73c8.92.82,17.95,1.57,27.06,1.63,8.76.08,17.47-.37,26.14-1Zm32.68-31.72a14.78,14.78,0,0,1-1.61,3.7,18.69,18.69,0,0,1-5.87,5.87,27.72,27.72,0,0,1-3.81,2.15c-1.34.62-2.77,1.12-4.17,1.65s-2.93.86-4.42,1.21l-3.18.62a3.73,3.73,0,0,0-1.11,0h0c-10.55,1.07-21.09,1.93-31.58,2s-21-.7-31.67-1.49a3.47,3.47,0,0,0-1.29.17l-3.07-.65c-1.5-.39-3-.89-4.44-1.32s-2.85-1.1-4.2-1.75a28.87,28.87,0,0,1-3.82-2.26,19,19,0,0,1-5.82-6.08,16.54,16.54,0,0,1-1.36-3.22c8.44,1.14,16.94,2.11,25.47,2.7,10.05.72,20.14,1,30.21.91s20.12-.62,30.14-1.45c8.59-.75,17.14-1.79,25.67-3A1.83,1.83,0,0,1,303.16,679.23Zm9.89-13.74a12.46,12.46,0,0,1-1.16,2.16,12,12,0,0,1-1.68,1.83,13,13,0,0,1-2.08,1.54,14.42,14.42,0,0,1-1.66.86c-9.8,1.29-19.62,2.36-29.47,3.09s-19.75,1.06-29.62,1-19.74-.45-29.57-1.29-19.61-2.12-29.41-3.64h-.06a4.08,4.08,0,0,0-1.64.12l-.09-.05a12.2,12.2,0,0,1-2.18-1.46,10.43,10.43,0,0,1-3.15-3.95,14.18,14.18,0,0,1-1.33-5.11,18.29,18.29,0,0,1,0-2.77s0-.1,0-.15a425.6,425.6,0,0,0,67.41,5.87q17.76.16,35.52-1c10.42-.74,20.81-1.84,31.18-3.21,0,.4,0,.8,0,1.2A13.6,13.6,0,0,1,313.05,665.49Zm4.51-17.78A10.87,10.87,0,0,1,315.1,651c-10.89,1.66-21.82,3-32.8,3.95q-17.42,1.4-34.92,1.54a418.74,418.74,0,0,1-68.68-5.09,11.05,11.05,0,0,1-2.19-3.36,10.31,10.31,0,0,1-.84-4.91A16.3,16.3,0,0,1,177,637.9a19,19,0,0,1,1.25-2.52l.07-.11a409,409,0,0,0,69.16,4.29c11.89-.23,23.76-.93,35.59-2,10.79-1,21.54-2.48,32.23-4.17a19.18,19.18,0,0,1,1.23,2.07,19.82,19.82,0,0,1,1.13,2.55,16,16,0,0,1,1,5.14A9.58,9.58,0,0,1,317.56,647.71Zm.37-22.65a10.58,10.58,0,0,1-1.08,2,11.2,11.2,0,0,1-.81,1c-11.13,1.54-22.3,2.79-33.5,3.62-11.71.81-23.44,1.24-35.16,1.21a399.83,399.83,0,0,1-69.69-6,8.15,8.15,0,0,1-1-1.74,7.67,7.67,0,0,1-.82-4.19,10.89,10.89,0,0,1,1.34-4.36,14.82,14.82,0,0,1,1.33-2.07,10.27,10.27,0,0,1,.79-1,251.54,251.54,0,0,0,32.82,5.35q17.58,1.77,35.26,1.82c2.94,0,5.88-.08,8.83-.11l4.41-.07,4.41-.22,8.83-.44,8.8-.74c5.88-.4,11.71-1.27,17.56-1.93,5.17-.68,10.3-1.56,15.45-2.38l.15.18a14.81,14.81,0,0,1,1.32,1.91,10.47,10.47,0,0,1,1.4,4.06A7.53,7.53,0,0,1,317.93,625.06Zm-139.6-25.7a29.44,29.44,0,0,1,.47-5.18c.06-.32.14-.65.21-1a113.09,113.09,0,0,0,11.28,2.18c7.72,1.13,15.41,1.77,23.09,2.26s15.35.7,23,.89,15.33.13,23,.05a351.43,351.43,0,0,0,46.11-3.36c3.38-.53,6.75-1.14,10.18-2,.07.35.14.71.19,1a27,27,0,0,1,.32,5.13,19.8,19.8,0,0,1-.74,4.85,13.38,13.38,0,0,1-1,2.52c-5.12.92-10.24,1.92-15.39,2.69-5.72.77-11.43,1.75-17.18,2.26l-8.62.91-8.65.61-4.33.3-4.33.16c-2.89.1-5.77.25-8.66.3q-17.34.28-34.66-1.07a247.69,247.69,0,0,1-32.33-4.61,17.17,17.17,0,0,1-1.43-3.92A21.5,21.5,0,0,1,178.33,599.36Zm140.9-16.71a25.52,25.52,0,0,1-4.51,1.79A93.41,93.41,0,0,1,304.11,587c-7.29,1.37-14.79,2.16-22.28,2.82s-15.05,1.06-22.6,1.31-15.12.27-22.68.09-15.1-.58-22.61-1.22-15-1.55-22.3-2.84A106.68,106.68,0,0,1,181,584.71a34.89,34.89,0,0,1-4.72-1.72,8.47,8.47,0,0,1-1.28-.72l.27-18c.73.26,1.45.5,2.17.74a107.87,107.87,0,0,0,11.71,2.8,306.76,306.76,0,0,0,46.24,4.26c7.7.24,15.39.18,23.09-.06s15.4-.62,23.1-1.24S297,569.33,304.67,568a113.62,113.62,0,0,0,11.69-2.63c1-.27,2-.64,3-1l.22-.09.27,18A3.78,3.78,0,0,1,319.23,582.65Zm-143.92-23.6V559c0-.05,0-.07,0,0ZM209,158.74c4.42,9.13,11.43,16.61,19.24,22.61a98.06,98.06,0,0,0,11.66,7.57c0,.65,0,1.29,0,1.93l-.75.34c-2.74,1.16-5.52,2.23-8.32,3.26a92.18,92.18,0,0,1-18.3-14.52,64.66,64.66,0,0,1-14.54-23.07A54.18,54.18,0,0,1,195.5,130a45.66,45.66,0,0,1,4.16-12.84c.52-1,1.1-2,1.64-3s1.25-1.85,1.87-2.79a4.74,4.74,0,0,1,3.92-2,4.82,4.82,0,0,1,3.92,2,4.88,4.88,0,0,1,.6,4.4,4.94,4.94,0,0,1-.51,1l-1,1.48a34.79,34.79,0,0,0-2,3.38,37.17,37.17,0,0,0-2.67,7.3A44.58,44.58,0,0,0,209,158.74Zm32,37a116.23,116.23,0,0,0,25.57-14.38c7.8-6,14.77-13.52,19.14-22.65A44.55,44.55,0,0,0,289.23,129a37.51,37.51,0,0,0-2.66-7.27,32.59,32.59,0,0,0-2-3.36l-1-1.48a5,5,0,0,1,4.13-7.74,4.94,4.94,0,0,1,4.08,2.11c.63.93,1.28,1.85,1.89,2.8s1.12,2,1.64,3a46,46,0,0,1,4.18,12.89,54.32,54.32,0,0,1-2.43,27,64.89,64.89,0,0,1-14.58,23.16,96.23,96.23,0,0,1-22.15,16.83c-16.35,9.26-34.77,14.46-53,20.77a53.71,53.71,0,0,0-7.07,2.83,21.72,21.72,0,0,0-6.89,5,8.94,8.94,0,0,0-1.47,2.45,6.47,6.47,0,0,0-.32,3.66,7,7,0,0,0,1.48,3,10,10,0,0,0,1.92,1.81,17.82,17.82,0,0,0,3.84,2.13,33.9,33.9,0,0,0,3.76,1.34,59.19,59.19,0,0,0,7.48,1.62c2.51.38,4.73.65,7.1,1q7,1.13,13.93,2.67c1.05.24,2.11.51,3.16.76l-.24.08c-4.54,1.61-9.08,3.3-13.56,5.21-1.43-.24-2.86-.49-4.29-.69l-7.16-1a55.51,55.51,0,0,1-13.17-3.2c-4.06-1.65-7.82-3.94-10.2-7.17a14.78,14.78,0,0,1-2.51-5.37,16.15,16.15,0,0,1-.3-6,17.5,17.5,0,0,1,6-10.56,39.1,39.1,0,0,1,11.53-6.81c2.09-.86,4.39-1.63,6.64-2.42l6.78-2.37C222.87,202.6,232,199.48,241,195.71Zm4.89-73.63,0-6.16v-1.54c0-.48,0-1.17,0-1.24a1.51,1.51,0,0,1,.58-1,1.57,1.57,0,0,1,2.21.27,1.49,1.49,0,0,1,.27.55,3.41,3.41,0,0,1,.06.93v3.08l.05,12.33q0,28.54.29,57.08c-1.24.64-2.46,1.31-3.72,1.91l.06-4.57q.24-24.65.23-49.29Zm4.27,119.06q-2.68.74-5.36,1.52.3-15.84.51-31.7c1.45-.6,2.9-1.21,4.34-1.85Q249.86,225.13,250.16,241.14Zm-10.93-27.76q-.34,13.2-.77,26.39c-1.94-.48-3.9-.94-5.86-1.36q-7.14-1.54-14.37-2.64c-2.36-.38-4.91-.68-7.14-1a51.42,51.42,0,0,1-6.6-1.37,18.75,18.75,0,0,1-5.49-2.35,3.73,3.73,0,0,1-.8-.75,2.9,2.9,0,0,1,.35-.53,15.53,15.53,0,0,1,4.71-3.34,45.9,45.9,0,0,1,6.26-2.55C219.3,220.4,229.34,217.18,239.23,213.38Zm-2.67,39.93a231,231,0,0,1,27.21-7.83q6.92-1.53,13.91-2.65c2.37-.39,4.59-.66,7.1-1.05a60,60,0,0,0,7.51-1.62,34.44,34.44,0,0,0,3.79-1.35,18.74,18.74,0,0,0,3.88-2.16,10.17,10.17,0,0,0,2-1.85,7.37,7.37,0,0,0,1.52-3.11,6.7,6.7,0,0,0-.33-3.78,9.14,9.14,0,0,0-1.51-2.52,21.6,21.6,0,0,0-7-5.08,53.32,53.32,0,0,0-7.1-2.84c-10.78-3.73-21.59-7.11-32-11.13,2.64-1.3,5.26-2.66,7.83-4.14,1-.56,1.94-1.14,2.9-1.73,4.92,1.77,9.86,3.47,14.77,5.13l6.79,2.33c2.26.77,4.56,1.53,6.66,2.4a39.34,39.34,0,0,1,11.6,6.83,17.91,17.91,0,0,1,6.19,10.68,15.88,15.88,0,0,1-2.78,11.68c-2.4,3.36-6.25,5.68-10.36,7.36a56.05,56.05,0,0,1-13.26,3.25,227.94,227.94,0,0,0-56.49,14.08,112.09,112.09,0,0,0-13.48,6.23,65.27,65.27,0,0,0-12.51,8.72,38.26,38.26,0,0,0-9.46,12.73,36.85,36.85,0,0,0-3.16,15.67,53.78,53.78,0,0,0,2.61,15.27,87.6,87.6,0,0,0,5.8,13.92,126.19,126.19,0,0,0,7.65,12.73c2.79,4.07,5.65,8,8.76,11.82a105.24,105.24,0,0,0,14.46,14.8L229.9,380c-.06,1.93-.11,3.86-.17,5.8a84.52,84.52,0,0,1-7.83-6.47A134.83,134.83,0,0,1,203.74,358c-2.74-3.86-5.27-7.77-7.67-11.78a117.6,117.6,0,0,1-6.29-12.42c-1-2.1-1.69-4.29-2.51-6.43s-1.42-4.36-1.9-6.58a56,56,0,0,1-1.76-13.37,43.27,43.27,0,0,1,7.29-25c5-7.32,12.11-13.16,20-17.79S227.67,256.51,236.56,253.31Zm18.86-39.79c9.93,3.82,20,7.08,29.8,10.57a46.91,46.91,0,0,1,6.24,2.54,15.76,15.76,0,0,1,4.63,3.29,3.72,3.72,0,0,1,.24.35,3.46,3.46,0,0,1-.66.59,18.41,18.41,0,0,1-5.41,2.32,52.69,52.69,0,0,1-6.57,1.35c-2.23.32-4.78.63-7.14,1q-7.23,1.11-14.38,2.65c-2,.44-4,.91-6,1.4Q255.75,226.56,255.42,213.52ZM237.93,380.23l.7-24.52a21.21,21.21,0,0,1,.91-5.18c.52-1.82,1.21-3.76,1.82-5.92a30.13,30.13,0,0,0,1.12-6.9l.18-6.23L244,282.23c.13-5.33.24-10.67.36-16q3.12-1.1,6.29-2.08.69,31.11,1.57,62.2l.17,6.14c.08,2.07,0,4,.22,6.36a26.61,26.61,0,0,0,.51,3.5c.23,1.11.53,2.24.85,3.27.62,2.08,1.3,4,1.75,5.75a21.9,21.9,0,0,1,.52,2.61,25.76,25.76,0,0,1,.19,2.67l.18,6.15.34,12.3c.53,16.41.75,32.78.94,49.17q.18,16.68,0,33.34c-.72-.11-1.44-.21-2.15-.33-1.46-.13-3.09-.21-4.42-.23h-7.8c-1.33,0-3,.11-4.42.24l-2.07.31C236.77,431.83,237.17,406,237.93,380.23Zm-2.76-49-.24,6.07a21.84,21.84,0,0,1-.92,5.22c-.51,1.79-1.22,3.71-1.86,5.83a29.53,29.53,0,0,0-1.28,6.91l-.43,11.18a110.16,110.16,0,0,1-8.81-10,149.16,149.16,0,0,1-15.29-23.42c-4.17-8.17-7.38-16.95-7.52-25.63a29.13,29.13,0,0,1,2.3-12.36,30.57,30.57,0,0,1,7.48-10.29,57.61,57.61,0,0,1,11-7.83,116,116,0,0,1,12.54-6c1.8-.76,3.61-1.47,5.42-2.17q-.22,6.64-.46,13.28Zm22-62.05c1.81.69,3.62,1.4,5.41,2.13a108.31,108.31,0,0,1,12.5,6,56.93,56.93,0,0,1,10.88,7.78,30.39,30.39,0,0,1,7.45,10.1,28.76,28.76,0,0,1,2.37,12.22,46.94,46.94,0,0,1-2.23,12.94A79.27,79.27,0,0,1,288.34,333a149,149,0,0,1-15.23,23.42,109.4,109.4,0,0,1-8.91,10l-.15-3.92-.24-6.15a34.66,34.66,0,0,0-.3-3.47,30.08,30.08,0,0,0-.72-3.42c-1.23-4.4-2.79-7.86-3-11.27-.15-1.72-.16-3.92-.26-6l-.24-6.17Q258.12,297.65,257.13,269.19Zm22.17,92.17c3.11-3.85,6-7.74,8.78-11.81a128.39,128.39,0,0,0,7.67-12.74,87.09,87.09,0,0,0,5.9-13.91,53.12,53.12,0,0,0,2.65-15.33,37.21,37.21,0,0,0-3.1-15.82,38.25,38.25,0,0,0-9.49-12.91,65.61,65.61,0,0,0-12.6-8.78,116.76,116.76,0,0,0-13.51-6.27c-2-.79-4-1.51-6.07-2.24q6.23-1.68,12.56-3A112.58,112.58,0,0,1,284,264.5c7.94,4.63,15.13,10.5,20,17.88a43.81,43.81,0,0,1,7.21,25.06,56.48,56.48,0,0,1-1.77,13.37c-.48,2.22-1.24,4.39-1.9,6.58-.83,2.15-1.54,4.33-2.52,6.43a117.68,117.68,0,0,1-6.3,12.42c-2.4,4-4.94,7.92-7.68,11.78a135.27,135.27,0,0,1-18.17,21.27,86.14,86.14,0,0,1-8,6.57c-.11-3.15-.2-6.3-.32-9.44A106.26,106.26,0,0,0,279.3,361.36Zm-45.52,107,1.54-.56,1.59-.4a27,27,0,0,1,3.23-.58c.54-.07,1.09-.06,1.64-.09s1-.08,1.73-.06h7.8c.7,0,1.16,0,1.73.06s1.1,0,1.64.09a26.8,26.8,0,0,1,3.22.58l1.59.4,1.54.56a25.93,25.93,0,0,1,10.59,7.57,25.54,25.54,0,0,1,5.53,11.83l.28,1.63.1,1.66c.11,1,.07,2.46.11,3.72l.13,7.8q.44,28.7,1.66,57.39c-14.55.92-29.2,1-43.81.7-6.76-.12-13.51-.47-20.24-.85q1.2-28.62,1.65-57.24l.14-7.8c0-1.26,0-2.7.11-3.72l.1-1.66.28-1.64a25.63,25.63,0,0,1,5.53-11.83A26.16,26.16,0,0,1,233.78,468.36ZM319.49,559v.16C319.49,559,319.49,558.92,319.49,559Zm.36,24.29v0Zm4.91-21.35h0S325,561.76,324.76,561.89ZM481.52,263.17c-.07,1.87,0,3.75-.18,5.62l-.48,5.6-.47,5.61c-.08.93-.13,1.87-.25,2.8l-.4,2.78-1.6,11.14-2.26,11-.56,2.76-.72,2.72-1.45,5.43-1.44,5.44L470,329.44l-1.76,5.35-.88,2.67-1,2.62-4.14,10.47-4.74,10.22-1.19,2.55-1.33,2.48-2.66,5a244.84,244.84,0,0,1-25.09,37.38,251.1,251.1,0,0,1-31.63,32.1l-8.8,7.14c-3.17,2.43-6.21,5-9.16,7.71a140.63,140.63,0,0,0-16.19,17.61,133.27,133.27,0,0,0-21.85,42.23,145,145,0,0,1-17.93,37.72,6.23,6.23,0,0,0-1.75.67l-.28.15-.1,0-.22.1-.87.44c-.75.26-1.42.56-2.24.81s-1.6.5-2.46.71a106.39,106.39,0,0,1-10.66,2c-6,.85-12.11,1.47-18.25,2q1.18-28.51,1.65-57l.14-7.8c0-1.33.07-2.5,0-4.07l-.11-2.24-.31-2.22a34.14,34.14,0,0,0-13.72-22.45,40.72,40.72,0,0,0-3.79-2.44l-2.53-1.22q.13-18-.12-36-.24-14.85-.73-29.71l.87-.53a89.84,89.84,0,0,0,11.81-9.23,142.41,142.41,0,0,0,19.26-22.35c2.83-4,5.54-8.09,8.08-12.3A122.83,122.83,0,0,0,312,336.82c1.06-2.25,1.86-4.63,2.76-7,.74-2.4,1.57-4.76,2.12-7.23a64,64,0,0,0,2-15.1,50.53,50.53,0,0,0-8.59-29.38c-5.83-8.62-14-15.09-22.62-20-1.05-.6-2.12-1.17-3.19-1.73l2.26-.35a61.24,61.24,0,0,0,14.54-3.92c4.67-2,9.34-4.91,12.58-9.42a20.82,20.82,0,0,0,3.34-7.51,21.64,21.64,0,0,0,.24-8.14,21.16,21.16,0,0,0-2.82-7.64,26.49,26.49,0,0,0-5.17-6,44.38,44.38,0,0,0-13.13-7.61c-2.35-.93-4.61-1.66-6.89-2.45l-6.83-2.34c-3.75-1.27-7.48-2.54-11.19-3.84a95.25,95.25,0,0,0,15.31-13,70.64,70.64,0,0,0,15.64-25.35A59.8,59.8,0,0,0,304.79,129a51.31,51.31,0,0,0-4.8-14.35c-.59-1.12-1.25-2.21-1.88-3.32s-1.43-2.1-2.15-3.15a10.09,10.09,0,0,0-16.57,11.51l1,1.5A26.62,26.62,0,0,1,282.1,124a32.82,32.82,0,0,1,2.31,6.21,39.35,39.35,0,0,1-3.06,26.37c-4,8.25-10.39,15.23-17.75,20.88a92.68,92.68,0,0,1-9,5.94q-.6-27.08-.92-54.16l-.05-12.3v-3.08a8.24,8.24,0,0,0-.21-2.12,6.19,6.19,0,0,0-1.08-2.2,6.28,6.28,0,0,0-11.2,3,17,17,0,0,0-.07,1.84v1.54l-.06,6.15-.14,12.31q-.3,24.45-.86,48.9a90,90,0,0,1-8.8-5.83c-7.36-5.66-13.74-12.67-17.65-20.91a39.34,39.34,0,0,1-3-26.28,32.35,32.35,0,0,1,2.3-6.19,29.06,29.06,0,0,1,1.68-2.79l1-1.5a10.27,10.27,0,0,0-16.86-11.72c-.72,1.06-1.47,2.1-2.17,3.17s-1.29,2.2-1.88,3.33A51.3,51.3,0,0,0,189.83,129a59.86,59.86,0,0,0,2.42,29.86,70.77,70.77,0,0,0,15.67,25.42,95.28,95.28,0,0,0,15.2,12.91c-3.64,1.24-7.29,2.45-11,3.67l-6.85,2.3c-2.28.77-4.55,1.49-6.9,2.42a44.55,44.55,0,0,0-13.21,7.64,27.63,27.63,0,0,0-5.23,6.08,21.36,21.36,0,0,0-2.91,7.73,21.87,21.87,0,0,0,.2,8.26,21,21,0,0,0,3.35,7.66c3.26,4.63,8,7.55,12.74,9.61a61.83,61.83,0,0,0,14.64,4l1.26.2c-.74.4-1.49.8-2.23,1.23-8.62,5-16.84,11.46-22.64,20.14a51.11,51.11,0,0,0-8.49,29.46,63.46,63.46,0,0,0,2.05,15.1c.55,2.47,1.37,4.84,2.12,7.24.9,2.33,1.7,4.71,2.76,7a123.58,123.58,0,0,0,6.76,13.22c2.55,4.21,5.26,8.34,8.1,12.3A142.47,142.47,0,0,0,217,384.68a90,90,0,0,0,11.82,9.21l.7.43c-.62,21.93-.95,43.88-.79,65.85-.82.38-1.63.8-2.45,1.18a37.7,37.7,0,0,0-3.79,2.45,34.41,34.41,0,0,0-6.52,6.18,34.83,34.83,0,0,0-7.2,16.26l-.31,2.22-.11,2.24c-.08,1.57,0,2.74,0,4.07l.14,7.8q.42,28.45,1.63,56.9c-6.46-.46-12.9-1.11-19.2-2a99.47,99.47,0,0,1-10.58-2.12,26.35,26.35,0,0,1-4.44-1.57l-2.07-1a5.59,5.59,0,0,0-1-.23,120.56,120.56,0,0,1-9.39-16.7,177.6,177.6,0,0,1-8.11-21,132.78,132.78,0,0,0-21.88-42.22A140.56,140.56,0,0,0,117.2,455c-3-2.68-6-5.27-9.17-7.7l-8.79-7.13a249.88,249.88,0,0,1-31.62-32.12A244.32,244.32,0,0,1,42.55,370.7l-2.66-5-1.33-2.48-1.19-2.55-4.73-10.22L28.5,340c-.34-.88-.71-1.74-1-2.62l-.88-2.68-1.77-5.34c-.58-1.79-1.19-3.56-1.74-5.35l-1.45-5.44-1.45-5.44c-.24-.91-.5-1.81-.71-2.72l-.56-2.76-2.26-11-1.6-11.14-.4-2.78c-.11-.93-.16-1.87-.25-2.8l-.47-5.61-.47-5.6c-.13-1.87-.11-3.75-.18-5.62,0-3.75-.26-7.5-.2-11.25l.35-11.24a246.29,246.29,0,0,1,21.22-86.76A239.41,239.41,0,0,1,85.79,80.78a233.34,233.34,0,0,1,74.39-48.91,231,231,0,0,1,174.52,0,233.39,233.39,0,0,1,74.38,48.94,239.57,239.57,0,0,1,51.11,73.07,246.79,246.79,0,0,1,21.19,86.77l.34,11.24C481.78,255.67,481.58,259.42,481.52,263.17Z"/>
        <path class="cls-1" d="M403.4,98.63a214.82,214.82,0,0,0-312,0A220.74,220.74,0,0,0,30.48,256.15L31,245.41c.29-3.57.68-7.13,1-10.7s1-7.09,1.46-10.63,1.31-7,1.95-10.54A225.53,225.53,0,0,1,95.08,102.19a216,216,0,0,1,69.78-47.47A212.52,212.52,0,0,1,367.15,75,224.61,224.61,0,0,1,459.4,213.54c.64,3.51,1.43,7,2,10.54s1.06,7.08,1.46,10.63.73,7.13,1,10.7l.52,10.74A220.69,220.69,0,0,0,403.4,98.63Z"/>
      </g>
    </g>
  </g>
</svg>
