<svg xmlns="http://www.w3.org/2000/svg" viewBox="0 0 427.29 720">
  <defs>
    <style>
      .cls-1 {
        fill: #494546;
      }
    </style>
  </defs>
  <title>Asset 5</title>
  <g id="Layer_2" data-name="Layer 2">
    <g id="Layer_1-2" data-name="Layer 1">
      <g>
        <path class="cls-1" d="M426.56,180.74a201,201,0,0,0-8.21-43.21A173.77,173.77,0,0,0,400,97.32a187,187,0,0,0-27.6-34.47,232.71,232.71,0,0,0-34.63-27l-9.48-5.5-4.74-2.74c-1.61-.86-3.28-1.62-4.91-2.43l-9.86-4.79c-3.35-1.45-6.77-2.76-10.15-4.13l-5.08-2c-1.71-.65-3.47-1.15-5.2-1.73L278,9.11c-3.52-1-7.08-1.78-10.62-2.67L262,5.13c-1.79-.38-3.6-.65-5.39-1L245.83,2.28c-3.63-.43-7.27-.77-10.9-1.15L229.49.57,224,.37,213.07,0,202.13.41l-5.47.22-5.45.58c-3.63.4-7.26.75-10.88,1.19L169.55,4.31c-1.79.34-3.6.6-5.38,1l-5.31,1.32c-3.54.9-7.09,1.73-10.61,2.7l-10.4,3.39c-1.73.59-3.49,1.09-5.19,1.74l-5.07,2.06c-3.37,1.39-6.78,2.7-10.12,4.16l-9.82,4.82c-1.63.82-3.29,1.58-4.89,2.44L98,30.69l-9.44,5.53A232.51,232.51,0,0,0,54.14,63.3,186.06,186.06,0,0,0,26.77,97.73,172.89,172.89,0,0,0,8.68,137.81a200.29,200.29,0,0,0-8,43,243.8,243.8,0,0,0,.7,43.49A310.93,310.93,0,0,0,22.51,308c2.75,6.66,5.62,13.27,8.86,19.73a206.26,206.26,0,0,0,10.57,19l5.67,9c1.85,2.95,3.79,5.86,5.5,8.9l5.27,9,4.95,9.21A308.59,308.59,0,0,1,80.2,421c2.4,6.52,4.38,13.17,6.22,19.85a194.23,194.23,0,0,1,4.15,20.27c.49,3.4.88,6.81,1.08,10.19l.22,5.27c.09,1.86.25,3.74.5,5.62a74.81,74.81,0,0,0,6.68,21.43,92.63,92.63,0,0,0,12,18.54,101.71,101.71,0,0,0,7.43,8.1c.68.66,1.35,1.31,2,2A17.18,17.18,0,0,0,118,535a17.8,17.8,0,0,0-2.88,6,18.08,18.08,0,0,0-.56,3.26l-.05,1.64,0,1.15.23,9.19c.42,12.26.68,24.51,1.26,36.76v.2a3.89,3.89,0,0,0,.85,2.24l15.76,19.47-.36,46.7-14.83,1.5v6.55l14.76,1.49,0,4a22.05,22.05,0,0,0,7.1,16.31,23.09,23.09,0,0,0,2.89,2.22c1,2.35,2,4.69,3.07,7,.7,1.55,1.42,3.08,2.16,4.61l1.1,2.3.56,1.14.28.57.39.73a19,19,0,0,0,10.63,8.85,18.72,18.72,0,0,0,3.46.82c.59.06,1.18.14,1.77.15l.88,0h5.72l40.66.08c13.55,0,27.1-.12,40.66-.18l5.08,0h.64l.87,0a17.43,17.43,0,0,0,1.76-.16A19.36,19.36,0,0,0,275.89,710l4.77-9.19,3.35-6.57a22.05,22.05,0,0,0,5.55-5.13,22.8,22.8,0,0,0,4.05-8.5,21.68,21.68,0,0,0,.62-4.67c0-.86,0-1.38,0-2l0-1.83v-.71l14.49-1.77V663.1l-14.57-1.78,0-3.84-.27-14.64q-.24-14-.79-28l15.73-19.42a3.83,3.83,0,0,0,.86-2.33V593l.42-9.19.31-9.19.62-18.38.23-9.19c0-.42,0-.7,0-1.22s0-1.11-.07-1.66-.13-1.1-.22-1.65l-.38-1.63a18.07,18.07,0,0,0-3-6c-.19-.24-.39-.47-.59-.7.78-.73,1.57-1.44,2.32-2.18a104.7,104.7,0,0,0,7.58-8.32,95.05,95.05,0,0,0,12.28-19.06A77.05,77.05,0,0,0,336,482.49c.25-2,.41-3.89.5-5.81l.2-5.25c.18-3.3.55-6.66,1-10a191.77,191.77,0,0,1,4-20.05c1.79-6.62,3.73-13.22,6.09-19.7a306.35,306.35,0,0,1,16.63-38l4.88-9.18,5.22-9c1.69-3,3.61-5.94,5.44-8.89l5.64-9a207.58,207.58,0,0,0,10.57-19.23c3.24-6.51,6.11-13.16,8.85-19.87A312.78,312.78,0,0,0,426,224.45,245.34,245.34,0,0,0,426.56,180.74Zm-159.84,524a8.55,8.55,0,0,1-4.83,3.75,7.81,7.81,0,0,1-1.51.32c-.26,0-.51.06-.77.06h-1l-5.08,0c-13.56-.06-27.11-.2-40.66-.18l-40.66.08h-6.12c-.25,0-.5-.05-.76-.06a11,11,0,0,1-1.49-.32,8.89,8.89,0,0,1-4.81-3.66l-2.48-4.22c-.61-1-1.24-2.07-1.86-3.1l1.11,0,29.29.23,58.6.38h26.78Zm17.73-61.87-.28,14.64-.11,14.65V674c0,.6,0,1.3-.05,1.66a11,11,0,0,1-.38,2.56,12.58,12.58,0,0,1-11.09,9.35l-.65,0-.32,0H243.65l-58.6.38-29.29.23H154c-.46,0-.91,0-1.36-.07a14,14,0,0,1-2.65-.56,13.22,13.22,0,0,1-9.11-12.41l-.47-60.39c4.94-.59,10-1.11,15-1.47,6.29-.55,12.62-.92,18.94-1.19q19-.79,38-.67c6.33.11,12.67.14,19,.41,3.16.11,6.34.17,9.5.32l9.51.46c11.64.57,23.27,1.51,34.92,2.39Q284.7,628.93,284.45,642.84Zm2.9-33.24q-8.67-1.35-17.39-2.51l-9.57-1c-3.18-.37-6.38-.68-9.58-.92-12.78-1.18-25.62-1.64-38.47-1.86-12.84,0-25.7.27-38.53,1.3-6.41.53-12.81,1.14-19.2,2-5.53.79-11,1.61-16.53,2.77L126.5,595c5.66-.81,11.47-1.44,17.23-1.89,3.81-.37,7.66-.59,11.48-.89l11.53-.59c15.37-.69,30.79-.83,46.21-.53,15.42,0,30.84.88,46.26,1.61,7.71.42,15.41,1,23.13,1.45l16.5,1.23ZM283,587.18c-7.75-.7-15.49-1.45-23.24-2.08l-11.64-.78c-3.88-.26-7.77-.48-11.66-.61l-11.66-.49c-3.89-.14-7.79-.18-11.68-.28-15.58-.14-31.17,0-46.75,1l-11.67.92c-3.89.41-7.78.73-11.66,1.23l-5.82.77-5.81.89c-2.5.43-5,.86-7.45,1.37.46-11,.72-21.95,1.1-32.93l.23-9.19,0-1.15c0-.22,0-.43.06-.65a9.05,9.05,0,0,1,.29-1.25,6.89,6.89,0,0,1,1.22-2.2,6.75,6.75,0,0,1,4.23-2.37c.49-.08,2.47-.12,3.89-.18l4.57-.14q36.57-1,73.21-.89c12.21.07,24.42.09,36.62.36s24.42.45,36.63.78l4.58.11,2.29.06.57,0,.45,0c.2,0,.41,0,.61.05a6.55,6.55,0,0,1,4.2,2.29,6.67,6.67,0,0,1,1.25,2.16q.07.3.18.6l.12.62.06.64c0,.24,0,.72,0,1.08l.23,9.19.62,18.38.31,9.19.26,5.69C295.48,588.67,289.22,587.94,283,587.18ZM411.29,223A298,298,0,0,1,391.7,303.2c-2.58,6.4-5.29,12.76-8.32,18.92a190.61,190.61,0,0,1-9.79,18l-5.59,9c-1.88,3.07-3.85,6.08-5.59,9.24L357,367.73l-5,9.59a318.83,318.83,0,0,0-17,39.88c-2.41,6.84-4.41,13.85-6.24,20.89a210.11,210.11,0,0,0-4.12,21.58c-.47,3.66-.84,7.34-1,11.11l-.15,5.34q-.09,2.44-.36,4.77a32.64,32.64,0,0,1-.84,4.61,44,44,0,0,1-1.19,4.65,68.25,68.25,0,0,1-3.44,9,82.73,82.73,0,0,1-10.43,16.67,91.4,91.4,0,0,1-6.6,7.46c-1.16,1.18-2.36,2.33-3.57,3.45L295.7,528l-1-.13c-.31,0-.52-.05-.69-.06l-.58,0-2.3-.15-4.6-.28c-12.28-.77-24.57-1.22-36.86-1.64-4.22-.11-8.45-.19-12.68-.27l-3-77.25-3,77.13q-9.09-.15-18.17-.15c-3.24,0-6.48,0-9.72.06l-3-77-3,77.08c-19.34.22-38.69.83-58,2l-4.61.29-2.3.16a25.07,25.07,0,0,0-3,.33,15.18,15.18,0,0,0-1.77.42c-1.22-1.12-2.42-2.28-3.55-3.46a90.84,90.84,0,0,1-6.74-7.67,84.43,84.43,0,0,1-10.66-17.19,67,67,0,0,1-5.6-19c-.19-1.63-.3-3.28-.36-4.95l-.13-5.33c-.16-3.69-.5-7.32-1-10.93a203.82,203.82,0,0,0-4-21.35c-1.79-7-3.74-13.95-6.1-20.74a318.45,318.45,0,0,0-16.75-39.7l-5-9.56-5.31-9.35c-1.72-3.15-3.67-6.15-5.54-9.21l-5.56-9a196.69,196.69,0,0,1-9.8-18.18c-3-6.22-5.72-12.62-8.3-19.07a299.35,299.35,0,0,1-19.39-80.63c-2.5-27.48-.54-55.38,7.58-81.44a159.71,159.71,0,0,1,17-37,172.9,172.9,0,0,1,25.5-31.67A218.87,218.87,0,0,1,96,48l8.91-5.13,4.46-2.57c1.51-.8,3.08-1.5,4.61-2.26l9.25-4.47c3.15-1.35,6.36-2.56,9.54-3.84l4.77-1.91c1.6-.6,3.25-1.06,4.88-1.6l9.79-3.12c3.3-.89,6.65-1.64,10-2.47l5-1.22c1.67-.35,3.37-.59,5.06-.89l10.12-1.74c3.4-.39,6.81-.69,10.22-1l5.1-.52,5.14-.17,10.26-.32,10.26.36,5.13.19,5.11.53,10.2,1.09,10.11,1.77c1.69.31,3.38.55,5.05.91l5,1.24c3.31.84,6.65,1.6,9.95,2.5l9.76,3.16c1.62.54,3.28,1,4.87,1.61L293.26,30c3.16,1.3,6.36,2.52,9.5,3.87l9.22,4.5c1.53.77,3.09,1.47,4.6,2.28L321,43.24l8.87,5.15A218.54,218.54,0,0,1,362,73.51a172,172,0,0,1,25.28,31.63A158.91,158.91,0,0,1,404.06,142C412,167.92,413.88,195.68,411.29,223Z"/>
        <path class="cls-1" d="M196.77,27l-8.52.79-8.44,1.37c-5.66.75-11.17,2.28-16.73,3.58a84.52,84.52,0,0,0-8.22,2.35l-8.17,2.57c-2.69,1-5.32,2.07-8,3.09l-4,1.57A39.24,39.24,0,0,0,130.78,44l-7.73,3.71-3.85,1.87-3.72,2.12L108.05,56l-1.86,1.07-1.78,1.19-3.56,2.39a181.07,181.07,0,0,0-26.7,21.57l-5.94,6.24-1.47,1.56-1.37,1.67-2.73,3.33-2.72,3.34c-.93,1.1-1.68,2.33-2.53,3.49-1.64,2.36-3.34,4.68-4.91,7.08a161.36,161.36,0,0,0-15.19,30.86L34.55,148l-2.21,8.31c-.39,1.38-.7,2.78-1,4.18l-.84,4.21c-.27,1.41-.59,2.8-.82,4.21l-.6,4.25a185,185,0,0,0-1.8,34.14A250.84,250.84,0,0,0,39.1,274.15a286.86,286.86,0,0,0,12.18,31.64,195.39,195.39,0,0,0,16.4,29.56c-11.4-19.43-19.58-40.53-25.51-62.11a266.6,266.6,0,0,1-7-32.78,247.87,247.87,0,0,1-2.76-33.29A196.75,196.75,0,0,1,34.79,174l.64-4.1c.24-1.36.56-2.71.84-4.06l.88-4.06c.27-1.36.58-2.7,1-4l2.23-8L43.11,142a159.85,159.85,0,0,1,14.74-29.52A164.17,164.17,0,0,1,78.76,86.89c15.69-15.53,34.53-27.83,54.57-37.22s41.87-15.06,63.93-17.58c5.51-.8,11.08-.86,16.63-1.15a83.06,83.06,0,0,1,8.35,0l8.35.16c2.78.18,5.55.47,8.33.7l4.16.36,2.09.19,2.06.33L255.5,34c1.37.24,2.76.4,4.13.7l4.08.92,8.18,1.83c2.72.66,5.37,1.56,8.06,2.33l4,1.2c1.34.41,2.7.76,4,1.3l7.87,3,3.93,1.49c1.3.54,2.55,1.16,3.83,1.73l7.65,3.52,1.92.87,1.86,1,3.71,2,7.42,4C288.62,35,242.22,22.66,196.77,27Z"/>
      </g>
    </g>
  </g>
</svg>
