<svg xmlns="http://www.w3.org/2000/svg" viewBox="0 0 226.84 720">
  <defs>
    <style>
      .cls-1 {
        fill: #494546;
      }
    </style>
  </defs>
  <title>Asset 3</title>
  <g id="Layer_2" data-name="Layer 2">
    <g id="Layer_1-2" data-name="Layer 1">
      <g>
        <path class="cls-1" d="M135.26,701.18a15,15,0,0,1-4.87,1,11.81,11.81,0,0,1-1.32,0l-1.44,0-2.88-.09-11.54-.13-11.54.14-2.88.09-1.44,0a11.81,11.81,0,0,1-1.32,0,15,15,0,0,1-4.87-1,59.4,59.4,0,0,1-10-5,105.17,105.17,0,0,1-9.57-6.3,54.14,54.14,0,0,0,8.18,8.26,47.14,47.14,0,0,0,9.89,6.54,16.37,16.37,0,0,0,6.21,1.79c.63.06,1.07.06,1.55.08l1.43,0,2.87.09,11.46.13,11.46-.13,2.87-.08,1.43,0a15.31,15.31,0,0,0,1.55-.08,16.37,16.37,0,0,0,6.21-1.78,47.54,47.54,0,0,0,9.89-6.54,54.2,54.2,0,0,0,8.18-8.27,107.47,107.47,0,0,1-9.58,6.3A58.5,58.5,0,0,1,135.26,701.18Z"/>
        <path class="cls-1" d="M226.83,483v-.2L225.56,365v-.13a6,6,0,0,0-6.11-6l-14.45.15.44-47.57,1.12-106.36.87-106.37.16-53.18V34c0-.56-.05-1.37-.08-2.05a32.58,32.58,0,0,0-5-16A33.94,33.94,0,0,0,190.37,4.3,34.27,34.27,0,0,0,174.07,0a33.84,33.84,0,0,0-32,23.55,33.49,33.49,0,0,0-1.47,8.35c0,.68-.08,1.49-.08,2.05v5l0,6.65.16,53.18.82,106.37,1.14,106.36.44,48.22-12.57.13c.11-.72.23-1.44.31-2.16l.23-3.8c.09-1.31.09-2.47.09-3.65l0-3.54.21-28.31,2.73-226.51.21-28.31,0-3.54c0-1.17,0-2.32,0-3.73l-.19-4c-.14-1.34-.37-2.68-.55-4l-.31-2-.49-2c-.34-1.3-.62-2.62-1-3.91a59.39,59.39,0,0,0-3-7.5,61.71,61.71,0,0,0-4-7.05c-.77-1.1-1.6-2.17-2.4-3.25-.41-.54-.79-1.1-1.23-1.6l-1.35-1.51a58,58,0,0,0-27-17.12l-3.93-1c-1.31-.3-2.66-.45-4-.67l-2-.31c-.68-.07-1.35-.09-2-.13l-4-.21-4,.21c-.67,0-1.35.06-2,.13l-2,.31c-1.33.22-2.68.37-4,.67l-3.93,1a58.17,58.17,0,0,0-27,17.12L32.42,21c-.44.5-.82,1.06-1.23,1.6-.8,1.08-1.63,2.15-2.39,3.25a60.31,60.31,0,0,0-4,7.05,60.92,60.92,0,0,0-3,7.5c-.4,1.29-.69,2.61-1,3.91l-.49,2-.3,2c-.19,1.33-.42,2.67-.56,4l-.18,4c-.08,1.41-.06,2.56,0,3.73l0,3.54.21,28.31,1.36,113.26,1.36,113.25.21,28.31,0,3.54c0,1.18,0,2.34.1,3.65l.22,3.8c.13,1.1.32,2.19.5,3.28L7,361.14A3.92,3.92,0,0,0,3.09,365V365L0,482.84v.1a5.65,5.65,0,0,0,.47,2.4L30,554.09,23.63,554h-.22a4.43,4.43,0,0,0-4.32,4.54l.32,13.15v-.3c0,.64,0,1.27.06,1.91,0,.32,0,.64.08.89s.1.61.17.91a13.21,13.21,0,0,0,2.33,5.1,14.84,14.84,0,0,0,1.09,1.29l1.77,1.91L32,591.09l7.07,7.64,3.54,3.82.88,1,.43.46.26.3a.71.71,0,0,0,.1.14l-1.93,3c-1,1.56-2,3-3,4.88a11.76,11.76,0,0,0-.77,1.65,6.34,6.34,0,0,0-.46,2.76,5.6,5.6,0,0,0,1.42,3.26,8.69,8.69,0,0,0,1.72,1.48l.55.32-.29.37-1.7,2.26A23.35,23.35,0,0,0,38,627.16l-.25.49-.26.61a6.88,6.88,0,0,0-.26.8,5.14,5.14,0,0,0-.2,1.16,6.06,6.06,0,0,0,.35,2.58,6.93,6.93,0,0,0,1,1.77A10.51,10.51,0,0,0,42,637.44l.63.29c-1,1.68-2,3.4-3.06,5.25a11.74,11.74,0,0,0-1.39,3.58,5.35,5.35,0,0,0-.08.7v.37a5.09,5.09,0,0,0,0,.56,5.23,5.23,0,0,0,.61,1.92,7.15,7.15,0,0,0,1.79,2.06A14.68,14.68,0,0,0,43.6,654l-.17.17a57,57,0,0,0-3.85,4.33,14.46,14.46,0,0,0-1,1.56,6.45,6.45,0,0,0-.93,3.08A5.79,5.79,0,0,0,39,667a9,9,0,0,0,1.84,1.67,20.28,20.28,0,0,0,4.76,2.24v1.19a9.84,9.84,0,0,0,.29,2,10.2,10.2,0,0,0,1.75,3.67L49.39,680l6.87,8.53,6.89,8.53,3.46,4.24,1.73,2.13.48.58c.24.26.55.59.71.73.38.38.76.73,1.11,1a92.63,92.63,0,0,0,9,7.09,51.64,51.64,0,0,0,10.41,5.74,21.86,21.86,0,0,0,3.2.93,17.53,17.53,0,0,0,3.6.37h5.45l10.89,0,10.9,0h5.44a17.24,17.24,0,0,0,3.63-.35,21.28,21.28,0,0,0,3.22-.92,49.21,49.21,0,0,0,10.48-5.68,92.69,92.69,0,0,0,9-7.08c.36-.32.73-.67,1.12-1.05.16-.14.47-.47.72-.75s.32-.38.49-.58l1.74-2.12,3.47-4.24,6.86-8.55,6.83-8.57,1.76-2.26a10.38,10.38,0,0,0,1.75-3.71,10.88,10.88,0,0,0,.28-2v-.85l0-.69v-.21a17.38,17.38,0,0,0,5-2.56,6.81,6.81,0,0,0,1.76-2,5.16,5.16,0,0,0,.63-1.86,4.73,4.73,0,0,0,0-1.13,5.62,5.62,0,0,0-.09-.57,2.58,2.58,0,0,0-.12-.42,7.39,7.39,0,0,0-1.11-2.13c-.35-.51-.69-.92-1-1.32-1.11-1.26-2.19-2.41-3.25-3.54.25-.1.49-.19.74-.31a13.16,13.16,0,0,0,3.41-2.12,6.85,6.85,0,0,0,2-2.83,5.62,5.62,0,0,0,.3-2.45c0-.21,0-.41-.08-.61l-.11-.41a5.31,5.31,0,0,0-.23-.73,15.31,15.31,0,0,0-1.78-3.21,64.45,64.45,0,0,0-4-5.13c.42-.19.84-.38,1.27-.6a13.76,13.76,0,0,0,1.55-.91,7.22,7.22,0,0,0,1.85-1.8,4.65,4.65,0,0,0,.82-2.21,4.13,4.13,0,0,0-.12-1.49,5.76,5.76,0,0,0-.2-.62l-.08-.18c-.21-.48-.44-1-.68-1.43a30.58,30.58,0,0,0-3.19-4.78,19.57,19.57,0,0,0,1.81-1,9.71,9.71,0,0,0,1.92-1.74c.18-.24.35-.48.51-.73a10.12,10.12,0,0,0,.47-.93,7.39,7.39,0,0,0,.34-1.16,7.07,7.07,0,0,0,.09-1.25,8.37,8.37,0,0,0-.61-2.73,15.62,15.62,0,0,0-.75-1.62,46.77,46.77,0,0,0-3.15-4.91c-.72-1-1.48-2-2.26-2.9l1.49-1.7,3.42-3.87L201,582.92l1.7-1.94a13.08,13.08,0,0,0,1-1.25,12.82,12.82,0,0,0,.92-1.5,12.13,12.13,0,0,0,1.16-3.32l.12-.75c.05-.29.08-.59.11-.89a11.06,11.06,0,0,0,0-1.82V558.57a3.29,3.29,0,0,0-3.26-3.28h0l-6.82,0,30.38-69.76A6.06,6.06,0,0,0,226.83,483ZM152.9,311.5,154,205.14l.82-106.37L155,45.59l0-6.65V34c0-.56,0-.85.06-1.28A19.66,19.66,0,0,1,156,28a19.45,19.45,0,0,1,9-10.86,19.83,19.83,0,0,1,9.14-2.37,19.55,19.55,0,0,1,9.16,2.35,19.47,19.47,0,0,1,9,10.87,19.83,19.83,0,0,1,.85,4.71c0,.43.06.72.06,1.28V45.59l.16,53.18.87,106.37L195.3,311.5l.44,47.67-43.28.45ZM30.17,350.24l0-3.54.21-28.31,1.36-113.25L33.13,91.88l.21-28.31,0-3.54c0-1.18,0-2.4.09-3.34l.18-3c.12-1,.32-2,.47-3l.24-1.5.4-1.46c.28-1,.49-2,.8-2.92a45.34,45.34,0,0,1,2.31-5.59,46.37,46.37,0,0,1,3-5.27c.58-.83,1.22-1.62,1.81-2.43.31-.4.59-.83.93-1.2l1-1.12a41.55,41.55,0,0,1,9.24-7.79,42.07,42.07,0,0,1,11-4.93l2.93-.75c1-.22,2-.3,3-.47l1.5-.24c.5-.05,1-.05,1.5-.08l3-.15,3,.15c.5,0,1,0,1.51.08l1.49.24c1,.17,2,.25,3,.47l2.92.75a43.52,43.52,0,0,1,20.24,12.72l1,1.11c.33.38.61.81.92,1.21.6.81,1.23,1.6,1.82,2.43a48,48,0,0,1,3,5.27,46.89,46.89,0,0,1,2.3,5.59c.31,1,.53,1.95.8,2.92l.4,1.46.24,1.5c.15,1,.35,2,.47,3l.18,3c.09.94.09,2.16.09,3.34l0,3.54.21,28.31,1.36,113.26,1.37,113.25.21,28.31,0,3.54c0,1.19,0,2.38,0,3.43l-.14,3.27c-.1,1-.28,2-.42,3l-12.13.13c0-.16,0-.32,0-.47l0-.9v-2.28L110.25,308l-.83-96.75-.75-96.74c-.16-16.12-.13-32.25-.19-48.37a49.25,49.25,0,0,0-.32-6.48,31.86,31.86,0,0,0-1.52-6.54,32.94,32.94,0,0,0-6.7-11.44,30.78,30.78,0,0,0-46.26.08A33,33,0,0,0,47,53.19a31.75,31.75,0,0,0-1.51,6.53,48.87,48.87,0,0,0-.32,6.46l-.12,48.37q0,24.18-.27,48.37l-.37,48.37L43.55,308l-.44,48.37c0,1,0,1.89,0,3.17,0,.39,0,.79,0,1.18l-12.26.13-.11-.71c-.14-1.08-.33-2.16-.45-3.24l-.14-3.27C30.14,352.62,30.16,351.43,30.17,350.24ZM64.41,46a19.71,19.71,0,0,0-7.07,1.37c.31-.39.61-.79.93-1.16a24.52,24.52,0,0,1,36.92.08,26.24,26.24,0,0,1,5.28,9.11,25.35,25.35,0,0,1,1.17,5.19,42.76,42.76,0,0,1,.23,5.59c-.07,16.12,0,32.25-.19,48.37l-.75,96.74L100.09,308l-.41,48.37,0,1.51v.74l0,.61c0,.3,0,.6,0,.9l-13.6.14,0-2.1L84.82,222l-.65-90.83L84,85.72l0-11.35,0-5.68V65.85a23.53,23.53,0,0,0-.26-3.36,19.39,19.39,0,0,0-6.61-11.82A19.7,19.7,0,0,0,64.41,46ZM76.93,65.85l0,8.52,0,11.35-.14,45.42L76.08,222l-.74,90.83L75,358.21l0,2.22-21.17.22c0-.38,0-.77-.07-1.15v-1.29l-.39-45.41L52.55,222c-.18-30.28-.51-60.56-.57-90.83l-.11-45.42,0-17V65.85a15,15,0,0,1,.17-2.3,12.29,12.29,0,0,1,4.23-7.62,12.54,12.54,0,0,1,16.35,0,12.4,12.4,0,0,1,4.2,7.59A14.79,14.79,0,0,1,76.93,65.85ZM45,647.64v0h0Zm.24-.68a8.94,8.94,0,0,1,.4-.84c1-2,2.26-4.11,3.47-6.24a148.16,148.16,0,0,0,20.8,3.35A424.38,424.38,0,0,0,113.33,645a420.68,420.68,0,0,0,43.4-2.44,155.85,155.85,0,0,0,18.7-3.19c1.46,2.58,3.08,5,4.48,7.31l.09.17-.11.05a22.33,22.33,0,0,1-2.14.83,74.53,74.53,0,0,1-10.12,2.37c-3.51.62-7.08,1.11-10.67,1.52a410.6,410.6,0,0,1-43.59,2.28A406.37,406.37,0,0,1,69.74,652c-3.61-.37-7.19-.8-10.73-1.36a80.69,80.69,0,0,1-10.27-2.21A17.62,17.62,0,0,1,45.2,647Zm0-31.29.12-.24c.71-1.37,1.7-2.95,2.63-4.48l1.74-2.85a409.38,409.38,0,0,0,126.74-.21c1.18,2.64,2.54,5.19,3.61,7.44a22.41,22.41,0,0,1-3,1.14,81.15,81.15,0,0,1-10.08,2.28q-5.24.88-10.59,1.48a416,416,0,0,1-43.17,2.24,409.42,409.42,0,0,1-43.22-1.79c-7.09-.76-14.33-1.61-20.85-3.45A19,19,0,0,1,45.25,615.67ZM174,672.4a3.33,3.33,0,0,1-.65,1.16l-1.72,2-7.14,8.3-7.12,8.33-3.52,4.2-1.75,2.1c-.13.14-.34.42-.4.46l-.24.23c-.27.25-.56.52-.89.81a85.53,85.53,0,0,1-8.26,6.33,46.68,46.68,0,0,1-8.71,4.77,13.72,13.72,0,0,1-2,.59,3.18,3.18,0,0,1-.89.15l-.4,0a2.94,2.94,0,0,1-.52,0h-5.51l-11,0-11,0h-5.5a3.35,3.35,0,0,1-.52,0l-.41,0a3.6,3.6,0,0,1-.9-.14,13.6,13.6,0,0,1-2.06-.59A44.25,44.25,0,0,1,84,706.46a83.31,83.31,0,0,1-8.3-6.33c-.33-.29-.62-.56-.9-.82l-.25-.23c-.07-.06-.28-.32-.41-.47l-5.28-6.29L61.78,684l-7.1-8.34-1.7-2a3.77,3.77,0,0,1-.5-.9c1.88.41,3.75.75,5.62,1.07,3.71.6,7.4,1.11,11.09,1.49a414.82,414.82,0,0,0,44.24,2.08,417.29,417.29,0,0,0,44.22-2.4q5.52-.63,11.06-1.61c1.76-.32,3.52-.67,5.29-1.07C174,672.33,174,672.37,174,672.4Zm3.74-8.27a79.74,79.74,0,0,1-10.21,2.24c-3.52.57-7.09,1-10.67,1.39a407.51,407.51,0,0,1-43.41,2,414.79,414.79,0,0,1-43.38-2.18,126.27,126.27,0,0,1-20.83-3.75,22.65,22.65,0,0,1-3-1.16C47,661.5,48,660.22,49,659c.67-.84,1.3-1.73,1.94-2.6,2.29.57,4.57,1,6.85,1.46,3.71.66,7.42,1.23,11.12,1.65a414.33,414.33,0,0,0,44.47,2.46,407.35,407.35,0,0,0,44.52-2.11c3.72-.41,7.43-.9,11.17-1.54,2.17-.38,4.35-.8,6.55-1.32,1.79,1.95,3.59,3.87,5.12,5.68.07.08.11.15.17.23A19.35,19.35,0,0,1,177.72,664.13Zm-1.16-32.21a132.62,132.62,0,0,1-20.62,3.38A411.4,411.4,0,0,1,113.33,637a412.37,412.37,0,0,1-42.54-2.36A133.31,133.31,0,0,1,50.36,631a26.79,26.79,0,0,1-3.22-1.12l0-.05,1.58-2,2.16-2.71c2.44.62,4.87,1.12,7.3,1.56,3.68.64,7.35,1.21,11,1.62a417,417,0,0,0,44.06,2.46,409.76,409.76,0,0,0,44.11-2.05c3.69-.39,7.37-.89,11.07-1.49,2.95-.49,5.9-1.07,8.9-1.86a28.88,28.88,0,0,1,3.6,5A27.59,27.59,0,0,1,176.56,631.92Zm5.15-.09h0l.06.13Zm7.54-45.5-6.84,7.75L179,598l-.86,1c-.29.33-.53.58-.94,1.09a11.9,11.9,0,0,0-.87,1.27,404.42,404.42,0,0,1-126,.28,12.39,12.39,0,0,0-.79-1.29c-.18-.24-.36-.48-.56-.71l-.43-.51-.84-1-3.35-4-6.7-8-4.93-5.85.69.26,11,3.52,11.21,3L67,589.47a248.65,248.65,0,0,0,92.35.21l11.35-2.41,11.23-2.92L193,580.86l1.66-.61Zm10.25-24.45v9.46l-8.7,2.73L179.93,577l-11,2.54-11.05,2.05a269.89,269.89,0,0,1-89.49-.15l-11-2.1-11-2.59-10.86-3-7.68-2.45.18-8.25Zm12.58-80.27-24.76,73.58-148.58-1L13.9,481.6l-1.64-62.73L24.1,419l3.06,49.08,3.05-49,52.45.72,3,48.28,3-48.2,52.55.71,3,47.49,3-47.41,52.62.72,2.93,48.79,2.92-48.71,7.12.1Zm.79-72.18L12.09,412.17,11,369l202.32,2.12Z"/>
      </g>
    </g>
  </g>
</svg>
