<svg xmlns="http://www.w3.org/2000/svg" viewBox="0 0 435.47 720">
  <defs>
    <style>
      .cls-1 {
        fill: #494546;
      }
    </style>
  </defs>
  <title>Asset 7</title>
  <g id="Layer_2" data-name="Layer 2">
    <g id="Layer_1-2" data-name="Layer 1">
      <g>
        <path class="cls-1" d="M433.13,184.42a212.24,212.24,0,0,0-11.05-42.59,218.18,218.18,0,0,0-408.7,0,211.55,211.55,0,0,0-11,42.59,215.26,215.26,0,0,0-2,43.93c.3,3.65.52,7.32.89,11l1.47,10.9c.6,3.6,1.26,7.17,1.94,10.75S6.11,268.09,7,271.61a328.57,328.57,0,0,0,12.92,41.54,414.87,414.87,0,0,0,17.72,39.52l2.41,4.77c.81,1.58,1.75,3.28,2.62,4.91q2.73,4.88,5.72,9.45c4,6.12,8,12,12,17.81s7.75,11.7,11.29,17.71,6.69,12.18,9.65,18.47a224.9,224.9,0,0,1,13.55,39.39q1.16,5,1.91,10.13c.25,1.7.48,3.41.67,5.13l.28,2.58.35,2.75.72,5.49c.28,1.82.71,3.64,1.06,5.46l.55,2.73c.19.91.48,1.8.72,2.7.52,1.8,1,3.61,1.56,5.39A72.51,72.51,0,0,0,113,527.79a56.3,56.3,0,0,0,7.23,7.84,13.38,13.38,0,0,0-3.38,2.3,13.62,13.62,0,0,0-4.28,9c-.06,1,0,1.41,0,2v3.47l.11,2.2a21,21,0,0,0,2.76,8.28,23.35,23.35,0,0,0,11.78,9.83,13.88,13.88,0,0,0-1,6.9,14.56,14.56,0,0,0,3.67,8.05,1.53,1.53,0,0,0-.18.18,10.45,10.45,0,0,0-2.07,4,9.49,9.49,0,0,0-.34,2.25c0,.44,0,.62,0,.88l0,5.87v.38l0,.57A10.28,10.28,0,0,0,129,607c-.07.08-.16.15-.23.24a11.59,11.59,0,0,0-2.32,4.47,10.58,10.58,0,0,0-.38,2.51c0,.5,0,.67,0,.92v6.26l0,.63a11.5,11.5,0,0,0,2.64,6.68,11.22,11.22,0,0,0-1.51,3.3,9.91,9.91,0,0,0-.36,2.35c0,.46,0,.64,0,.89l0,3.67v2.59l0,.59a10.93,10.93,0,0,0,7.54,9.74l10.28,16.92c.54.87,1,1.66,1.8,2.82a17.45,17.45,0,0,0,2.61,2.89,18,18,0,0,0,3.54,2.45q12.16,15.86,24.75,31.35l3.18,3.94.79,1c.34.4.73.87,1.13,1.27a18,18,0,0,0,2.61,2.25,18.44,18.44,0,0,0,6.27,2.8,18.06,18.06,0,0,0,3.42.48l.85,0h1.9l20.24,0L238,719.9h1.9l.85,0a18.49,18.49,0,0,0,3.39-.5,18.11,18.11,0,0,0,6.19-2.82,18.35,18.35,0,0,0,2.59-2.23c.39-.4.78-.87,1.11-1.26l.79-1,3.17-4c8-9.88,15.87-19.85,23.79-29.8A18.87,18.87,0,0,0,287,675.1a17.19,17.19,0,0,0,2.78-3c.87-1.23,1.29-2,1.84-2.87,3.34-5.45,6.58-11,9.54-16.67a11.66,11.66,0,0,0,5.59-3.66,11.43,11.43,0,0,0,2.32-4.48,11.28,11.28,0,0,0,.37-2.51c0-.5,0-.67,0-.93v-.73l0-4.4v-1.12l0-.63a11.46,11.46,0,0,0-2.51-6.48,11.05,11.05,0,0,0,1.59-3.47,10.08,10.08,0,0,0,.36-2.38c0-.47,0-.65,0-.9v-6.25l0-.6a10.92,10.92,0,0,0-1.89-5.56,11.26,11.26,0,0,0,2.15-4.27,10.72,10.72,0,0,0,.37-2.51c0-.5,0-.67,0-.92V600l0-2.93,0-1.47V594.5l0-.63a11.48,11.48,0,0,0-3.6-7.65,13.66,13.66,0,0,0,2.2-12.12,25.15,25.15,0,0,0,3.7-1.59,22.77,22.77,0,0,0,12.51-18c.05-.75.1-1.6.12-2.28v-4.32l-.06-1.36a14.84,14.84,0,0,0-7.91-11.82,60.47,60.47,0,0,0,6.2-6.92,72.24,72.24,0,0,0,10.25-20.25c.6-1.78,1-3.59,1.56-5.39.24-.9.53-1.79.72-2.7l.55-2.73c.35-1.82.78-3.64,1.06-5.46l.72-5.49.35-2.75.28-2.58c.19-1.72.42-3.43.67-5.13q.76-5.12,1.91-10.13a224.94,224.94,0,0,1,13.56-39.39c3-6.28,6.09-12.48,9.65-18.47s7.3-11.88,11.29-17.71,8.06-11.69,12-17.81c2-3.05,3.91-6.2,5.72-9.45.87-1.63,1.82-3.33,2.62-4.91l2.42-4.77a414.87,414.87,0,0,0,17.72-39.52,328.57,328.57,0,0,0,12.92-41.54c.89-3.52,1.56-7.1,2.35-10.65s1.33-7.15,1.93-10.75l1.47-10.9c.37-3.64.6-7.31.9-11A215.26,215.26,0,0,0,433.13,184.42ZM295.53,575.57H299l1.17-.05a6.35,6.35,0,0,1,.31,3.05,6.14,6.14,0,0,1-1.78,3.44,5.79,5.79,0,0,1-3.37,1.62l-.48,0h-2.22l-3.25,0-6.52-.06-13-.13-52.12-.32L165.57,583l-13,0h-11.4c-.31,0-.32,0-.5,0a1.9,1.9,0,0,1-.41,0,5.11,5.11,0,0,1-2.89-1.5,5.58,5.58,0,0,1-1.46-3,6.18,6.18,0,0,1,.66-3.93h.15l6.9,0,55.25.4,55.25.45,27.63.15ZM139.26,644H137.8a3.34,3.34,0,0,1-.63,0,2.51,2.51,0,0,1-1-.45,2.48,2.48,0,0,1-1-1.88l0-5.63v-.74c0-.23,0-.54,0-.57a2.52,2.52,0,0,1,.08-.55,2.43,2.43,0,0,1,.52-1,2.58,2.58,0,0,1,2-.92l94,.3,47,.25,17.62.1h1.46a3.83,3.83,0,0,1,.51,0,1.9,1.9,0,0,1,.73.35,1.8,1.8,0,0,1,.73,1.4l0,5.59V641a3.08,3.08,0,0,1,0,.55,1,1,0,0,1-.06.38,1.85,1.85,0,0,1-1.73,1.36l-94,.52-47,.14-11.75,0Zm-3.4-29.39a1.23,1.23,0,0,1,0-.39,1.89,1.89,0,0,1,.35-.71,1.92,1.92,0,0,1,1.4-.68l94-.27,47-.2,11.75-.05,5.87,0h1.46c.35,0,.4,0,.61,0a2.41,2.41,0,0,1,.94.42,2.34,2.34,0,0,1,1,1.79v6.36c0,.24,0,.55,0,.57a1.76,1.76,0,0,1-.09.51,2.39,2.39,0,0,1-.48.92,2.46,2.46,0,0,1-1.84.84l-94-.4-47-.11-17.62,0H137.8a3.3,3.3,0,0,1-.49,0,1.73,1.73,0,0,1-.7-.33,1.78,1.78,0,0,1-.73-1.34l0-5.59v-.73C135.85,614.9,135.85,614.57,135.86,614.59Zm-1.21-20.17a2.31,2.31,0,0,1,.1-.64,2.73,2.73,0,0,1,.6-1.17,3.09,3.09,0,0,1,2.31-1.08l47,.14,47,.35,47,.4,11.75.09,5.87,0,1.46,0a2.54,2.54,0,0,1,.52,0,1.88,1.88,0,0,1,.75.37,1.85,1.85,0,0,1,.73,1.43l0,5.59v.74a3,3,0,0,1,0,.54,1.21,1.21,0,0,1-.06.38,2.17,2.17,0,0,1-.36.69,1.88,1.88,0,0,1-1.38.68l-94,.81-47,.3-11.75,0H137.8a4.21,4.21,0,0,1-.72-.06,3,3,0,0,1-2.41-2.75l0-5.65V595C134.64,594.78,134.64,594.48,134.65,594.42ZM250.71,702.23l-3.22,3.9-.81,1a7.54,7.54,0,0,1-.57.64,9.65,9.65,0,0,1-1.25,1,8.71,8.71,0,0,1-3,1.3,9.74,9.74,0,0,1-1.61.22H238l-20.23,0-20.24,0h-2.31a9.41,9.41,0,0,1-1.58-.23,8.91,8.91,0,0,1-4.13-2.35c-.2-.2-.34-.38-.56-.62l-.8-1-3.21-3.91q-9.48-11.58-19.2-23l3.41,0,48.62.42,48.62.14h3C263.14,687.22,256.89,694.7,250.71,702.23ZM283.33,664a14.09,14.09,0,0,1-2.82,3.67,9,9,0,0,1-3.44,1.91,14.37,14.37,0,0,1-4.64.4h-6.08l-48.62.15-48.62.42-6.08,0a14.86,14.86,0,0,1-4.85-.32,9.79,9.79,0,0,1-3.79-2,14.28,14.28,0,0,1-3-3.82l-7.94-12.14h1.71l11.75,0,47,.14,87,.47Q287,658.46,283.33,664Zm29.41-110.65a11.5,11.5,0,0,1-6.47,9.15,14.8,14.8,0,0,1-4.71,1.58,17.58,17.58,0,0,1-2.58.22h-3.45l-13.81,0-27.63.16-55.25.45-55.25.4-6.9,0a17.67,17.67,0,0,1-5.42-.77,14.51,14.51,0,0,1-8.18-6.26,11.89,11.89,0,0,1-1.61-4.72l-.08-1.25V549c0-.56,0-1.27,0-1.45a4.79,4.79,0,0,1,4.72-4.47l55.25.23,55.25.56c18.41.19,36.83.4,55.25.43l13.81.05,3.45,0h.46a1.75,1.75,0,0,1,.33,0,2.6,2.6,0,0,1,.62.18,3.39,3.39,0,0,1,2.22,2.95c0,.12,0,.18,0,.36v4.32Zm-98.5-442.75a5.73,5.73,0,0,1,0-1.11,3.57,3.57,0,0,1,.29-.89,3.44,3.44,0,0,1,1.23-1.42,3.49,3.49,0,0,1,3.61-.15,3.54,3.54,0,0,1,1.81,3.14l0,5.93,0,3.07q-3.42.11-6.83.32Zm8.3,13,13.25,0c2.21,0,4.43,0,6.62.08L249,124a39.52,39.52,0,0,1,12.37,2.21,19.41,19.41,0,0,1,9.22,7,14,14,0,0,1,2,10.79,11.64,11.64,0,0,1-2.4,4.8,17.29,17.29,0,0,1-4.47,3.68,113.3,113.3,0,0,1-11.68,5.36,153.67,153.67,0,0,1-25.21,7c-1.25.26-2.51.49-3.77.72l0-5.51c2.61-.48,5.21-1,7.81-1.53a124,124,0,0,0,24.17-7.52c1.93-.78,4-1.86,6-2.84a12.55,12.55,0,0,0,3.21-2.5,7,7,0,0,0,1.65-3.59,8.09,8.09,0,0,0,.1-1.2,10.18,10.18,0,0,0-3.7-7.63,18,18,0,0,0-6.41-3.58,38.29,38.29,0,0,0-6.56-1.48c-2.16-.29-4.17-.48-6.25-.73-4.15-.49-8.28-.84-12.41-1.23s-8.27-.74-12.41-1l-12.4-.78-1.68-.1c1-.08,2.08-.17,3.12-.23C213.7,123.89,218.14,123.65,222.54,123.6Zm9.57,8.33c4.1.43,8.21.82,12.28,1.35,2,.25,4.13.47,6.07.76a32,32,0,0,1,5.53,1.28c3.37,1.07,6.18,3.58,6,5.58,0,.12,0,.23,0,.35a2.23,2.23,0,0,1-.06.26c-.07.16,0,0-.2.31a7.51,7.51,0,0,1-1.71,1.25c-1.73.81-3.32,1.68-5.23,2.46-9.43,4.16-19.46,6.6-29.7,8.5v-2.3l.06-20.57ZM219.8,130.6l1.24.13-.19,21-.07,23.73v11.18l-6.05.1q0-8.39,0-16.78c0-13.27-.13-26.55-.26-39.82ZM176,182.36h0c0-.07.08-.31.21-.73.15-.25.27-.43.31-.49a.67.67,0,1,0-.13.1l.48-.39c-.22.16.19-.12.88-.33l.05,0c10.57-2.72,21.5-4.43,32.51-6.25l0,12.52c-2.81,0-5.62,0-8.42,0-5.34-.09-10.67-.31-15.94-.8-1.32-.12-2.63-.25-4-.41s-2.72-.3-3.83-.49-1.2-.28-1.58-.69a2.32,2.32,0,0,1-.54-1.56l0-.42Zm34.31-14.23c-11.32,1.74-22.78,3.36-34.19,6.15l-.31.09-.28.1-.08,0a11.92,11.92,0,0,0-1.26.51,6.66,6.66,0,0,0-1.67,1.12,6.24,6.24,0,0,0-1.18,1.18,10.77,10.77,0,0,0-.68,1l-.12.19,0,.09a2.76,2.76,0,0,0-.31.7c-.08.28-.24.72-.39,1.32a7,7,0,0,0-.2,2,8.81,8.81,0,0,0,2,5.75,7.76,7.76,0,0,0,2.69,2.1,10.58,10.58,0,0,0,2.76.79c1.56.24,2.83.34,4.21.5s2.73.27,4.1.39c5.49.45,11,.62,16.41.66,10.91.05,21.73-.43,32.48-.68a278.54,278.54,0,0,1,32.07.76,35.22,35.22,0,0,1,14.35,4c.52.29,1.08.63,1.5.92s1,.71,1.43,1.08a15.72,15.72,0,0,1,2.39,2.44,12.31,12.31,0,0,1,2.37,6,13.38,13.38,0,0,1-.11,2.86,1.55,1.55,0,0,0,0,.21,14.69,14.69,0,0,1-9.56,11.4,16.48,16.48,0,0,1-3.86.93c-.69.09-1.36.07-2,.1l-2.24,0-9.29-.09c-11.91-.21-23.81.07-35.7.62,0-.16,0-.32,0-.48l-.05-3.73q7.51-.36,15-.58c5.37-.15,10.76-.2,16.13-.2s10.72-.08,16.15,0h.26l.86,0c.17,0,.6-.07.91-.12a13.19,13.19,0,0,0,1.94-.51,11.2,11.2,0,0,0,3.54-2,10,10,0,0,0,2.57-3.39,9,9,0,0,0,.68-2.16,11.33,11.33,0,0,0,.16-2c0-.13,0-.29,0-.43v-.07a7.65,7.65,0,0,0-1-2.72,8.53,8.53,0,0,0-1.83-2,12.93,12.93,0,0,0-1.85-1.33,20.25,20.25,0,0,0-1.84-1,29.82,29.82,0,0,0-7.6-2.24c-.64-.1-1.28-.19-1.92-.25s-1.3-.12-1.87-.16l-3.59-.26c-2.39-.12-4.78-.25-7.2-.31-9.59-.24-19.12,0-28.6.33s-18.91.64-28.27.49c-4.69-.08-9.35-.29-14-.67-2.32-.2-4.6-.45-7-.73l-.83-.1-.64-.13-1.66-.38a17.3,17.3,0,0,1-2.58-1,18.9,18.9,0,0,1-2.17-1.46,13.78,13.78,0,0,1-1.82-1.84,14.35,14.35,0,0,1-2.52-4.62,14.78,14.78,0,0,1-.69-5.27,15.8,15.8,0,0,1,1.19-5.1,15,15,0,0,1,2.85-4.12,13.77,13.77,0,0,1,4.23-2.79c.4-.17.82-.32,1.24-.47l.7-.22.65-.17c.81-.22,1.89-.45,2.87-.69,2-.47,4-.87,6-1.28,8-1.61,16.16-2.83,24.35-4.09l2.1-.33C210.35,164.44,210.35,166.29,210.34,168.13Zm46.27,44.11c-5.42,0-10.83,0-16.25.2q-7.47.21-14.94.57l-.13-9.29,1.24,0c9.47-.3,18.89-.57,28.25-.32,2.31,0,4.66.18,7,.29l3.5.26c.61.05,1.15.08,1.67.14s1.07.13,1.6.22a23.66,23.66,0,0,1,6,1.74q.69.33,1.32.69a9,9,0,0,1,1,.75,3.25,3.25,0,0,1,.57.57,1.21,1.21,0,0,1,.16.36,4.12,4.12,0,0,1-.06.65,2.67,2.67,0,0,1-.21.67,4,4,0,0,1-1,1.32,5,5,0,0,1-1.59.9,6.54,6.54,0,0,1-.94.25l-.57.07-.64,0h.27C267.48,212.17,262,212.25,256.61,212.24Zm-35.86-8.38,0,19q0,12.09,0,24.18l-3.95,0-2,0q0-21.49-.05-43Zm-11.37,43.08-25.47-.31-16.43-.27-4.09-.07a6.62,6.62,0,0,1-.88-.06l-.79-.08a7.63,7.63,0,0,1-1.48-.44,6.26,6.26,0,0,1-3.87-4.2l-.07-.54,0-.14h0c0-.06,0-.24,0-.52a4.32,4.32,0,0,1,1.51-2.3,16,16,0,0,1,3.35-2.14,25.6,25.6,0,0,1,3.93-1.53c1.42-.34,2.82-.73,4.26-1l4.41-.63,4.59-.54,9.17-1c7.38-.73,14.78-1.31,22.18-1.8C209.59,235.24,209.5,241.09,209.38,246.94Zm.4-22.67c-7.6.53-15.19,1.16-22.77,1.94l-9.24,1-4.61.56-4.75.7c-1.59.33-3.16.77-4.74,1.16A29.76,29.76,0,0,0,159,231.5a20.65,20.65,0,0,0-4.41,2.87,9,9,0,0,0-3.11,5.37v.58c0-.12,0,0,0,.31a4.91,4.91,0,0,0,.11,1.18l.06.49,0,.16c0,.1,0,.2.07.3.12.39.16.62.37,1.17a10.37,10.37,0,0,0,.56,1.22,10.74,10.74,0,0,0,1.55,2.14,11.89,11.89,0,0,0,4.22,2.91,12.71,12.71,0,0,0,2.44.73l1.26.14a8.83,8.83,0,0,0,1.17.08l4.13.09,16.43.31,32.87.69,32.87.62,8.22.15c2.72.07,5.55,0,8,.26a16.06,16.06,0,0,1,6.66,1.95,10.86,10.86,0,0,1,1.32.91,10.53,10.53,0,0,1,1.18,1.14l.28.32a1.69,1.69,0,0,1,.2.25c.18.24.34.47.5.71a10,10,0,0,1,.79,1.42,12.24,12.24,0,0,1-1.75,12.49,18.16,18.16,0,0,1-5.32,4.59,20.66,20.66,0,0,1-3.27,1.52,32.79,32.79,0,0,1-3.61,1.09A74.44,74.44,0,0,1,255,281l-8.15,1L230.5,284l-3.71.46q-.06-3.13-.14-6.27l9.13-1.05,19-2.14a42.19,42.19,0,0,0,10-2,13.76,13.76,0,0,0,5-3.21,11.27,11.27,0,0,0,1.06-1.27,7.48,7.48,0,0,0,.88-1.71,6.7,6.7,0,0,0,.41-1.93,5.28,5.28,0,0,0-.31-2.3,12.62,12.62,0,0,0-.61-1.22l-.32-.56h0a0,0,0,0,0-.07,0s0,0,0,.06a3.94,3.94,0,0,0-.56-.57l-.34-.25-.15-.1c-.1-.07-.27-.17-.4-.24a8.47,8.47,0,0,0-1.46-.61,10.63,10.63,0,0,0-1.33-.32c-.37-.07-.79-.14-1.18-.19-1.56-.18-3-.21-4.35-.25l-8.19-.26-16.39-.52-32.78-1-32.79-.93-8.16-.23c-1.19-.17-2.33-.21-3.47-.47a17,17,0,0,1-3.27-1.17,16.11,16.11,0,0,1-5.43-4.2,15.12,15.12,0,0,1-1.85-2.85,14.84,14.84,0,0,1-1.13-3.14l-.18-1.18-.09-.6a3.71,3.71,0,0,1,0-.38c0-.53,0-1.26.06-2.12a11.9,11.9,0,0,1,1.94-5.17l.17-.25a17.42,17.42,0,0,1,2.1-2.38c.5-.46.93-.85,1.28-1.11l.76-.54.76-.51a30.81,30.81,0,0,1,6.63-3.21,35.67,35.67,0,0,1,3.65-1,31,31,0,0,1,3.73-.83l3.83-.58,4-.49q16-1.92,32.09-3.08l1.54-.1C209.83,221.46,209.8,222.87,209.78,224.27Zm56.72,40.36a2,2,0,0,1-.06.3,1.9,1.9,0,0,1-.21.4,5.67,5.67,0,0,1-.48.56,8,8,0,0,1-3,1.87,37.48,37.48,0,0,1-8.66,1.68l-19,2.19-8.62,1c-.07-3.2-.16-6.39-.23-9.59l10.05.28,16.38.48,8.19.24c1.38,0,2.68.07,3.84.21A7.62,7.62,0,0,1,266.5,264.63Zm-45.74-1.73q.08,18.71.18,37.4l-6.27-.13.12-35.32v-2.12ZM208.16,300l-14.25-.3-15.62-.26a26.55,26.55,0,0,1-6.88-.87,6.09,6.09,0,0,1-1.78-.92l.58-.11,4-.53,8.13-1,16.31-2,9.74-1.23C208.3,295.2,208.23,297.61,208.16,300Zm.37-13.26-10.64,1.32-16.32,2-8.17,1-4.19.55a21.13,21.13,0,0,0-2.41.56,9.27,9.27,0,0,0-1.43.59,6.09,6.09,0,0,0-.85.52,4.53,4.53,0,0,0-1.08,1.18l-.12.2a5.7,5.7,0,0,0-.43,1.09,5.08,5.08,0,0,0,0,2.38,5.72,5.72,0,0,0,.27.91,6.84,6.84,0,0,0,.38.82c.07.12.16.27.27.43l.25.31a9.06,9.06,0,0,0,1,1.14,11.79,11.79,0,0,0,4.46,2.56,31.61,31.61,0,0,0,8.59,1.17l15.67.3,31.29.7c10.43.23,20.86.51,31.31.64l3.89.07c1.3,0,2.44.18,3.66.26a27.41,27.41,0,0,1,7,1.29,17.7,17.7,0,0,1,3,1.35,12.86,12.86,0,0,1,2.52,1.86,9.79,9.79,0,0,1,1.79,2.37,8.51,8.51,0,0,1,.57,1.27l.4,1.51c0,.56.14,1.21.17,1.66a10,10,0,0,1-.05,1.63,11.51,11.51,0,0,1-.79,3.22,12.91,12.91,0,0,1-4.05,5.31,13.29,13.29,0,0,1-6.2,2.65l-8.17.76L243.31,334c-5,.56-10.07,1.19-15.1,1.86-.05-1.26-.09-2.52-.14-3.78,1.68-.23,3.35-.47,5-.68l9.46-1.13,9.49-.95,9.49-.92,4.83-.42,1.27-.13a10.49,10.49,0,0,0,1.45-.31,9.49,9.49,0,0,0,2.75-1.34,8.93,8.93,0,0,0,3.54-5,8.21,8.21,0,0,0,.14-3.2,5.64,5.64,0,0,0-1.68-3.21,11.68,11.68,0,0,0-5.11-2.62,21.45,21.45,0,0,0-5.08-.75l-2.53-.15c-.83,0-1.61,0-2.42,0l-4.79.05-9.56.13-38.21.44-19.1.17h-9.49a36.35,36.35,0,0,1-8.86-1,19.35,19.35,0,0,1-7.48-3.72,13.81,13.81,0,0,1-4.58-6.49,11.43,11.43,0,0,1,4.79-13.5,15.74,15.74,0,0,1,3.71-1.6,25.67,25.67,0,0,1,4.32-.83l9.4-1.14,19-2.22,10.86-1.25Zm19.08,30.92c0-.6,0-1.2-.05-1.79l16.85-.44,9.55-.12,4.76,0c.79,0,1.6,0,2.36,0l2.24.14a18.12,18.12,0,0,1,4.35.63,7.84,7.84,0,0,1,3.34,1.61,1.51,1.51,0,0,1,.5.94,3.82,3.82,0,0,1-.1,1.54,4.71,4.71,0,0,1-2,2.58,4.83,4.83,0,0,1-1.54.72,8.33,8.33,0,0,1-.89.17l-1.11.08-4.69.32-9.55.67c-6.36.43-12.74.88-19.11,1.4l-4.68.4C227.78,323.57,227.68,320.64,227.61,317.69Zm-6.6-1.63c0,.58,0,1.16,0,1.74,0,7.89.18,15.87.29,23.82.05,2,0,4,.13,6l.45,6,.68,9-1.12-.13c-2.76-.3-5.52-.65-8.28-1l.1-1.4.9-11.93c.19-4,.15-8,.24-11.94l.17-11.92,0-7.94ZM206.55,347.6l-1.15,11.7-.09.92q-7.19-1.12-14.32-2.44c-5.05-.92-10.09-1.91-15.09-3l-7.53-1.71-.54-.12h0c.58-.16,1.17-.28,1.88-.44l8.2-1.71q8.2-1.67,16.44-3.18c4.09-.75,8.19-1.42,12.29-2.1C206.62,346.2,206.6,346.9,206.55,347.6Zm.51-11.77c0,1.06-.08,2.11-.11,3.16-4.58.75-9.16,1.52-13.72,2.35q-8.31,1.5-16.58,3.17l-8.26,1.72c-.65.13-1.44.3-2.21.5s-1.51.44-2.27.72a19.91,19.91,0,0,0-2.32,1,9.2,9.2,0,0,0-2.6,2,4.37,4.37,0,0,0-.39.49,3.37,3.37,0,0,0-.3.53l-.12.27-.05.16-.08.3a1.63,1.63,0,0,0-.06.36,6.66,6.66,0,0,0,.37,2.32,2.58,2.58,0,0,0,.26.55,6.12,6.12,0,0,0,1.31,1.63,7.18,7.18,0,0,0,1.59,1,4.19,4.19,0,0,0,.87.36l.62.18,3.77,1,7.56,1.91q7.6,1.86,15.27,3.42c10.23,2,20.47,3.85,30.84,5.14,5.17.73,10.35,1.42,15.54,1.84s10.38,1,15.55,1.43,9.79,1,13.75,2.81a19.67,19.67,0,0,1,2.81,1.57,15,15,0,0,1,2.39,2,18.12,18.12,0,0,1,2,2.42c.56.86,1,1.85,1.58,2.78,2.91,6.58,2.55,13.33.14,20.43-.54,1.91-1.19,3.74-1.83,5.58l-1.9,5.53c-1.34,3.66-2.81,7.25-4.41,10.8a164.41,164.41,0,0,1-9.9,18.64l4.31-11.72,5.55-18.45,2.32-9.34,1-4.71c.15-.84.34-1.66.46-2.53s.21-1.77.21-2.67a20,20,0,0,0-.62-5.37,21.09,21.09,0,0,0-.86-2.58,11.84,11.84,0,0,0-1.47-2.6A11,11,0,0,0,265,383.7a12.3,12.3,0,0,0-2.58-1.47,20.85,20.85,0,0,0-5.18-1.4c-3.41-.54-6.59-.61-9.75-.86s-6.31-.47-9.46-.78c-12.56-1.23-25.12-3.25-37.48-5.67s-24.67-5.62-36.75-9.13l-2.24-.65-.54-.16-.4-.17-.82-.32a11.83,11.83,0,0,1-3-1.9,10.85,10.85,0,0,1-3.54-5.83,8.79,8.79,0,0,1-.21-1.71,7.28,7.28,0,0,1,.06-1.62,9,9,0,0,1,.35-1.62,6.92,6.92,0,0,1,.61-1.43,11.9,11.9,0,0,1,5.24-4.68,30.43,30.43,0,0,1,8-2.51l9.34-1.73c6.24-1.12,12.48-2.25,18.74-3.26,3.9-.64,7.8-1.22,11.71-1.8ZM251,444.48c-.19-.41-.38-.82-.58-1.22A37.4,37.4,0,0,0,236.77,429l-.56-.32L234.78,412l-2.59-27.94c1.8.14,3.59.3,5.39.43,3.2.22,6.41.39,9.61.52s6.39.23,9.29.64a16.6,16.6,0,0,1,4,1,7.94,7.94,0,0,1,1.57.84,6.77,6.77,0,0,1,1.24,1.21,7,7,0,0,1,.88,1.54,19.37,19.37,0,0,1,.65,1.95,15.12,15.12,0,0,1,.48,4.09,23.77,23.77,0,0,1-.54,4.25l-1,4.63-2.34,9.19c-1.87,6-3.75,12.06-5.73,18.06C254.12,436.47,252.55,440.47,251,444.48ZM211.65,382q6.22.8,12.45,1.42l2.15,29.35.83,12.15a35.22,35.22,0,0,0-18.49-.05l1.2-17.56Zm-8,55.36a27.43,27.43,0,0,1,28.06,0,27.76,27.76,0,0,1,10.13,10.5,29.44,29.44,0,0,1,2.58,6.9,13.87,13.87,0,0,1,.33,1.82,16.1,16.1,0,0,1,.25,1.83c0,1.24.16,2.39.14,3.93l.05,17.38.1,34.75.16,19-7.32.07,0-6.37.06-24,0-12c0-.93,0-2.14-.08-3.27,0-.58-.12-1.14-.18-1.71s-.11-1.14-.24-1.69a30.73,30.73,0,0,0-1.92-6.44,24.2,24.2,0,0,0-7.57-9.86,17.08,17.08,0,0,0-21.18,0,24.2,24.2,0,0,0-7.57,9.86,30.73,30.73,0,0,0-1.92,6.44c-.13.55-.16,1.13-.24,1.69s-.17,1.13-.18,1.71c0,1.13-.1,2.32-.08,3.31l.06,12.46c.07,8.31.17,16.63.32,24.91l.12,5.31-8.72.09.67-21.67c.26-11.16.45-22.26.56-33.37l.11-16.69c0-1.46.09-2.63.14-3.87a14.12,14.12,0,0,1,.25-1.83,13.87,13.87,0,0,1,.33-1.82,29.44,29.44,0,0,1,2.58-6.9A27.68,27.68,0,0,1,203.7,437.31Zm29.43,96.2-31.25.32.2-8.21c.15-7.7.25-15.35.31-23l.07-11.5c0-1,0-1.81.07-2.67,0-.42.1-.84.14-1.26a12.53,12.53,0,0,1,.18-1.25,23.54,23.54,0,0,1,1.44-4.75,18,18,0,0,1,5.63-7.25,12.8,12.8,0,0,1,15.62,0,18,18,0,0,1,5.63,7.25,23.54,23.54,0,0,1,1.44,4.75,12.53,12.53,0,0,1,.18,1.25c0,.42.14.84.14,1.26,0,.86.09,1.65.07,2.71l0,12,.06,24Zm189.4-305.84c-.26,3.44-.43,6.9-.75,10.34l-1.29,10.29c-.54,3.43-1.14,6.87-1.75,10.3s-1.34,6.84-2.16,10.24A316.44,316.44,0,0,1,404.49,309a402.46,402.46,0,0,1-16.88,38.6l-2.37,4.78c-.79,1.6-1.58,3-2.37,4.54q-2.44,4.47-5.26,8.87c-3.72,5.89-7.77,11.73-11.71,17.73s-7.81,12.18-11.4,18.5-6.84,12.9-9.84,19.55a234.28,234.28,0,0,0-13.59,41.53q-1.15,5.43-1.89,10.9-.36,2.73-.63,5.47l-.25,2.73-.3,2.56-.58,5.12c-.24,1.69-.61,3.35-.9,5l-.47,2.52c-.16.84-.42,1.64-.62,2.46-.45,1.63-.83,3.29-1.33,4.9a63.55,63.55,0,0,1-8.58,17.93,44,44,0,0,1-6.47,7.19,30.82,30.82,0,0,1-3.76,2.86c-.13.1-.27.17-.41.26l-13,0c-12.49,0-25,.13-37.47.25l.16-18.88.11-34.75.05-17.38c0-.58,0-1.23,0-1.9,1-1.25,1.92-2.49,2.84-3.76,1.17-1.64,2.35-3.28,3.49-5a165.17,165.17,0,0,0,12-21.27c1.72-3.68,3.36-7.42,4.79-11.23l2-5.75c.68-1.91,1.37-3.83,1.92-5.75.29-1,.59-1.88.88-2.93s.62-2.17.8-3.27a36.16,36.16,0,0,0,.69-6.65,33,33,0,0,0-.65-6.76,28.44,28.44,0,0,0-.86-3.25l-1.14-3.07,0-.07a1.75,1.75,0,0,0-.13-.28c-.72-1.29-1.36-2.58-2.18-3.85a24.69,24.69,0,0,0-2.94-3.53,23.17,23.17,0,0,0-3.6-3,27.93,27.93,0,0,0-4-2.19,34.73,34.73,0,0,0-8.37-2.51,75.91,75.91,0,0,0-8.12-.92c-5.15-.36-10.24-.89-15.37-1.33-2.15-.22-4.32-.38-6.47-.62l-1-10.43-.58-5.85c-.13-1.66-.16-3.33-.22-5,5.19-.7,10.37-1.37,15.59-1.95l16.65-1.64c2.78-.3,5.48-.46,8.56-.81a19.55,19.55,0,0,0,9.08-3.91,19.07,19.07,0,0,0,6-7.92,17.71,17.71,0,0,0,1.2-4.92,16.76,16.76,0,0,0,.07-2.57c-.06-.92-.17-1.61-.25-2.43a1.49,1.49,0,0,0,0-.18v0c-.19-.72-.35-1.38-.57-2.14a15.9,15.9,0,0,0-1-2.31,16.34,16.34,0,0,0-2.91-3.84,19.66,19.66,0,0,0-3.76-2.79,24.36,24.36,0,0,0-4.12-1.84,30.59,30.59,0,0,0-4.21-1.07,30.16,30.16,0,0,0-4.15-.51c-1.38-.09-2.83-.27-4.14-.29l-3.93,0c-9.77-.11-19.55-.35-29.32-.55-.09-3.33-.15-6.66-.24-10l4.32-.55,16.3-2.09,8.16-1a80.74,80.74,0,0,0,8.41-1.42,38.4,38.4,0,0,0,4.25-1.29,26.38,26.38,0,0,0,4.17-1.95,23.92,23.92,0,0,0,7-6.1,18.91,18.91,0,0,0,3.76-8.83,17.06,17.06,0,0,0-1.42-9.66,15.64,15.64,0,0,0-1.22-2.16c-.23-.33-.46-.65-.7-1a7,7,0,0,0-.44-.54l-.4-.45a16.11,16.11,0,0,0-1.8-1.69,15.4,15.4,0,0,0-2.06-1.41,21.61,21.61,0,0,0-9-2.63c-3-.25-5.69-.16-8.44-.22l-8.22-.08L226,247.13q-.18-9.31-.33-18.63c11.85-.5,23.7-.73,35.55-.47l9.23.13,2.39.05c.88,0,1.75,0,2.6-.12a22.16,22.16,0,0,0,5.13-1.22,20.13,20.13,0,0,0,13.06-15.47,18.84,18.84,0,0,0,.25-4.31c0-.07,0-.13,0-.19v0a17.55,17.55,0,0,0-3.45-8.86,20.59,20.59,0,0,0-3.24-3.35c-.59-.49-1.17-.93-1.79-1.37s-1.29-.83-1.94-1.21a40.7,40.7,0,0,0-16.59-4.75,294.91,294.91,0,0,0-32.67-1c-3,0-6,.1-9,.16l0-11.1v-3.82c1.64-.32,3.29-.63,4.93-1a159.72,159.72,0,0,0,26-7.59,116.29,116.29,0,0,0,12.48-5.93,22.75,22.75,0,0,0,5.71-4.86,16.75,16.75,0,0,0,3.43-7.06,19.18,19.18,0,0,0-2.89-14.71,21.13,21.13,0,0,0-5.25-5.37,26.29,26.29,0,0,0-6.45-3.47,43.87,43.87,0,0,0-13.81-2.37l-6.74-.24c-2.25-.11-4.48,0-6.72,0l-10.7.09v-8.89a7.45,7.45,0,0,0-11.53-6.31,7.29,7.29,0,0,0-2.62,3,7.14,7.14,0,0,0-.63,1.91,9.86,9.86,0,0,0-.12,1.85l0,9.1-1.3.09c-8.93.67-17.84,1.71-26.68,3.26a2,2,0,0,0,.14,4h0l.24,0c8.23.85,16.47,1.62,24.7,2.38l2.88.26q0,13.37,0,26.72l-3,.48c-8.17,1.25-16.4,2.49-24.61,4.12-2,.42-4.14.85-6.16,1.33-1,.25-2,.43-3.16.76l-.85.23-.78.25a17.63,17.63,0,0,0-1.66.63,19.94,19.94,0,0,0-6.08,4,21,21,0,0,0-4.13,5.91,2.29,2.29,0,0,0-.1.23,21.82,21.82,0,0,0-1.66,7.22,21.23,21.23,0,0,0,1,7.36,20.18,20.18,0,0,0,3.6,6.57,19,19,0,0,0,2.68,2.71,26.09,26.09,0,0,0,3,2l0,0a2.16,2.16,0,0,0,.34.17,22.49,22.49,0,0,0,3.78,1.47l1.8.41,1.11.22.93.11c2.34.28,4.77.54,7.17.75,4.8.4,9.6.61,14.39.69,4.06.07,8.1,0,12.14,0l-.15,9.79-2.07.14c-10.82.78-21.61,1.86-32.37,3.16l-4,.51-4.17.64a35.49,35.49,0,0,0-4.15.94,38.86,38.86,0,0,0-4.14,1.19,36.52,36.52,0,0,0-7.9,3.85l-.92.62-.89.64a20.79,20.79,0,0,0-1.78,1.52,22.25,22.25,0,0,0-3.11,3.63,17.81,17.81,0,0,0-3,7.84c0,.1,0,.2,0,.3a28.67,28.67,0,0,0-.06,2.92c0,.29,0,.6.09.93l.12.7.19,1.25a2.61,2.61,0,0,0,.08.36l.29,1a9.18,9.18,0,0,0,.35,1.13,19.94,19.94,0,0,0,3.56,6.21,22.12,22.12,0,0,0,7.44,5.76,23.2,23.2,0,0,0,4.44,1.57,41.15,41.15,0,0,0,4.65.62l8.22.22,32.77.85,5.51.15c0,.73,0,1.47,0,2.2-.06,3.31-.15,6.63-.22,9.94l-11.63,1.36-19,2.27-9.57,1.18a24.9,24.9,0,0,0-10.08,3.2,16.55,16.55,0,0,0-7,8.69,16.89,16.89,0,0,0,0,11.12,19.14,19.14,0,0,0,6.33,8.87,24.43,24.43,0,0,0,9.53,4.65,40.9,40.9,0,0,0,10.09,1.08c3.25,0,6.4-.1,9.61-.16l19.11-.53,1.49,0-.21,7.64-.16,4.45c-4.31.46-8.62.92-12.93,1.44-6.34.79-12.69,1.6-19,2.57L165.9,334a35.64,35.64,0,0,0-10.19,3.06A20,20,0,0,0,147,345a16.08,16.08,0,0,0-1.29,2.94,17.49,17.49,0,0,0-.69,3,16.63,16.63,0,0,0-.1,3.15,17.29,17.29,0,0,0,.4,3,19,19,0,0,0,6.22,10.22,19.25,19.25,0,0,0,5.06,3.15L158,371l.71.25.6.18,2.36.63c3.12.81,6.22,1.67,9.35,2.43s6.25,1.43,9.39,2.1c6.28,1.33,12.59,2.55,18.94,3.59,1.36.21,2.72.39,4.07.59L201,406.55l-1.94,22.2-.36.21a37.4,37.4,0,0,0-13.61,14.3,38.47,38.47,0,0,0-3.44,9.35,22.44,22.44,0,0,0-.44,2.45c-.1.83-.29,1.64-.31,2.47-.09,1.66-.18,3.38-.15,4.82l.11,18.07c.11,12.06.3,24.13.57,36.14l.51,17.47h-.56l-48.58.2-.64-.32a22.44,22.44,0,0,1-2-1.18,30.82,30.82,0,0,1-3.76-2.86,44.49,44.49,0,0,1-6.48-7.19,64.1,64.1,0,0,1-8.58-17.93c-.5-1.6-.87-3.27-1.32-4.9-.21-.82-.46-1.62-.63-2.46l-.46-2.52c-.29-1.68-.66-3.34-.9-5l-.58-5.12-.3-2.56-.25-2.73q-.27-2.74-.64-5.47-.73-5.48-1.88-10.9A235.37,235.37,0,0,0,90.8,421.54c-3-6.65-6.22-13.22-9.84-19.54s-7.43-12.51-11.4-18.5-8-11.85-11.72-17.73c-1.87-2.94-3.62-5.89-5.26-8.88-.78-1.52-1.57-2.94-2.36-4.54l-2.37-4.78A404,404,0,0,1,31,309a316.4,316.4,0,0,1-12.08-40.13c-.83-3.4-1.43-6.83-2.16-10.24S15.5,251.73,15,248.3L13.67,238c-.32-3.44-.49-6.9-.75-10.34A204.34,204.34,0,0,1,137.24,30.25a205.26,205.26,0,0,1,272.53,116.2A203.76,203.76,0,0,1,422.53,227.67Z"/>
        <path class="cls-1" d="M172.36,176.29a1.39,1.39,0,0,1,.19-.15,2.31,2.31,0,0,1,.29-.24Z"/>
      </g>
    </g>
  </g>
</svg>
