<svg xmlns="http://www.w3.org/2000/svg" viewBox="0 0 273.87 720">
  <defs>
    <style>
      .cls-1 {
        fill: #494546;
      }
    </style>
  </defs>
  <title>Asset 2</title>
  <g id="Layer_2" data-name="Layer 2">
    <g id="Layer_1-2" data-name="Layer 1">
      <g>
        <path class="cls-1" d="M188.61,684.58c-2.19,1.5-4.37,3-6.63,4.36a79.33,79.33,0,0,1-13.81,7.19,21.26,21.26,0,0,1-7,1.57,15,15,0,0,1-1.88,0l-2-.09-4-.16c-5.33-.16-10.66-.22-16-.26s-10.67.09-16,.27l-4,.16-2,.08a13.31,13.31,0,0,1-1.88,0,21.29,21.29,0,0,1-7-1.56A80.11,80.11,0,0,1,92.58,689c-2.25-1.37-4.43-2.87-6.62-4.36-1.1-.75-2.18-1.53-3.25-2.31s-2.16-1.56-3.15-2.45a54.3,54.3,0,0,0,5.54,5.81c2,1.84,4,3.59,6.09,5.27a67.33,67.33,0,0,0,13.74,8.77,22.34,22.34,0,0,0,8.36,2.33,17.39,17.39,0,0,0,2.11.07h43.78a19.59,19.59,0,0,0,2.1-.07,16.39,16.39,0,0,0,2.27-.27l2.14-.51a35.23,35.23,0,0,0,3.95-1.55,67.21,67.21,0,0,0,13.74-8.77c2.1-1.69,4.14-3.44,6.09-5.27a55.35,55.35,0,0,0,5.54-5.82c-1,.89-2.08,1.66-3.15,2.45S189.71,683.84,188.61,684.58Z"/>
        <path class="cls-1" d="M205.65,391.66c3,.18,6,.41,9,.53,6,.25,12.07.59,18.11.74,4.68.14,9.37.22,14.06.3q-.1,10.57,0,21.16l.08,6.27c0,2.08,0,4-.08,6a72,72,0,0,1-1.57,11.78,68.48,68.48,0,0,1-9,22.16,62.64,62.64,0,0,1-16.68,18c7.92-3,14.77-8.71,20.29-15.35a65,65,0,0,0,12.15-23,69.35,69.35,0,0,0,2.47-12.95c.22-2.17.32-4.45.35-6.56l.08-6.27c.07-8.37.08-16.73,0-25.1v-.09a4,4,0,0,0-4-3.92q-9,.11-18.1.38c-6,.15-12.07.49-18.11.74-3,.12-6,.35-9,.52s-6,.37-9.05.63c-6,.46-12.07,1-18.1,1.74,6,.74,12.07,1.29,18.1,1.75C199.62,391.29,202.64,391.49,205.65,391.66Z"/>
        <path class="cls-1" d="M249.37,335.62c.33,0,.86-.13,1.32-.21l1.4-.25c.94-.19,1.85-.49,2.77-.74a27,27,0,0,0,9.84-5.75,27.41,27.41,0,0,0,8.9-20.43,27.28,27.28,0,0,0-30.68-26.67q-14.08,1.79-28.17,3.62l-41.67-11.83.56-.07,35.55-4.82,35.58-4.63,4.44-.58c.75-.1,1.75-.29,2.61-.45s1.76-.47,2.63-.72a25.52,25.52,0,0,0,9.34-5.5,26,26,0,0,0,8.37-19.42,25.74,25.74,0,0,0-8.83-19.2,26,26,0,0,0-20.25-6.24L222,214.32h0l-45.59-11.77c22.85-2.72,45.7-5.42,68.53-8.3l4.45-.55c.32,0,.86-.13,1.32-.21l1.42-.25c.94-.19,1.86-.49,2.79-.75a27,27,0,0,0,9.93-5.8,27.63,27.63,0,0,0,9-20.63,27.19,27.19,0,0,0-2.53-11.23,27.63,27.63,0,0,0-28.46-15.71q-10.89,1.38-21.79,2.81l-39.5-11.55q32-4.27,64-8.39l2.23-.28c.75-.1,1.43-.17,2.39-.35a19.86,19.86,0,0,0,2.65-.58,19.17,19.17,0,0,0,2.59-.86,26.06,26.06,0,0,0,16.66-25.65,26.86,26.86,0,0,0-2.59-10.43,26.29,26.29,0,0,0-26.87-14.68l-10,1.24L186.93,56.12,196.14,55l7.57-1a26.08,26.08,0,0,0,8.91-2.91A27,27,0,0,0,227,28.21a29.48,29.48,0,0,0-.21-4.64l-.4-2.32c-.15-.77-.41-1.52-.61-2.28A27.09,27.09,0,0,0,196.45.21L76.87,15.74,47,19.67,32,21.63l-7.55,1a25.58,25.58,0,0,0-8.66,2.88A26.13,26.13,0,0,0,2.06,47.82a27.75,27.75,0,0,0,.23,4.5l.4,2.24c.16.74.39,1.46.59,2.2A26.15,26.15,0,0,0,30.11,75.12a2.67,2.67,0,0,0,.26.09L85.54,88.08,28.45,94.87l-2.24.27c-.75.09-1.41.14-2.43.33a20.63,20.63,0,0,0-2.81.59,20.65,20.65,0,0,0-2.73.88A27.83,27.83,0,0,0,2.32,112.66,27.81,27.81,0,0,0,31.74,150.5l.83-.11,44.1,10.71-47.16,6.31-4.45.59c-.74.1-1.76.31-2.62.47s-1.77.48-2.65.73a25.55,25.55,0,0,0-9.36,5.57,26.08,26.08,0,0,0-8.34,19.5,26.53,26.53,0,0,0,2.42,10.54,26.2,26.2,0,0,0,24,15.09l46.66,11.71L29.31,237l-4.45.52c-.32,0-.87.13-1.33.2L22.1,238c-1,.19-1.89.49-2.83.75a27.18,27.18,0,0,0-10.06,5.82,27.76,27.76,0,0,0,21,48.31L73,303.89l-43.48,5.77-4.45.59c-.74.09-1.75.3-2.62.45s-1.76.48-2.64.73A25.54,25.54,0,0,0,10.46,317a26,26,0,0,0-6,30,26.1,26.1,0,0,0,25.84,15l32.45,7.23-54.29.31h0a4.13,4.13,0,0,0-4.11,4.07v0l-.56,34.85-.14,8.71c0,2.93,0,6.06.17,9.08a103.88,103.88,0,0,0,2.68,18.11,97.9,97.9,0,0,0,15.05,33.48A93.83,93.83,0,0,0,33.7,491.91l1.13,1L13,493h-.16a4.46,4.46,0,0,0-4.39,4.55l.32,18.25v-.3a17.83,17.83,0,0,0,0,2.41l.07.63.07.51c.05.36.13.78.21,1.16a17,17,0,0,0,1.66,4.48,16.57,16.57,0,0,0,1.28,2,17.66,17.66,0,0,0,1.4,1.68L15.91,531l9.74,10.67,9.74,10.67,4.87,5.33,1.22,1.34.59.65a6.4,6.4,0,0,1,.42.49,7.7,7.7,0,0,1,.63.94L40,566c-1.38,2.16-2.76,4.23-4.11,6.69a16.47,16.47,0,0,0-1,2.13,7.73,7.73,0,0,0-.56,3.29A6.36,6.36,0,0,0,36,581.79a10.56,10.56,0,0,0,2.13,1.82A23,23,0,0,0,40.57,585l-1.41,1.82c-.78,1-1.56,2-2.35,3.09a31.85,31.85,0,0,0-2.4,3.68l-.31.6-.31.73a7.76,7.76,0,0,0-.31.93,6.41,6.41,0,0,0-.22,1.29,6.63,6.63,0,0,0,.39,2.84,7.5,7.5,0,0,0,1.12,2,12.91,12.91,0,0,0,4.49,3.49c.72.37,1.43.69,2.14,1-1.73,2.88-3.46,5.76-5.16,8.86a15.36,15.36,0,0,0-1.78,4.58,5.67,5.67,0,0,0-.1.84v.43c0,.21,0,.42,0,.63a5.78,5.78,0,0,0,.71,2.17,8.49,8.49,0,0,0,2.14,2.46,19.38,19.38,0,0,0,4.07,2.37c.59.27,1.18.5,1.77.73-.52.54-1,1.07-1.56,1.63-1.73,1.9-3.48,3.7-5.21,6a20.35,20.35,0,0,0-1.34,2,7.73,7.73,0,0,0-1.11,3.59A6.59,6.59,0,0,0,35.42,647a10.91,10.91,0,0,0,2.24,2,28.43,28.43,0,0,0,7,3.2V655a13.86,13.86,0,0,0,.37,2.56,12.84,12.84,0,0,0,2.22,4.62l2.46,3.05L59.32,677l9.59,11.8,4.82,5.88,2.41,2.94c.22.27.35.45.65.78s.67.73.89.93c.51.5,1,1,1.51,1.41a124.81,124.81,0,0,0,12.36,9.69,70.07,70.07,0,0,0,14.13,7.77,28.37,28.37,0,0,0,4.22,1.22,12,12,0,0,0,2.33.36l1.22.08a9,9,0,0,0,1.12,0l7.57-.13c5-.08,10.09-.1,15.14-.1s10.09.06,15.14.15L160,720a11,11,0,0,0,1.11,0l1.23-.08a12.08,12.08,0,0,0,2.34-.35,28.63,28.63,0,0,0,4.24-1.21,67.65,67.65,0,0,0,14.21-7.71,123.72,123.72,0,0,0,12.4-9.68c.49-.44,1-.91,1.52-1.41.22-.2.59-.6.9-.93s.44-.53.67-.79l2.41-2.94,4.82-5.88,9.57-11.82L225,665.33l2.44-3.08a12.81,12.81,0,0,0,2.21-4.67A13.06,13.06,0,0,0,230,655v-1.12l0-.95,0-1.23c1.1-.38,2.21-.78,3.33-1.28a19.21,19.21,0,0,0,4.05-2.36,8.53,8.53,0,0,0,2.11-2.4,5.76,5.76,0,0,0,.71-2.12,4.42,4.42,0,0,0,0-1.26c0-.21-.06-.43-.1-.64s-.09-.32-.14-.48a9.17,9.17,0,0,0-1.36-2.6,20.28,20.28,0,0,0-1.35-1.74c-2-2.32-4-4.43-6-6.51.93-.33,1.87-.69,2.83-1.13a17.06,17.06,0,0,0,4.32-2.69,7.8,7.8,0,0,0,2.27-3.26,6.21,6.21,0,0,0,.33-2.72c0-.22,0-.45-.09-.67l-.12-.48a7.18,7.18,0,0,0-.27-.85,20.41,20.41,0,0,0-2.3-4.15c-2.12-3.06-4.3-5.81-6.54-8.49a35.16,35.16,0,0,0,3.46-1.5,17.78,17.78,0,0,0,2-1.17,9.13,9.13,0,0,0,2.24-2.15,5.28,5.28,0,0,0,.91-2.46,4.38,4.38,0,0,0-.13-1.62c-.06-.23-.18-.6-.22-.69l-.11-.24c-.27-.64-.58-1.27-.9-1.9a42.67,42.67,0,0,0-5.58-8,23.57,23.57,0,0,0,3.87-2,11.66,11.66,0,0,0,2.32-2.1c.2-.27.4-.55.59-.84a10.3,10.3,0,0,0,.53-1,8.75,8.75,0,0,0,.37-1.29,7.66,7.66,0,0,0,.11-1.38,9.8,9.8,0,0,0-.74-3.24,21.12,21.12,0,0,0-1-2.11,70.83,70.83,0,0,0-4.19-6.75c-1.11-1.59-2.25-3.13-3.43-4.65.18-.24.34-.49.53-.71l2.34-2.5,4.9-5.24,9.8-10.47,9.8-10.47,2.45-2.62A16.86,16.86,0,0,0,263,527a18.76,18.76,0,0,0,1.34-2.07,17,17,0,0,0,1.72-4.65l.2-1c.08-.41.14-.83.18-1.25a17.16,17.16,0,0,0,0-2.59l0,.41.53-18.23v-.09a5.45,5.45,0,0,0-5.46-5.42h0l-21.87.09c.61-.52,1.23-1,1.83-1.55a91.45,91.45,0,0,0,12.25-13.54,97,97,0,0,0,15.75-32.8,102.61,102.61,0,0,0,3.14-18c.27-3,.36-6.15.4-9.08l.09-8.71.37-34.85v-.08a5.16,5.16,0,0,0-.16-1.25.1.1,0,0,0,0,0l-.07-1.35a22,22,0,0,0-.33-2.69,38.67,38.67,0,0,0-1.24-5.29,36.88,36.88,0,0,0-4.87-9.64,34.6,34.6,0,0,0-7.53-7.7,38.49,38.49,0,0,0-4.53-2.93,37,37,0,0,0-5-2.15,33.42,33.42,0,0,0-10.55-2l-1.34,0h-1.14l-2.3,0-4.58,0-4.39,0c6.45-.8,12.9-1.58,19.34-2.39ZM233.63,598.9s0-.09-.07-.18ZM19,63.3A17.15,17.15,0,0,1,12,54.06c-.12-.48-.31-1-.39-1.44l-.25-1.47a19.54,19.54,0,0,1-.13-3,17.33,17.33,0,0,1,1.24-5.77,17.09,17.09,0,0,1,7.8-8.58A16.36,16.36,0,0,1,25.82,32l7.4-.92,15-1.81,29.92-3.63L197.8,11a16.47,16.47,0,0,1,10.78,2.49,16.23,16.23,0,0,1,6.64,8.79c.11.46.27.9.36,1.36l.25,1.39a17.83,17.83,0,0,1,.15,2.87,16,16,0,0,1-1.12,5.47,16.29,16.29,0,0,1-7.35,8.26,15.59,15.59,0,0,1-5.33,1.77l-7.38,1-15,1.94L150,50.12,30.39,65.85A17.31,17.31,0,0,1,19,63.3Zm38,8.63,94.23-11.41L165,58.83l44.36,14.44q-48.63,5.94-97.31,11.66ZM30.2,138.36a15.66,15.66,0,0,1-17.35-15,15.31,15.31,0,0,1,4.4-11.68,15.47,15.47,0,0,1,5.34-3.55,9.19,9.19,0,0,1,1.53-.52,9.51,9.51,0,0,1,1.58-.36c.45-.11,1.28-.21,2-.31l2.23-.3,71.27-9.52c47.52-6.33,95-12.78,142.58-18.82a17.13,17.13,0,0,1,8.32,33,11,11,0,0,1-1.68.55,12.67,12.67,0,0,1-1.73.37c-.51.11-1.33.2-2.06.29l-2.23.28q-35.67,4.48-71.38,8.65Zm31.48,8.11,97.46-13.08,35,12.05q-46.18,6.08-92.36,12.29ZM17,206.58a16.35,16.35,0,0,1-5.71-12.42,16.79,16.79,0,0,1,5.53-12.43,16.2,16.2,0,0,1,6-3.44c.56-.13,1.11-.33,1.68-.43s1.06-.2,1.8-.29l4.45-.53L102,168.58c47.5-5.65,95-11.23,142.46-17.18a15.11,15.11,0,0,1,12.06,26.12,14.43,14.43,0,0,1-5.42,3.21c-.51.13-1,.32-1.53.42l-.79.14c-.27.05-.47.1-.89.15l-4.45.57c-23.73,3-47.43,6.19-71.13,9.36L30.06,210.48A16.6,16.6,0,0,1,17,206.58Zm36.51,10.5,97.85-11.56,43.93,12-23.42,2.77-71.23,8.31ZM29.81,279.64A14.66,14.66,0,0,1,18.4,276a14.45,14.45,0,0,1-5-10.81A14.8,14.8,0,0,1,18,254.16,14.23,14.23,0,0,1,23.31,251c.51-.13,1-.32,1.5-.42l.78-.15c.27-.05.46-.1.88-.15l4.44-.6L102,240l71.1-9.66,35.56-4.77,35.57-4.6a16.63,16.63,0,0,1,13.34,28.83,16.16,16.16,0,0,1-6,3.5c-.57.14-1.12.34-1.69.45s-1.08.21-1.82.3l-4.45.55L208,259l-35.63,4.17Zm27.93,9.5,92.72-12.68,39,12q-44.41,5.82-88.8,11.73l-3.43.46ZM223.15,653.88l0,.79a5.87,5.87,0,0,1-.21,1.17A6.19,6.19,0,0,1,221.8,658l-2.4,2.79-9.85,11.58-9.83,11.6-4.87,5.84-2.44,2.91c-.18.22-.45.56-.56.66s-.18.2-.43.42c-.4.38-.82.77-1.28,1.17a117.64,117.64,0,0,1-11.61,8.93,64.22,64.22,0,0,1-12.44,6.8,22,22,0,0,1-3.05.89,5.85,5.85,0,0,1-1.41.22l-.66,0a4.53,4.53,0,0,1-.79,0l-7.64-.14q-7.62-.11-15.26-.09t-15.27.15l-7.63.16a3.72,3.72,0,0,1-.79,0l-.66,0a5.93,5.93,0,0,1-1.43-.22,20.48,20.48,0,0,1-3.07-.88A62.49,62.49,0,0,1,95.92,704a117,117,0,0,1-11.65-8.93c-.47-.4-.89-.79-1.29-1.17s-.3-.3-.44-.43-.39-.45-.57-.67l-2.44-2.91-4.88-5.83-9.8-11.63L55,660.83,52.67,658a6,6,0,0,1-1.1-2.17,6,6,0,0,1-.2-1.19l0-.62c3.25.77,6.48,1.39,9.71,1.93,5.1.84,10.21,1.54,15.31,2.07a572.85,572.85,0,0,0,61.23,2.9,572.48,572.48,0,0,0,61.2-3.24q7.63-.86,15.27-2.2c3-.54,6.06-1.15,9.09-1.88ZM232,641.15c.37.44.71.89,1,1.28a1.64,1.64,0,0,1,.14.22l-.07.06a21.08,21.08,0,0,1-5.81,2.59,110.76,110.76,0,0,1-14.36,3.19c-4.91.81-9.89,1.44-14.88,2a568,568,0,0,1-60.39,2.79,572.62,572.62,0,0,1-60.37-3c-5-.53-10-1.22-14.86-2A114.67,114.67,0,0,1,48,645a24.26,24.26,0,0,1-5.88-2.5l0,0c.14-.24.31-.5.49-.77,1.31-1.79,2.93-3.79,4.5-5.74,1.12-1.37,2.2-2.81,3.28-4.23,3.42.87,6.82,1.57,10.23,2.19,5.12.9,10.23,1.66,15.36,2.23a576.47,576.47,0,0,0,61.55,3.3,566.93,566.93,0,0,0,61.6-3c5.14-.56,10.27-1.25,15.41-2.13,3.17-.55,6.34-1.18,9.53-2C226.78,635.37,229.58,638.31,232,641.15Zm.19-20.54a12.22,12.22,0,0,1-1.68.91,30,30,0,0,1-3.13,1.22,107.45,107.45,0,0,1-14.28,3.34c-4.92.86-9.9,1.55-14.91,2.11a570.21,570.21,0,0,1-60.67,3.13,568.65,568.65,0,0,1-60.71-2.69c-5-.53-10-1.15-15-2a111.8,111.8,0,0,1-14.43-3.16,21.35,21.35,0,0,1-5.84-2.58l-.25-.21a13.05,13.05,0,0,1,1-2.29c1.71-3.22,3.66-6.57,5.58-9.91,9.91,2.6,19.65,3.78,29.45,4.84a581.65,581.65,0,0,0,60.14,2.52,580.6,580.6,0,0,0,60.07-3.25,209,209,0,0,0,26.82-4.54c2.22,3.75,4.69,7.36,6.84,10.79C231.55,619.48,231.91,620.1,232.18,620.61Zm.9-22.94a9.67,9.67,0,0,1-1.08.61,39.28,39.28,0,0,1-6.42,2.33c-9.19,2.51-19.07,3.75-28.84,4.81a576.92,576.92,0,0,1-59.28,2.51,575.23,575.23,0,0,1-59.22-3.16c-9.73-1.15-19.59-2.51-28.64-5.08a32.47,32.47,0,0,1-6.13-2.3c-.18-.08-.34-.18-.5-.27.36-.55.8-1.16,1.25-1.76.7-.93,1.45-1.88,2.21-2.84l3.43-4.33c3.79,1,7.56,1.75,11.34,2.42,5.07.87,10.14,1.63,15.22,2.2a579,579,0,0,0,61,3.28,569.41,569.41,0,0,0,61-2.88q7.62-.81,15.27-2.07c4.24-.71,8.49-1.55,12.78-2.71a42,42,0,0,1,6.38,8.79ZM232.21,577a23.8,23.8,0,0,1-5.72,2.45,111.61,111.61,0,0,1-14.22,3.21q-7.32,1.23-14.77,2.05a575.5,575.5,0,0,1-60.1,3.08,568.6,568.6,0,0,1-60.14-2.62c-5-.51-9.93-1.12-14.83-1.89a113.29,113.29,0,0,1-14.35-3A26.15,26.15,0,0,1,42,577.78a4.43,4.43,0,0,1-.66-.5l0-.14a9.73,9.73,0,0,1,.59-1.31c1-2,2.41-4.17,3.72-6.29l2.86-4.63a569.78,569.78,0,0,0,87.67,6.81,568.9,568.9,0,0,0,89.7-7.14c1.91,3.94,4.08,7.79,5.8,11.32Zm10.92-40.67-9.18,11-4.58,5.51-1.15,1.38c-.39.48-.73.85-1.24,1.52a14.76,14.76,0,0,0-1.38,2.2,562.23,562.23,0,0,1-176.43.37,16.11,16.11,0,0,0-1.32-2.17c-.22-.31-.46-.61-.71-.91l-.6-.7-1.17-1.37-4.69-5.49-9.37-11-9.38-11-1.09-1.28,6.1,2.22,15.27,4.81,15.51,4,15.68,3.33a348.3,348.3,0,0,0,127.62.29l15.69-3.28,15.53-4,15.3-4.76,4.64-1.67ZM256.26,503l.37,12.78v.41a4.58,4.58,0,0,1,0,.53l-11.28,3.65-15.13,4.16L215,528.14l-15.4,2.92a370.26,370.26,0,0,1-124.73-.22l-15.39-3-15.25-3.66L29.1,520l-11.88-3.9v-.28l.21-13.68Zm6.49-94.55.1,8.71c0,2.88,0,5.55-.19,8.33a93,93,0,0,1-2.5,16.33,87.56,87.56,0,0,1-13.61,29.95,75.46,75.46,0,0,1-21.06,20.41l-169.29.64a6.24,6.24,0,0,0-1.29-.88c-9.27-4.71-17.44-12.26-24-20.93a86.47,86.47,0,0,1-14.29-29.29,92.8,92.8,0,0,1-2.94-16.24c-.26-2.77-.36-5.45-.42-8.34l-.14-8.71-.49-30.72,249.78,1.42ZM230,348.84l4.58,0,2.3,0H238l1,.06a23.18,23.18,0,0,1,7.38,1.47,27.09,27.09,0,0,1,3.44,1.53,28.49,28.49,0,0,1,3.13,2.1,23.8,23.8,0,0,1,5.17,5.43,25.79,25.79,0,0,1,3.28,6.71c.15.62.32,1.23.47,1.84l-158.16.9L60.51,358.38l84.58-10.1,66.53.44ZM172.3,333.73,30.06,352.66a16.58,16.58,0,0,1-13.29-28.79,16.07,16.07,0,0,1,6-3.46c.57-.13,1.11-.33,1.69-.44s1.06-.2,1.8-.29l4.45-.53L102,310.6c47.49-5.72,95-11.34,142.45-17.3a15.39,15.39,0,0,1,12.27,26.6,14.92,14.92,0,0,1-5.52,3.25c-.52.13-1,.33-1.56.43l-.8.14a8.34,8.34,0,0,1-.9.15l-4.45.57Q207.86,329,172.3,333.73Z"/>
      </g>
    </g>
  </g>
</svg>
