<svg xmlns="http://www.w3.org/2000/svg" viewBox="0 0 423.72 720">
  <defs>
    <style>
      .cls-1 {
        fill: #494546;
      }
    </style>
  </defs>
  <title>Asset 8</title>
  <g id="Layer_2" data-name="Layer 2">
    <g id="Layer_1-2" data-name="Layer 1">
      <g>
        <path class="cls-1" d="M421.45,179.46A206.11,206.11,0,0,0,410.7,138,212.3,212.3,0,0,0,13,138,205.18,205.18,0,0,0,2.27,179.46,209.42,209.42,0,0,0,.34,222.21c.29,3.55.51,7.12.87,10.67l1.43,10.6c.59,3.5,1.23,7,1.89,10.46S6,260.87,6.82,264.3a318.11,318.11,0,0,0,12.57,40.4,403.15,403.15,0,0,0,17.23,38.43L39,347.77c.78,1.54,1.7,3.19,2.54,4.78,1.77,3.16,3.64,6.23,5.57,9.2,3.86,5.95,7.83,11.64,11.7,17.31s7.53,11.38,11,17.21,6.5,11.84,9.38,17.94a218.79,218.79,0,0,1,13.18,38.27q1.11,4.86,1.85,9.84.38,2.48.66,5l.27,2.51.35,2.67.69,5.34c.28,1.78.69,3.55,1,5.32l.54,2.66c.19.88.47,1.75.7,2.63.51,1.75.94,3.51,1.52,5.24a70.78,70.78,0,0,0,10,19.72,56.07,56.07,0,0,0,6.67,7.3l-5.82.09a93.3,93.3,0,0,0-1.24,18.7,21.32,21.32,0,0,0,7.71,13.93,13.38,13.38,0,0,0-1.17,1.42,13.23,13.23,0,0,0-2,10.07,14.24,14.24,0,0,0,3.53,6.66c-.2.23-.42.42-.59.65a10.22,10.22,0,0,0-1.9,4.42,8.17,8.17,0,0,0-.14,1.2l0,.6v5.08a12.45,12.45,0,0,0,.51,4.24,10,10,0,0,0,1.26,2.56,9.19,9.19,0,0,0-.65.75,11.32,11.32,0,0,0-2.13,4.92,10,10,0,0,0-.16,1.34l0,.66v.39l0,4.7a13.83,13.83,0,0,0,.57,4.61,11.16,11.16,0,0,0,2.11,3.76,10.85,10.85,0,0,0-1.73,4.22,9,9,0,0,0-.14,1.26l0,.62v5.08A12.7,12.7,0,0,0,115,627a10.87,10.87,0,0,0,1.38,2.77,4.47,4.47,0,0,0-.34.4,11.32,11.32,0,0,0-2.13,4.92,8.72,8.72,0,0,0-.15,1.34l0,.66v5.09a13.57,13.57,0,0,0,.57,4.61,11.43,11.43,0,0,0,8.87,7.81l11.19,16.61.45.67.6.83a19.83,19.83,0,0,0,1.35,1.54,18.47,18.47,0,0,0,5.44,3.89q13.44,15.79,27.3,31.24l3.48,3.91c.24.27.75.82,1.14,1.2s.87.8,1.33,1.18a19.41,19.41,0,0,0,2.92,1.93,20.43,20.43,0,0,0,6.53,2.17,23.24,23.24,0,0,0,3.36.23h2.62l21,0,21-.05,2.62,0a21.62,21.62,0,0,0,3.34-.26,20.3,20.3,0,0,0,6.47-2.19,19.59,19.59,0,0,0,2.89-1.92c.45-.38.89-.76,1.31-1.17s.88-.91,1.12-1.19l3.48-3.92,26.21-29.69a20,20,0,0,0,4-2,19.1,19.1,0,0,0,3.29-2.68c.5-.51,1-1.06,1.42-1.62l.64-.87.45-.66c4.07-6,8-12.11,11.66-18.43a10.66,10.66,0,0,0,7.08-8.28,7.34,7.34,0,0,0,.13-1.23l0-.61V638.1a12.72,12.72,0,0,0-.52-4.31,10.79,10.79,0,0,0-1.32-2.6c.18-.21.38-.4.54-.62a11.28,11.28,0,0,0,2.13-4.94,12.12,12.12,0,0,0,.15-1.35l0-.66v-.39l0-4.69a13.82,13.82,0,0,0-.58-4.6,11.46,11.46,0,0,0-2-3.57,10.8,10.8,0,0,0,1.81-4.4,9.14,9.14,0,0,0,.14-1.27l0-.63V599a13.21,13.21,0,0,0-.55-4.43,10.81,10.81,0,0,0-1.41-2.77,4.09,4.09,0,0,0,.28-.33,11.31,11.31,0,0,0,2.12-4.94,10.32,10.32,0,0,0,.15-1.35l0-.66v-2l0-3.13a14.07,14.07,0,0,0-.59-4.59A11.53,11.53,0,0,0,306.2,570a13.25,13.25,0,0,0,2.53-5.24,12.91,12.91,0,0,0-1.63-9.54c-.14-.23-.32-.41-.47-.63a23.07,23.07,0,0,0,5.2-5.54,21.7,21.7,0,0,0,3.53-9.46c.07-.83.12-1.74.15-2.52v-1.88l0-3.78,0-7.54v-.08a5.7,5.7,0,0,0-5.74-5.66h-.1c1.43-1.52,2.77-3.13,4.06-4.76a70.48,70.48,0,0,0,10-19.72c.59-1.73,1-3.49,1.52-5.24.24-.88.52-1.75.71-2.63l.54-2.66c.34-1.77.75-3.54,1-5.32l.7-5.34.35-2.67.27-2.51c.19-1.67.41-3.33.65-5,.5-3.31,1.12-6.6,1.86-9.84a219.08,219.08,0,0,1,13.18-38.27c2.88-6.1,5.92-12.12,9.38-17.94s7.09-11.54,11-17.2,7.84-11.37,11.7-17.32c1.93-3,3.8-6,5.57-9.2.84-1.58,1.76-3.23,2.54-4.77l2.36-4.64a403.32,403.32,0,0,0,17.23-38.44,319.78,319.78,0,0,0,12.58-40.4c.86-3.43,1.52-6.91,2.28-10.36s1.3-7,1.89-10.46l1.43-10.6c.36-3.55.58-7.12.87-10.67A209.42,209.42,0,0,0,421.45,179.46ZM122.35,580.38v-2.14a2.09,2.09,0,0,1,0-.35,2.78,2.78,0,0,1,.55-1.27,3,3,0,0,1,2.42-1.22l50.05.14,50.05.34,50,.4,12.52.1,6.25,0,3.13,0h1.13a2.88,2.88,0,0,1,.42.11,2,2,0,0,1,1.19,1.26,45.17,45.17,0,0,1,0,4.72v2l0,.12a.71.71,0,0,1,0,.21,1.86,1.86,0,0,1-.33.75,1.83,1.83,0,0,1-1.44.77l-100.09.81-50,.3-12.51,0-9.38,0h-.79c-.3,0-.28,0-.44,0a2.58,2.58,0,0,1-.67-.14,3,3,0,0,1-1.91-1.91C122.24,585.08,122.4,582.34,122.35,580.38Zm178.42,21.73v2.11a1.26,1.26,0,0,1,0,.28,2.16,2.16,0,0,1-.45,1,2.39,2.39,0,0,1-1.92,1l-100.09-.4-50-.11-12.51,0-9.38,0H125.2a1.79,1.79,0,0,1-.4-.09,1.87,1.87,0,0,1-1.14-1.17,36.65,36.65,0,0,1-.11-4.69v-2.08a.75.75,0,0,1,0-.21,1.59,1.59,0,0,1,.32-.76,1.85,1.85,0,0,1,1.46-.77l100.1-.28,50-.19,12.52,0,6.25,0h4.3a2.59,2.59,0,0,1,.54.11,2.45,2.45,0,0,1,1.55,1.54C300.87,597.34,300.74,600.18,300.77,602.11Zm-2.12-35.86a7.24,7.24,0,0,1-4.13,1.31L267,567.31,211.83,567l-55.2-.13-27.45-.07a6.51,6.51,0,0,1-3.65-1.24,5.38,5.38,0,0,1-1.91-2.76,4.83,4.83,0,0,1,.28-3.19,6.62,6.62,0,0,1,1.26-1.87,24.13,24.13,0,0,0,2.89.77l2.29.32,2.3.12,3.78,0,15.09.09,60.35.33,60.35.34,15.09.08,3.78,0,2.38-.1,2.37-.32a25,25,0,0,0,3.9-1.06,5.26,5.26,0,0,1,.66.93,5.05,5.05,0,0,1,.55,3.74A5.88,5.88,0,0,1,298.65,566.25ZM122.93,624.42c-.22-.17-.1-3-.14-4.93v-2l0-.17a1,1,0,0,1,0-.29,2.3,2.3,0,0,1,.47-1.09,2.6,2.6,0,0,1,2.06-1l100.1.31,50,.25,12.52.06,6.25,0,3.13,0h.78a.6.6,0,0,1,.23,0h.11a2,2,0,0,1,.42.1,1.92,1.92,0,0,1,1.17,1.22,45.18,45.18,0,0,1,.06,4.71v2l0,.12a.71.71,0,0,1,0,.21,1.86,1.86,0,0,1-.33.75,1.82,1.82,0,0,1-1.44.76L198.26,626l-50,.14-12.51,0-9.38,0h-1.19a3.48,3.48,0,0,1-.56-.12A2.61,2.61,0,0,1,122.93,624.42ZM247.11,703l-3.53,3.87a8.06,8.06,0,0,1-.69.71,7.16,7.16,0,0,1-.65.57,10.42,10.42,0,0,1-1.48,1,10.69,10.69,0,0,1-3.43,1.1,12.35,12.35,0,0,1-1.89.12l-2.62,0-21,0-21,0h-2.62a13.28,13.28,0,0,1-1.87-.13,10.53,10.53,0,0,1-4.82-2.07c-.22-.18-.44-.36-.64-.56s-.32-.32-.67-.7l-3.52-3.88q-10.31-11.42-20.86-22.62l4.87,0,51.09.42,51.08.15h4.47Zm35-36.84-.46.64-.32.41a8.53,8.53,0,0,1-.7.77,10.79,10.79,0,0,1-5.75,2.95,13.79,13.79,0,0,1-2.33.18h-3.19l-6.39,0-51.08.14-51.09.42-6.38.06-3.2,0a14.89,14.89,0,0,1-2.46-.14,12.16,12.16,0,0,1-4.42-1.63,11,11,0,0,1-1.82-1.42c-.28-.27-.53-.55-.78-.84l-.35-.45-.46-.64-8.55-11.86h3.35l12.51,0,50-.22,93-.62Q286.53,659.94,282.08,666.15Zm19.07-24.93v2l0,.17a1.66,1.66,0,0,1,0,.32,2.6,2.6,0,0,1-.53,1.17,2.79,2.79,0,0,1-2.22,1.1l-100.09-.68-50-.21-12.51,0-9.38,0H125.2a1.37,1.37,0,0,1-.4-.09,1.92,1.92,0,0,1-1.15-1.15,37.77,37.77,0,0,1-.1-4.7V637a.75.75,0,0,1,0-.21,1.59,1.59,0,0,1,.32-.76,1.88,1.88,0,0,1,1.46-.77c33.37,0,66.73-.28,100.1-.47l50-.32,12.52-.07,6.25,0,3.13,0h1.2a2.61,2.61,0,0,1,.63.13,2.79,2.79,0,0,1,1.79,1.78C301.26,636.5,301.11,639.27,301.15,641.22Zm3-102.88a11.41,11.41,0,0,1-5.31,8.18,14.14,14.14,0,0,1-5,2l-1.37.2-1.38.07-3.76,0-15.09.09-60.35.33-60.35.34-15.09.08-3.76,0-1.47,0-1.45-.19a15.12,15.12,0,0,1-5.37-2.07,12.55,12.55,0,0,1-6-8.9l-.08-1.35,0-1.42c0-.94-.12-1.87-.24-2.8-.24-1.86-.66-3.79-1.08-5.9l96.82,1.57q45.29.67,90.34,1v1.85l0,3.78v1.88ZM185.78,439.58a52.66,52.66,0,0,0-1.78-7.69c-.81-2.44-1.6-4.67-2.23-6.94-1.24-4.47-1.9-9.09-.8-12.89a11.43,11.43,0,0,1,2.9-4.83,13.78,13.78,0,0,1,2.4-1.74l3.3-2a29.32,29.32,0,0,0,9-9.89,41.62,41.62,0,0,0,4.92,1.23,44.57,44.57,0,0,0,8,.74,39.49,39.49,0,0,0,8-.71,32.93,32.93,0,0,0,4.79-1.21,32,32,0,0,0,7.21,8.64,19.52,19.52,0,0,0,3.34,2.25l1.39.83,1.2.69a11.45,11.45,0,0,1,3.48,3.77c1.68,3,1.79,7,1.08,11a51.27,51.27,0,0,1-1.55,6.15c-.64,2.1-1.42,4.1-2.12,6.56a70.86,70.86,0,0,0-2.1,14,112.06,112.06,0,0,0,2.06,27.69l1.4,6.62c.42,2.15.78,4.33,1.07,6.52.62,4.38,1,8.82,1.22,13.26.3,5.69.33,11.42.21,17.13l-11.54.14c-.21-4.14-.42-8.28-.54-12.42-.3-7.31-.49-14.63-.47-21.92,0-3.64.09-7.28.17-10.91l.22-5.43.19-2.7.09-1.34c0-.49.07-.8.08-1.5a12.57,12.57,0,0,0-1.88-7,16.07,16.07,0,0,0-4.78-4.89,22.82,22.82,0,0,0-24.48,0,15.87,15.87,0,0,0-4.79,4.89,12.54,12.54,0,0,0-1.88,7c0,.7.05,1,.08,1.5l.09,1.34.19,2.7.22,5.43c.08,3.63.14,7.27.16,10.91,0,7.29-.16,14.61-.46,21.92-.13,4.32-.34,8.64-.57,13l-11.51.18c-.18-6.84-.09-13.72.34-20.52a142.17,142.17,0,0,1,1.62-14.48c.18-1.19.41-2.37.66-3.55l.75-3.6c.55-2.47,1-5,1.39-7.47A102,102,0,0,0,185.78,439.58Zm32.25-63a57.72,57.72,0,0,0,3.71,12.08c-1,.18-2.08.35-3.13.44a54.75,54.75,0,0,1-7.13.35,71.81,71.81,0,0,1-7.17-.42c-1.1-.12-2.19-.27-3.28-.45a58,58,0,0,0,3.83-12.78,58.62,58.62,0,0,0,.69-15.78,38.31,38.31,0,0,0-4.78-15.65,27.25,27.25,0,0,1-2.68-5.89,15.24,15.24,0,0,1-.6-2.86l0-.64c0-.19,0-.29,0-.44a2.93,2.93,0,0,1,.21-.77,3.63,3.63,0,0,1,2.66-2.1c.15,0,.29-.05.44-.05s.26,0,.63,0l5.57,0,14.84.11a3.61,3.61,0,0,1,2.72,1.31,2.89,2.89,0,0,1,.62,1.25,3.15,3.15,0,0,1,.06.75,10.49,10.49,0,0,1-.11,1.2,20.2,20.2,0,0,1-1.74,5.33c-.41.89-.89,1.8-1.38,2.63l-.18.29-.15.23-.11.23-.44.89-.86,1.8A43,43,0,0,0,217,362.19,56.82,56.82,0,0,0,218,376.59Zm6.59-13.91A35.39,35.39,0,0,1,227.41,351l.61-1.25.3-.63.07-.16.09-.12.27-.43a37,37,0,0,0,1.82-3.32,27.91,27.91,0,0,0,2.52-7.48,16.76,16.76,0,0,0,.23-2.17,11.34,11.34,0,0,0-.17-2.62,11.16,11.16,0,0,0-2.22-4.82,11.34,11.34,0,0,0-3.45-2.87l19.42-75.31c1.59-6,3.42-12.13,4.67-18.48q4.6.54,9.2.81a19.07,19.07,0,0,1,5.19.71,11.33,11.33,0,0,1,4,2.24,11.21,11.21,0,0,1,4,8,12.13,12.13,0,0,1-.77,4.58c-.77,2-1.5,4-2.19,6.11s-1.33,4.13-1.91,6.25-1.09,4.36-1.54,6.33c-.91,4.07-1.89,8.17-2.86,12.26l-6,24.55-11.86,49.16L241,377q-2.42,10.13-4.74,20.28a2.67,2.67,0,0,1-.36-.32,28.26,28.26,0,0,1-6.91-9.65,48.09,48.09,0,0,1-3.66-12A49.57,49.57,0,0,1,224.62,362.68Zm21-143.8a72,72,0,0,1-1,9.62c-1,6.49-2.8,12.85-4.45,19.56-6.09,25.16-11.6,50.37-17,75.64a11.44,11.44,0,0,0-1.43-.09l-14.84.1-3.71,0h-1.86c-.24,0-.75,0-1.22.05l-.48.06c-5.08-25.4-10.52-50.69-16.63-75.92l-2.48-9.84c-.78-3.24-1.47-6.46-2-9.67a73.29,73.29,0,0,1-1.05-9.57,46.18,46.18,0,0,1,0-4.71c0-.79.12-1.56.18-2.33,0-.39.1-.77.14-1.15l.08-.58,0-.28a1.06,1.06,0,0,1,0-.14,1.87,1.87,0,0,1,.92-1.3,2.41,2.41,0,0,1,1.8-.26,3.19,3.19,0,0,1,1,.47,19.34,19.34,0,0,0,2.79,1.6,21.58,21.58,0,0,0,6,1.78,34,34,0,0,0,5.7.3l5.08,0,10.17,0,10.18,0,5.08,0a33,33,0,0,0,5.68-.34,21.76,21.76,0,0,0,5.91-1.8,19.79,19.79,0,0,0,2.74-1.6,3.65,3.65,0,0,1,1-.51,2.67,2.67,0,0,1,2,.26,2.62,2.62,0,0,1,1.12,1.91l.08.57c0,.39.11.77.14,1.16.07.78.16,1.55.19,2.34C245.71,215.71,245.67,217.29,245.65,218.88Zm-59.84,70.31,5.2,19.67c1.46,5.48,2.92,11,4.42,16.43a11.19,11.19,0,0,0-5,5.67,10.77,10.77,0,0,0-.67,2.81,11.44,11.44,0,0,0,0,1.42l.08,1.2a22,22,0,0,0,1,4.39,35,35,0,0,0,3.54,7.55,30.81,30.81,0,0,1,3.92,12.48,52.14,52.14,0,0,1-4.43,27c-1.93,4.07-4.59,7.83-7.92,10.09q-2.26-10.27-4.64-20.54l-5.65-24.47L164,304l-5.84-24.41-2.82-12.17c-.44-2-.94-4.24-1.53-6.29s-1.23-4.17-1.91-6.21-1.41-4.06-2.17-6.06a12.3,12.3,0,0,1-.8-4.56A11.76,11.76,0,0,1,156.78,234a6.8,6.8,0,0,1,1.11-.34,5.09,5.09,0,0,1,1.16-.24c.42,0,.72-.15,1.26-.18l1.57-.12c3.07-.25,6.14-.57,9.21-1.05,1.22,6.13,3,12.1,4.49,17.82Zm13.55,184.36-.17-5.59-.16-2.8-.09-1.41c0-.43-.07-1-.05-1.25-.1-2.34,1.43-4.73,3.89-6.31a16.89,16.89,0,0,1,17.34,0c2.46,1.59,4,4,3.9,6.32,0,.22,0,.82-.06,1.25l-.08,1.41-.17,2.8-.17,5.59c-.08,3.72,0,7.43.06,11.13.3,11.5,1.08,22.93,2.25,34.33-5.31.07-10.63.12-15.93.2l-12.88.2q.63-6.28,1.15-12.58c.53-7.36.93-14.74,1.12-22.15l.1-5.56Zm211.43-252c-.24,3.34-.41,6.7-.72,10l-1.25,10c-.53,3.33-1.11,6.67-1.71,10s-1.3,6.65-2.1,9.94a305.58,305.58,0,0,1-11.73,39A392.18,392.18,0,0,1,376.87,338l-2.3,4.64c-.77,1.56-1.53,2.94-2.3,4.42q-2.37,4.33-5.1,8.61c-3.62,5.72-7.55,11.4-11.39,17.24s-7.59,11.84-11.08,18-6.65,12.54-9.57,19a228,228,0,0,0-13.21,40.4q-1.12,5.28-1.84,10.61c-.23,1.77-.44,3.54-.61,5.32l-.25,2.66-.28,2.48-.57,5c-.23,1.65-.59,3.26-.87,4.89l-.45,2.45c-.16.81-.41,1.59-.61,2.39-.43,1.58-.8,3.19-1.28,4.76a62.17,62.17,0,0,1-8.32,17.39,42.69,42.69,0,0,1-6.28,7,30.13,30.13,0,0,1-3.64,2.77c-.12.09-.24.15-.36.23q-24.75.18-49.46.47c.21-5.76.27-11.51.06-17.29-.18-4.57-.47-9.15-1-13.72q-.39-3.44-1-6.86l-1.28-6.65A106,106,0,0,1,242.28,448a64.41,64.41,0,0,1,2.1-12.7c.56-1.88,1.43-4.09,2.15-6.29a56.19,56.19,0,0,0,1.86-6.95,30.81,30.81,0,0,0,.56-7.56,19,19,0,0,0-2.12-7.84l-1.08-1.82-1.34-1.62a8.82,8.82,0,0,0-1.48-1.45c-.53-.44-1.05-.9-1.59-1.31l-.55-.33q6.39-23,12.54-46.14L266.16,305l6.15-24.56c1-4.1,2-8.19,3-12.35.49-2.13.91-4,1.48-5.94s1.17-3.89,1.83-5.83,1.37-3.87,2.11-5.79a20.27,20.27,0,0,0,1.34-7.78,19.08,19.08,0,0,0-6.85-14,17.53,17.53,0,0,0-7.08-3.64,22.48,22.48,0,0,0-7.35-.47c-2.72.16-5.45.39-8.17.68a57.69,57.69,0,0,0,0-17.21,9.81,9.81,0,0,0-4.62-6.6,10.31,10.31,0,0,0-7.83-1.14,11.3,11.3,0,0,0-3.54,1.64A12.13,12.13,0,0,1,235,203a13.73,13.73,0,0,1-3.8,1.11,25.71,25.71,0,0,1-4.47.21l-5.08,0-10.18,0-10.17,0-5.08,0a25.17,25.17,0,0,1-4.45-.24,13.32,13.32,0,0,1-3.75-1.14,11.07,11.07,0,0,1-1.61-.93,11.62,11.62,0,0,0-3.6-1.69,10.6,10.6,0,0,0-8,1.12,10,10,0,0,0-4.76,6.76l-.1.49,0,.34-.09.69c-.05.45-.13.91-.16,1.37-.07.91-.18,1.83-.2,2.74-.11,1.83-.08,3.65,0,5.46a73.91,73.91,0,0,0,.77,7.79c-2.77-.41-5.54-.7-8.31-.92l-1.57-.12c-.51-.05-1.26,0-1.88,0a18.52,18.52,0,0,0-3.89.57,17.21,17.21,0,0,0-7,3.63,19.18,19.18,0,0,0-6.72,14,20.38,20.38,0,0,0,1.36,7.73c.73,1.91,1.43,3.82,2.09,5.75s1.27,3.85,1.81,5.78,1,3.78,1.47,5.9c.94,4.13,2,8.19,3,12.26l6.2,24.37q6.35,24.32,12.92,48.56c2.17,8.09,4.47,16.14,6.7,24.22q3,10.74,6.05,21.46a25.35,25.35,0,0,0-3.11,2.43,17.91,17.91,0,0,0-4.55,7.8,23,23,0,0,0-.59,8.52,42.06,42.06,0,0,0,1.6,7.84c.73,2.49,1.62,4.92,2.41,7.17a46.94,46.94,0,0,1,1.65,6.73,96,96,0,0,1,.11,28.67c-.33,2.39-.72,4.78-1.21,7.15l-.71,3.67c-.26,1.25-.48,2.5-.65,3.75a147.18,147.18,0,0,0-1.47,15c-.33,7-.34,13.94-.06,20.9l-44.36.71a3.66,3.66,0,0,0-.74-.37l-.32-.12c-.3-.11-1.11-.49-1.7-.79s-1.29-.69-1.91-1.14a31.78,31.78,0,0,1-3.64-2.77,42.67,42.67,0,0,1-6.27-7,61.62,61.62,0,0,1-8.32-17.39c-.49-1.56-.85-3.18-1.29-4.76-.2-.8-.45-1.58-.6-2.39l-.46-2.45c-.28-1.63-.64-3.24-.87-4.89l-.56-5-.29-2.48-.24-2.66c-.18-1.78-.38-3.55-.62-5.32-.48-3.55-1.08-7.09-1.83-10.61A228.88,228.88,0,0,0,88.58,410c-2.92-6.47-6-12.87-9.56-19s-7.23-12.17-11.09-18-7.77-11.52-11.39-17.23c-1.81-2.86-3.52-5.73-5.1-8.62-.77-1.48-1.53-2.86-2.3-4.41L46.84,338a390,390,0,0,1-16.41-37.52,307.25,307.25,0,0,1-11.74-39c-.79-3.29-1.39-6.63-2.09-9.94s-1.18-6.68-1.71-10l-1.25-10c-.31-3.34-.48-6.69-.73-10A198.5,198.5,0,0,1,133.68,29.78,199.35,199.35,0,0,1,398.39,142.64,197.81,197.81,0,0,1,410.79,221.53Z"/>
        <path class="cls-1" d="M355.32,91.59a188,188,0,0,0-286.91,0,185.21,185.21,0,0,0-37.56,71.26A181.67,181.67,0,0,0,27.6,242.8l-1.05-10c-.23-3.33-.34-6.67-.52-10s0-6.68,0-10,.35-6.65.51-10a181.27,181.27,0,0,1,7.42-39.09,186,186,0,0,1,355.87,0,181.9,181.9,0,0,1,7.43,39.09c.15,3.33.46,6.65.5,10s.06,6.67,0,10-.29,6.67-.51,10l-1.05,10a181.81,181.81,0,0,0-3.24-79.94A185.38,185.38,0,0,0,355.32,91.59Z"/>
      </g>
    </g>
  </g>
</svg>
