<svg xmlns="http://www.w3.org/2000/svg" viewBox="0 0 372.61 720">
  <defs>
    <style>
      .cls-1 {
        fill: #494546;
      }
    </style>
  </defs>
  <title>Asset 6</title>
  <g id="Layer_2" data-name="Layer 2">
    <g id="Layer_1-2" data-name="Layer 1">
      <g>
        <path class="cls-1" d="M94.62,424.73c-.67-4-1.44-8-2.23-11.91s-1.52-7.94-2.37-11.89L87.38,389.1l-2.86-11.79c-1-3.93-2.11-7.82-3.17-11.72s-2.25-7.78-3.47-11.65l-1.83-5.79-2-5.74L72,336.69,69.67,331c-.81-1.86-1.54-3.75-2.4-5.59L64.58,320l-1.37-2.72c-.47-.9-1-1.75-1.56-2.62l-3.24-5.14,2.35,5.58c.39.93.83,1.83,1.17,2.77l1,2.85,2,5.67c.64,1.9,1.16,3.85,1.74,5.77l1.75,5.74,1.54,5.81,1.58,5.8L73,355.33c1.92,7.79,3.78,15.59,5.52,23.43l2.64,11.74,2.49,11.79q2.56,11.77,4.92,23.6c1.71,7.86,3.18,15.77,4.86,23.64l9.71,47.37a475,475,0,0,0-4.69-48.24C97.33,440.66,96,432.69,94.62,424.73Z"/>
        <path class="cls-1" d="M298.59,342.41l-2,5.74-1.83,5.79c-2.54,7.71-4.54,15.55-6.64,23.37-1,3.92-1.91,7.86-2.86,11.79l-2.65,11.83c-.86,3.95-1.58,7.93-2.38,11.89s-1.55,7.93-2.23,11.91-1.37,8-2,11.95-1.28,8-1.8,12a469.28,469.28,0,0,0-4.68,48.24l9.72-47.37c1.68-7.87,3.14-15.78,4.85-23.63s3.22-15.75,4.92-23.61l2.48-11.79c.88-3.91,1.81-7.82,2.64-11.75,1.74-7.83,3.6-15.64,5.52-23.42l1.45-5.84,1.58-5.8,1.54-5.82,1.76-5.74c.58-1.91,1.09-3.86,1.73-5.76l2-5.67,1-2.85c.34-1,.79-1.84,1.18-2.77l2.35-5.58c-2.08,3.43-4.51,6.78-6.16,10.48l-2.69,5.47c-.87,1.84-1.6,3.73-2.4,5.6l-2.3,5.64Z"/>
        <path class="cls-1" d="M368.49,146.67a184,184,0,0,0-17.14-47.2A186.53,186.53,0,0,0,186.43,0C152.69.11,118.87,9.2,90,26.74A188,188,0,0,0,21.38,99.25,184.75,184.75,0,0,0,4.17,146.42,187.69,187.69,0,0,0,.26,196.31a183,183,0,0,0,28.37,87.61l-.24.11a4.8,4.8,0,0,0-1.8,6.55l.11.19h0c6,10.12,10.31,21.73,14.16,33.37S48,347.78,51,359.8c6,24.05,11,48.44,15.44,72.93s8.28,49.1,12,73.73L81.13,525l1.31,9.27a71.21,71.21,0,0,0,2.17,9.89,64.82,64.82,0,0,0,22.15,33c-.14,1.84-.27,3.68-.37,5.54q-.19,3.64-.28,7.29l-.07,3.63V594l0,.63a8.85,8.85,0,0,0,.13,1.24,11.39,11.39,0,0,0,.68,2.41,11.22,11.22,0,0,0,6.65,6.27c-.07.33-.17.66-.23,1a38.48,38.48,0,0,0-.53,6.28,31.82,31.82,0,0,0,.73,6.41l.4,1.59a11.15,11.15,0,0,0,.77,2,11.6,11.6,0,0,0,2.69,3.46c.17.14.36.24.53.37a43.18,43.18,0,0,0-.33,6.73,37.38,37.38,0,0,0,.48,4.94c.14.83.31,1.65.51,2.47a11.33,11.33,0,0,0,1.14,3,11,11,0,0,0,3.07,3.47,31.89,31.89,0,0,0-.65,8.13,29.78,29.78,0,0,0,.78,5.48,11.11,11.11,0,0,0,1.39,3.4,11.1,11.1,0,0,0,2.54,2.84,9.24,9.24,0,0,0,1.06.7,34.64,34.64,0,0,0,0,6.36c.07.82.19,1.64.33,2.45.08.41.15.82.25,1.22s.17.77.35,1.34a9.73,9.73,0,0,0,7.1,6.56l2.25.47,4.41.89.11,0c4.52,8.2,9.43,16.12,14.52,23.93l2.1,3.16.57.85q.38.53.78,1a15.37,15.37,0,0,0,1.84,1.86A12.77,12.77,0,0,0,170,720l.71,0h1.44l15.17-.08,15.17-.19,1,0a10.64,10.64,0,0,0,1.34-.09,11.44,11.44,0,0,0,2.66-.62,13,13,0,0,0,4.49-2.74,15,15,0,0,0,1.7-1.88c.24-.32.51-.72.68-1l.51-.79,2.06-3.19q7.33-11.42,14.44-23l.34,0,4.41-.72,2.23-.37a10.74,10.74,0,0,0,3.4-1.27,10.37,10.37,0,0,0,4.48-5.49,16.1,16.1,0,0,0,.61-2.9,22.35,22.35,0,0,0,.18-2.57,25.63,25.63,0,0,0-.81-6.88,7.85,7.85,0,0,0,.78-.49,10.41,10.41,0,0,0,3.91-6,28,28,0,0,0,.65-5.52,35.23,35.23,0,0,0-.59-7,11.25,11.25,0,0,0,4.23-4.1,11.12,11.12,0,0,0,1-2.07c.13-.36.23-.73.33-1.1s.12-.6.18-.9a30.71,30.71,0,0,0,.41-3.39,32,32,0,0,0-.29-6.65,36.34,36.34,0,0,0-.76-3.59c.27-.2.56-.37.81-.59a11.11,11.11,0,0,0,2.59-3.35,10.47,10.47,0,0,0,.75-2.05l.33-1.62a29.08,29.08,0,0,0,.4-6.43,33.89,33.89,0,0,0-.88-6.23,12,12,0,0,0,6.59-6.51,11.81,11.81,0,0,0,.75-2.61,10.32,10.32,0,0,0,.15-1.35l0-.67v-.43l-.08-3.23c0-2.16-.12-4.31-.23-6.47-.12-2.52-.29-5-.49-7.55A65.91,65.91,0,0,0,287.77,544a70.4,70.4,0,0,0,2.14-9.86l1.32-9.26L294,506.44c3.78-24.63,7.93-49.2,12.69-73.62s10-48.75,16.3-72.68c3.16-12,6.59-23.83,10.6-35.39s8.53-23,14.49-32.63l.1-.15a7.3,7.3,0,0,0-2.82-10.25,183,183,0,0,0,27-85.15A186.9,186.9,0,0,0,368.49,146.67ZM211.11,705.49l-2.21,3.09-.55.77c-.19.27-.28.38-.43.57a6.74,6.74,0,0,1-.88.89,5.49,5.49,0,0,1-2,1.11,5.32,5.32,0,0,1-1,.19,4.94,4.94,0,0,1-.56,0l-1,0-15.17-.19-15.17-.07h-1.66a4.07,4.07,0,0,1-.95-.18,5.56,5.56,0,0,1-1.86-1,8.08,8.08,0,0,1-.84-.82l-.38-.48c-.1-.14-.33-.49-.5-.72l-2.16-3.11c-4.35-6.16-8.8-12.25-13.49-18.17l1.1.16a271.63,271.63,0,0,0,35.7,2.36,299.87,299.87,0,0,0,35.69-2.26l1.53-.21Q217.66,696.39,211.11,705.49Zm28.13-32.91c-.09.62-.18,1.22-.3,1.82a6.28,6.28,0,0,1-.36,1.38,2.38,2.38,0,0,1-1,1.18,2.56,2.56,0,0,1-.72.28l-2.12.36-4.29.73c-2.87.41-5.74.87-8.62,1.23a292.07,292.07,0,0,1-34.72,2.4,265.13,265.13,0,0,1-34.74-1.7c-2.87-.33-5.74-.72-8.6-1.15l-4.25-.73-2.1-.37a2.94,2.94,0,0,1-.95-.35,3.08,3.08,0,0,1-1.31-1.59c0-.12-.14-.48-.23-.79s-.14-.62-.22-.93c-.12-.63-.24-1.27-.32-1.91a27.68,27.68,0,0,1-.2-3.66l3.79.7q4.89.81,9.8,1.43,9.81,1.25,19.66,1.76c6.56.39,13.14.49,19.7.46a330.16,330.16,0,0,0,39.26-2.91c3.25-.44,6.5-.89,9.74-1.49l3.28-.58A33.91,33.91,0,0,1,239.24,672.58Zm5-14.47a3.58,3.58,0,0,1-1.37,2,3.82,3.82,0,0,1-1.07.49l-.31.07-.57.09-1.19.17-4.74.72c-3.15.51-6.34.86-9.53,1.26a323.73,323.73,0,0,1-38.36,2.33,291.26,291.26,0,0,1-38.29-2.34c-3.17-.41-6.32-.89-9.45-1.42-1.56-.29-3.14-.56-4.67-.88-1.91-.38-2.16-.44-2.76-.9a3.28,3.28,0,0,1-.68-.76,2.55,2.55,0,0,1-.25-.46,3.18,3.18,0,0,1-.2-.62,29.88,29.88,0,0,1-.79-4.11,42.17,42.17,0,0,1-.28-4.94c3,.6,6,1.14,9,1.63A302.2,302.2,0,0,0,175,653.8a326.72,326.72,0,0,0,36.49-.76c3-.17,6.06-.5,9.09-.79l4.54-.45,4.53-.58c3-.41,6-.72,9.06-1.25l4.54-.73,1.26-.2a27.51,27.51,0,0,1,.24,5A20.78,20.78,0,0,1,244.21,658.11ZM249.08,635a22.69,22.69,0,0,1-.42,2.49c0,.17-.09.45-.12.55a2,2,0,0,1-.11.32,2.88,2.88,0,0,1-.3.61,3.43,3.43,0,0,1-2.08,1.55l-.34.1,0,0-.08,0-.55.08-1.09.18-2.18.36-4.37.72c-2.9.52-5.87.84-8.81,1.25l-4.42.58-4.44.46c-3,.3-5.91.63-8.88.81a350.57,350.57,0,0,1-35.65,1,302.63,302.63,0,0,1-35.5-2.87c-2.94-.42-5.86-.88-8.76-1.41l-2.19-.42a4.46,4.46,0,0,1-.72-.19,2.2,2.2,0,0,1-.56-.2,4,4,0,0,1-1.76-1.59,4.2,4.2,0,0,1-.48-1.23c-.18-.63-.32-1.28-.45-1.94a31.46,31.46,0,0,1-.48-4c-.06-1.25,0-2.52,0-3.79l.11,0c1.9.35,3.79.64,5.69.95q5.69.86,11.38,1.51a381.57,381.57,0,0,0,45.7,2.29,421.17,421.17,0,0,0,45.6-2.92l5.67-.69,5.65-.85,5-.76A36.53,36.53,0,0,1,249.08,635Zm4.34-18.47-.26,1.15a2.79,2.79,0,0,1-.24.6,3.55,3.55,0,0,1-.88,1.08,4.65,4.65,0,0,1-1.34.77,4.08,4.08,0,0,1-.78.21l-.2,0-.35,0-.7.09-5.56.77-5.56.75-5.57.63a413.84,413.84,0,0,1-44.78,2.63,372.86,372.86,0,0,1-44.72-2.49c-3.7-.43-7.39-.95-11.06-1.52-1.83-.31-3.66-.6-5.48-.94l-1.28-.24a4.29,4.29,0,0,1-.72-.22,4.15,4.15,0,0,1-1.19-.72,3.29,3.29,0,0,1-.76-1,2.52,2.52,0,0,1-.24-.63l-.31-1.14a29.18,29.18,0,0,1-.69-4.81,30.12,30.12,0,0,1,.07-5c.05-.43.11-.87.15-1.31h.7l12.92.15,51.71.42L238,606l12.93,0H253c.05.23.11.46.16.68a26.39,26.39,0,0,1,.62,5A22.77,22.77,0,0,1,253.42,616.5Zm4.66-32.62c-.11,2.16-.19,4.31-.24,6.47l-.07,3.23v.51a1.17,1.17,0,0,1,0,.26,2.06,2.06,0,0,1-.15.48,2.44,2.44,0,0,1-1.49,1.29,2,2,0,0,1-.5.08h-4.63l-12.93,0-51.71.14-51.71.42-12.92.15-3.24,0H117a2.71,2.71,0,0,1-.69-.08,3.19,3.19,0,0,1-2.12-1.75,3.83,3.83,0,0,1-.21-.68,2.25,2.25,0,0,1-.06-.36v-.53l-.07-2.83c-.06-1.88-.16-3.75-.28-5.64-.26-3.77-.67-7.64-1.06-11.67,49,.6,97.52,1,146.26,1Q258.3,579.2,258.08,583.88Zm4.14-16.48c-50.23,0-100.69.4-150.68,1a55.53,55.53,0,0,1-12.43-16.27c13.11,1.93,26.17,3.1,39.32,3.89,15.95,1,31.93,1.27,47.89,1.17,8-.15,16-.18,23.93-.56,4-.18,8-.28,12-.51l11.94-.72q6-.33,11.93-.87l11.91-1q8-.84,15.92-1.76A55.44,55.44,0,0,1,262.22,567.4Zm18.65-43.91-1.19,9.3a60.52,60.52,0,0,1-1.71,8.45c-.2.74-.46,1.46-.69,2.19l-43.63,1.46c-15.81.44-31.61.75-47.41.84s-31.58,0-47.36-.41c-3.95-.11-7.9-.16-11.84-.33s-7.88-.23-11.82-.42c-6.55-.21-13.12-.59-19.61-1-.26-.8-.53-1.59-.75-2.39a60.34,60.34,0,0,1-1.69-8.42l-1.2-9.3-1.17-8.4c6.27,1.05,12.48,1.81,18.76,2.5,4.26.49,8.51.81,12.78,1.22l12.79.89,12.8.61,12.8.39c4.27.12,8.53.08,12.8.13s8.53.07,12.8,0c17.06-.15,34.1-.91,51.1-2,8.51-.54,17-1.33,25.48-2q9.58-1,19.16-2.13Zm39.39-203.21C316.31,332.4,313,344.61,310,356.85c-6,24.48-10.77,49.11-15.1,73.8s-8.11,49.44-11.57,74.24l-.26,1.93c-6.94.17-13.87.43-20.8.68l-25.38.81c-8.46.13-16.91.54-25.37.62l-12.67.26-12.68.12c-4.22,0-8.45.1-12.67.08s-8.45.06-12.67,0l-12.66-.08-12.66-.21c-8.43-.23-16.86-.43-25.28-.83-6.87-.27-13.78-.68-20.58-1.2l-.3-2.18c-3.52-24.79-7.7-49.48-12.26-74.11s-9.71-49.19-15.94-73.55c-3.13-12.18-6.54-24.32-10.68-36.3a208,208,0,0,0-12-28.75c10.35-1.19,20.9-2.07,31.38-2.78,12.88-.9,25.79-1.47,38.7-1.95,15.93-.54,31.87-.74,47.81-.74l3.16,156.09,3.16-156.1q10.23,0,20.46.18L186.3,390l3.1-103,16.2.34c1.42,0,2.85.09,4.27.14L213,439l3.14-151.36L225,288c12.93.39,25.85,1.18,38.77,1.83,6.46.3,12.91.8,19.37,1.22l19.36,1.33,27.63,2.31A228.29,228.29,0,0,0,320.26,320.28ZM338,280.57l-34.53-2.31-19.5-1c-6.51-.32-13-.72-19.51-.91-13-.44-26-1-39.05-1.2-6.51-.11-13-.3-19.53-.36l-19.54-.09c-26.05,0-52.1.52-78.14,1.83-13,.69-26,1.48-39,2.61-11.1.94-22.11,2-33.25,3.54-2.15-3.64-4.18-7.34-6.06-11.11,11.6-1.21,23.33-2.24,35-3,6.74-.45,13.46-1,20.21-1.33s13.48-.78,20.23-1,13.49-.57,20.24-.75,13.49-.5,20.24-.54l20.26-.34,20.25,0c6.75-.08,13.5.13,20.26.19s13.5.13,20.25.4l20.25.6c3.37.06,6.74.3,10.11.45l10.13.44c25.18,1.06,50.3,3.08,75.46,5.06C341.22,274.68,339.64,277.65,338,280.57Zm23.83-84.46a174.59,174.59,0,0,1-7.48,46.65,177.87,177.87,0,0,1-8.06,21.47c-5.81-.78-11.62-1.56-17.43-2.28-6.75-.83-13.49-1.79-20.27-2.41-13.54-1.26-27.08-2.66-40.66-3.49-27.14-2.1-54.37-2.77-81.59-3s-54.45.76-81.61,2.58c-6.79.42-13.58,1-20.36,1.56S70.77,258.43,64,259.1c-12.59,1.46-25.11,2.94-37.69,5a178.47,178.47,0,0,1,6.45-158.74A180.21,180.21,0,0,1,60.67,67.89c2.65-2.87,5.59-5.45,8.4-8.15l4.44-3.81L75.74,54l2.31-1.8A175.14,175.14,0,0,1,275.47,39.15a172.53,172.53,0,0,1,19.27,13.23l2.31,1.8,2.23,1.9c1.47,1.28,3,2.51,4.43,3.82,2.82,2.7,5.74,5.29,8.39,8.16A179.88,179.88,0,0,1,340,105.62,177.71,177.71,0,0,1,361.79,196.11Z"/>
        <path class="cls-1" d="M298.34,70.65a156.67,156.67,0,0,0-51.18-34.87,157.1,157.1,0,0,0-121.71,0A156.87,156.87,0,0,0,74.26,70.64a155.29,155.29,0,0,0-33.49,51.77,153,153,0,0,0-10.36,60.28l.44-7.64.81-7.6c.32-2.52.74-5,1.11-7.54s1-5,1.48-7.47a153.75,153.75,0,0,1,9.49-28.8,156.28,156.28,0,0,1,84.09-82.13,155.23,155.23,0,0,1,117,0,155.9,155.9,0,0,1,50,32.76,157.52,157.52,0,0,1,34.14,49.38,153.75,153.75,0,0,1,9.49,28.8c.48,2.49,1.05,5,1.47,7.47s.79,5,1.12,7.54l.8,7.6.44,7.64a153.18,153.18,0,0,0-10.37-60.28A155.25,155.25,0,0,0,298.34,70.65Z"/>
      </g>
    </g>
  </g>
</svg>
