<svg xmlns="http://www.w3.org/2000/svg" viewBox="0 0 373.13 720">
  <defs>
    <style>
      .cls-1 {
        fill: #494546;
      }
    </style>
  </defs>
  <title>Asset 9</title>
  <g id="Layer_2" data-name="Layer 2">
    <g id="Layer_1-2" data-name="Layer 1">
      <g>
        <path class="cls-1" d="M359.57,114.4a183.19,183.19,0,0,0-16.83-32.56A165.67,165.67,0,0,0,319.5,53.39a183.43,183.43,0,0,0-28.69-22.92c-2.58-1.64-5.25-3.14-7.88-4.71-1.33-.76-2.61-1.6-4-2.28l-4.09-2.07-4.09-2.07c-1.35-.7-2.72-1.38-4.14-2-2.81-1.2-5.6-2.45-8.42-3.61a193.41,193.41,0,0,0-143.27,0c-2.83,1.16-5.62,2.42-8.43,3.62l-2.09.92-2,1-4.09,2.07-4.09,2.07c-1.37.68-2.65,1.53-4,2.28-2.62,1.57-5.29,3.08-7.88,4.71A184.07,184.07,0,0,0,53.64,53.37,165.67,165.67,0,0,0,30.4,81.82a184.29,184.29,0,0,0-16.83,32.57A199.14,199.14,0,0,0,3.19,222.16a145.37,145.37,0,0,0,10.9,35.12l2,4.21,2.27,4.1,1.15,2.05,1.28,2,2.61,3.95c4,5.29,7.51,9.47,11.15,14,1.86,2.19,3.45,4.6,5.16,6.91s3.44,4.63,5,7c3.11,4.84,6.39,9.59,9.21,14.62a261.76,261.76,0,0,1,15.8,30.77,255.08,255.08,0,0,1,11.81,32.55,191.36,191.36,0,0,1,6.87,33.68c.18,1.41.23,2.77.29,4.14s.11,2.93.16,4.43c.15,3.06.36,6.13.78,9.18A89.7,89.7,0,0,0,91.3,440c.2.84.42,1.67.66,2.5-3.22-.62-6.42-1.29-9.59-2h0l-.28-.06a5.1,5.1,0,0,0-1-.08,5.31,5.31,0,0,0-5.25,5.37l.62,53,.38,53,.75,106a11.66,11.66,0,0,0,.49,3.06c.16.47.32,1,.51,1.4l.66,1.2a16.2,16.2,0,0,0,3.1,3.68A32.36,32.36,0,0,0,89,671.54a78.3,78.3,0,0,0,13.49,5.2,199.6,199.6,0,0,0,27.24,5.76q6.18.93,12.37,1.61,7.06,11.46,14.37,22.76A32.39,32.39,0,0,0,159,710.4a27.63,27.63,0,0,0,3.3,3.28,26.93,26.93,0,0,0,8.08,4.62,24.62,24.62,0,0,0,4.54,1.17,23.36,23.36,0,0,0,2.34.29c.39,0,.78,0,1.17.06l1.07,0,7.49.09,7.49,0c.67,0,1.14,0,2,0a20.77,20.77,0,0,0,2.36-.15,26.08,26.08,0,0,0,4.64-.91,26.68,26.68,0,0,0,8.47-4.17,27.19,27.19,0,0,0,6.45-6.87c.47-.71.76-1.23,1.07-1.76l.94-1.62,1.89-3.24,3.67-6.54c1.76-3.26,3.47-6.54,5.13-9.87q4.18-.4,8.39-.9a235.39,235.39,0,0,0,27.38-5,111.4,111.4,0,0,0,13.66-4.28,54.72,54.72,0,0,0,6.85-3.21,26.45,26.45,0,0,0,6.86-5.23,14.09,14.09,0,0,0,2.89-4.91,11.78,11.78,0,0,0,.59-3.32,3.55,3.55,0,0,0,0-.55V656.2l0-6.79-.08-13.58-.17-27.16c-.13-18.1-.14-36.21-.4-54.32L296.4,500c-.33-18.1-.55-36.21-1-54.32h0a3.4,3.4,0,0,0,0-.45,3.37,3.37,0,0,0-3.76-2.92l-.09,0c-3.54.44-7.1.85-10.66,1.25.36-1.18.69-2.37,1-3.56a87.07,87.07,0,0,0,1.67-9.13c.42-3.05.62-6.12.77-9.18.05-1.5.08-3.14.16-4.43s.12-2.73.3-4.14a191.15,191.15,0,0,1,6.86-33.68,256,256,0,0,1,11.8-32.55,263.49,263.49,0,0,1,15.79-30.79c2.84-5,6.11-9.77,9.23-14.62,1.58-2.4,3.35-4.68,5-7s3.3-4.72,5.17-6.92c3.64-4.53,7.1-8.72,11.14-14l2.61-4,1.29-2,1.14-2.05,2.27-4.1,2-4.21a145.85,145.85,0,0,0,10.89-35.11,193.79,193.79,0,0,0,3.18-36.35A195.86,195.86,0,0,0,359.57,114.4ZM161.51,378a53.17,53.17,0,0,0-1.76-7.61c-.8-2.4-1.58-4.59-2.19-6.82-1.22-4.39-1.85-8.91-.78-12.58a11,11,0,0,1,2.8-4.66,13.38,13.38,0,0,1,2.32-1.68l3.26-1.95a29.19,29.19,0,0,0,8.89-9.82,40.86,40.86,0,0,0,4.64,1.16,42.37,42.37,0,0,0,7.88.79,38.45,38.45,0,0,0,7.93-.67,27.17,27.17,0,0,0,4.74-1.26,31.64,31.64,0,0,0,7,8.46,20.6,20.6,0,0,0,3.29,2.22l1.37.82,1.18.67a11.24,11.24,0,0,1,3.41,3.71c1.64,2.9,1.75,6.84,1,10.82a50.12,50.12,0,0,1-1.53,6.05c-.63,2.06-1.4,4-2.09,6.45a69.83,69.83,0,0,0-2.09,13.82,109.79,109.79,0,0,0,2,27.29l1.37,6.53c.42,2.11.76,4.25,1.05,6.41.6,4.31.94,8.68,1.18,13.05.16,3.15.23,6.31.26,9.47-2.94.14-5.89.26-8.83.37-.17-3.42-.34-6.84-.46-10.26-.38-8.92-.63-17.86-.66-26.77s.08-17.82.72-26.62c0-.48,0-1.29.06-2a15,15,0,0,0-.18-2.12,20.06,20.06,0,0,0-.47-2.07c-.22-.67-.48-1.33-.75-2a17.9,17.9,0,0,0-5-6.38,23.66,23.66,0,0,0-29.07,0,18,18,0,0,0-5,6.38c-.27.64-.52,1.3-.75,2a20,20,0,0,0-.46,2.07,15,15,0,0,0-.19,2.12c0,.68,0,1.49.06,2,.64,8.8.72,17.71.73,26.62s-.28,17.85-.66,26.77c-.13,3.57-.31,7.14-.49,10.71-1.72,0-3.44-.06-5.16-.13-1.21-.05-2.42-.08-3.64-.12,0-4.19.15-8.37.41-12.53a140.3,140.3,0,0,1,1.6-14.24c.18-1.17.41-2.33.66-3.49l.74-3.54c.54-2.44,1-4.9,1.36-7.37A100.32,100.32,0,0,0,161.51,378Zm49.36-41.84a1.63,1.63,0,0,1-.2-.17,27.69,27.69,0,0,1-6.81-9.49,47.86,47.86,0,0,1-3.62-11.83c-1.48-8.13-1.07-16.9,2-23.94l.61-1.23.29-.62.07-.16.09-.12.26-.42a37.24,37.24,0,0,0,1.79-3.27,27.36,27.36,0,0,0,2.47-7.36,16,16,0,0,0,.23-2.13,11.48,11.48,0,0,0-.17-2.57,10.94,10.94,0,0,0-2.18-4.72,11.1,11.1,0,0,0-2.9-2.57c4.93-16.37,9.88-32.73,15-49,1.36-4.35,2.74-8.69,4.16-13a132.6,132.6,0,0,0,4-13.4,46.66,46.66,0,0,0,1.28-14.63c-.07-.88-.2-1.76-.34-2.64l26.85,1c-2.3,4.95-4.4,9.94-6.33,15.07-1.33,3.55-2.56,7.16-3.62,10.85-.53,1.84-1,3.72-1.43,5.62l-1.2,5.4c-3.3,14.41-6.81,28.84-10.29,43.25ZM181,299.63a37.77,37.77,0,0,0-4.74-15.52,26.42,26.42,0,0,1-2.61-5.75,15.15,15.15,0,0,1-.58-2.76l0-.62c0-.18,0-.26,0-.4a3,3,0,0,1,.19-.7,3.38,3.38,0,0,1,2.43-1.92c.14,0,.27,0,.41,0s.23,0,.61,0h5.48l14.62-.08a3.5,3.5,0,0,1,2.71,1.25,3,3,0,0,1,.63,1.26,3.27,3.27,0,0,1,0,.75,10.16,10.16,0,0,1-.11,1.18,19.81,19.81,0,0,1-1.72,5.26,29,29,0,0,1-1.37,2.59l-.18.3-.14.22-.11.22-.43.88-.85,1.77a42.33,42.33,0,0,0-3.22,14.28,56,56,0,0,0,1,14.18,57.17,57.17,0,0,0,3.59,11.78c-1,.16-2,.31-3,.4a60.45,60.45,0,0,1-7,.38c-2.34,0-4.7-.14-7.05-.37-1-.1-2-.24-3-.38A58.57,58.57,0,0,0,181,299.63Zm34.51-126.84A16.72,16.72,0,0,0,219,170.1a26,26,0,0,1,1.4,6.05,40.06,40.06,0,0,1-.88,12.54,129.91,129.91,0,0,1-3.61,12.87c-1.37,4.4-2.66,8.78-3.94,13.17-4.75,16.36-9.35,32.73-13.93,49.12-.42-.05-.84-.07-1.26-.08l-14.62-.08h-5.55c-5-16.37-10-32.72-15.24-49-1.38-4.36-2.78-8.71-4.26-13.08a131.66,131.66,0,0,1-3.94-12.8,40.86,40.86,0,0,1-1.23-12.7,27,27,0,0,1,1.64-7.25c.18,0,.35,0,.52-.05a15.74,15.74,0,0,0,3.94,3.3A22.16,22.16,0,0,0,168,175c.82.05,1.72.11,2.48.13l2.3,0,4.61.07,9.2.14,9.21.13,4.6.07,2.3,0c.77,0,1.69,0,2.52-.06A22.78,22.78,0,0,0,215.52,172.79Zm-68,17.23a137.55,137.55,0,0,0,3.7,13.47c1.32,4.31,2.59,8.69,3.84,13.07,4.73,16.56,9.32,33.19,13.88,49.81a11.05,11.05,0,0,0-4,7.39,14,14,0,0,0,0,1.43l.08,1.21a23.18,23.18,0,0,0,1,4.36,34.74,34.74,0,0,0,3.52,7.49,30.26,30.26,0,0,1,3.83,12.2A51.24,51.24,0,0,1,169,326.91a24.88,24.88,0,0,1-7.47,9.66l-19.73-81.8c-3.41-14.34-6.85-28.7-10.09-43l-1.18-5.39c-.41-1.89-.89-3.75-1.41-5.58-1-3.67-2.27-7.25-3.57-10.78-1.92-5.13-4-10.12-6.29-15.07L147,173.46c-.12.7-.27,1.39-.35,2.09A46.22,46.22,0,0,0,147.57,190ZM172,384.89c0-.63,0-.95,0-1.39a8.38,8.38,0,0,1,.11-1.22c0-.41.2-.8.28-1.21l.45-1.17a11.66,11.66,0,0,1,3.27-4,17.5,17.5,0,0,1,20.92,0,11.66,11.66,0,0,1,3.27,4l.45,1.17c.08.41.23.8.28,1.21a8.38,8.38,0,0,1,.11,1.22c0,.44,0,.76,0,1.39-.58,9.09-.7,18.13-.5,27.15q.4,18.65,1.89,37.15c-5.37.17-10.74.3-16.11.34-4.39.12-8.78,0-13.16,0h-2.61c1-12.46,1.65-24.94,1.91-37.48C172.74,403,172.63,394,172,384.89Zm-12.11,73.65c4.44.1,8.89,0,13.33,0s8.88,0,13.31-.25c17.75-.47,35.44-1.67,53.1-3.17,16.34-1.45,32.6-3.21,48.89-5.49-.37,16.81-.59,33.62-.9,50.43l-.08,6.49c-3,1.22-6.19,2.24-9.37,3.2-4.19,1.13-8.42,2.17-12.73,3-8.58,1.73-17.3,3-26.06,3.91s-17.55,1.64-26.37,2-17.65.61-26.48.59a480.45,480.45,0,0,1-52.86-2.7c-8.75-.94-17.47-2.18-26.05-3.93-4.3-.81-8.53-1.86-12.72-3-2.87-.87-5.71-1.8-8.46-2.87l0-8.06,0-46.46a372.9,372.9,0,0,0,46.76,5.49l13.36.6C151,458.45,155.48,458.46,159.93,458.54ZM286.62,608.67l-.13,21.2c-2.67,1-5.42,1.87-8.19,2.69-4.2,1.12-8.44,2.14-12.75,2.93-8.59,1.68-17.31,2.92-26.07,3.82s-17.55,1.54-26.36,2-17.64.59-26.47.59a522.69,522.69,0,0,1-52.81-2.69c-8.75-.93-17.46-2.12-26.06-3.79-4.3-.8-8.55-1.79-12.75-2.9-2.72-.8-5.43-1.66-8.06-2.63l-.09-22a134,134,0,0,0,19.28,5.89c8.83,2,17.73,3.49,26.65,4.66a441.5,441.5,0,0,0,53.75,3.28,439.55,439.55,0,0,0,53.76-3.18c8.93-1.16,17.83-2.63,26.66-4.64a133,133,0,0,0,19.64-6Zm.41-54.32c-.23,15.56-.27,31.13-.37,46.69-2.75,1.07-5.6,2-8.47,2.85-4.19,1.14-8.42,2.18-12.72,3-8.58,1.74-17.3,3-26.05,3.91s-17.55,1.68-26.37,2.09-17.65.56-26.48.63-17.67-.19-26.49-.62-17.61-1.16-26.37-2.08-17.47-2.22-26-4c-4.31-.82-8.53-1.88-12.71-3-2.75-.84-5.47-1.74-8.1-2.76l-.2-49.35,0-10.6a130.1,130.1,0,0,0,19.79,6.34A256.66,256.66,0,0,0,133,552.31a415.72,415.72,0,0,0,53.68,3.42,407.4,407.4,0,0,0,53.71-3.28,256.66,256.66,0,0,0,26.57-4.85A128.64,128.64,0,0,0,287.18,541Zm.21-18.79c-2.9,1.09-5.89,2-8.9,2.87-4.22,1.09-8.47,2.06-12.78,2.84-8.61,1.63-17.33,2.8-26.09,3.7-17.51,1.84-35.17,2.53-52.82,2.63a523.24,523.24,0,0,1-52.83-2.52c-8.75-.93-17.48-2.08-26.08-3.74-4.32-.77-8.57-1.78-12.78-2.89-2.83-.83-5.64-1.71-8.37-2.74l-.08-22.36a132.09,132.09,0,0,0,19.66,6.12c8.82,2,17.72,3.51,26.64,4.68a444.14,444.14,0,0,0,107.51,0c8.92-1.17,17.82-2.63,26.64-4.66a130.13,130.13,0,0,0,20.55-6.41Zm-70,153.75L213,695.52,211,698.65l-1,1.57c-.34.53-.7,1.08-.94,1.4a16.21,16.21,0,0,1-8.72,6.35,14.45,14.45,0,0,1-2.69.56,10.4,10.4,0,0,1-1.37.1c-.38,0-1.16,0-1.74,0l-7.49.05-7.49.1h-.81l-.7,0c-.46,0-.92-.06-1.38-.14a15.05,15.05,0,0,1-2.72-.61,15.81,15.81,0,0,1-5-2.56,17.16,17.16,0,0,1-2.1-1.9,28.33,28.33,0,0,1-1.94-2.47c-3.87-5.33-7.81-10.63-11.77-15.9,10.47.88,21,1.36,31.45,1.5,11.73.13,23.47-.13,35.2-.92C218.89,687,218,688.13,217.22,689.31Zm69.16-39.9,0,6.79v1.28c0,.11,0,.36,0,.29s0-.06,0,0-.25.43-.58.86a15.89,15.89,0,0,1-3.95,2.89,43.45,43.45,0,0,1-5.44,2.54,101,101,0,0,1-12.24,3.84,224.85,224.85,0,0,1-26,4.72,417.3,417.3,0,0,1-53.44,3.32,389,389,0,0,1-53.46-3.29,190.67,190.67,0,0,1-25.92-5.26A70,70,0,0,1,93.36,663a23.47,23.47,0,0,1-4.67-3,7.76,7.76,0,0,1-1.29-1.46,2.61,2.61,0,0,0-.17-.28c0-.08,0-.14-.06-.2s0-.19-.09-.27L87,635.82a131.53,131.53,0,0,0,19.35,6.12,257.47,257.47,0,0,0,26.6,4.79,414.29,414.29,0,0,0,53.7,3.26,416,416,0,0,0,53.7-3.37c8.9-1.2,17.79-2.66,26.59-4.74a132.72,132.72,0,0,0,19.52-6.11v.06ZM357.44,219.9a133.53,133.53,0,0,1-9.55,32.28l-1.73,3.8-2,3.64-1,1.82-1.09,1.73-2.21,3.45c-3.05,4.11-7,9.07-10.68,13.76-1.91,2.32-3.54,4.85-5.3,7.29s-3.52,4.88-5.14,7.41c-3.18,5.1-6.56,10.07-9.39,15.38a274.32,274.32,0,0,0-15.76,32.34,266.36,266.36,0,0,0-11.53,34.05,197.23,197.23,0,0,0-6.45,35.58c-.15,1.51-.17,3.09-.2,4.67s0,2.95,0,4.39c-.06,2.82-.16,5.64-.47,8.43a78.16,78.16,0,0,1-1.27,8.27c-.27,1.36-.62,2.69-1,4-.19.65-.38,1.3-.59,1.93l-.15.43c-10.94,1.11-21.93,2-32.9,2.81q-8.51.56-17,1c0-3.14,0-6.29-.13-9.44-.18-4.51-.47-9-1-13.53-.27-2.25-.6-4.51-1-6.76l-1.27-6.55a104.5,104.5,0,0,1-1.55-25.8,65.28,65.28,0,0,1,2.05-12.49c.55-1.85,1.41-4,2.12-6.2a56.33,56.33,0,0,0,1.82-6.85,30,30,0,0,0,.55-7.46,18.84,18.84,0,0,0-2.1-7.74,18.1,18.1,0,0,0-5.43-6.12l-.38-.22,21.83-83.5c3.72-14.38,7.45-28.73,11-43.19l1.31-5.44c.41-1.71.87-3.43,1.39-5.14,1.05-3.42,2.26-6.82,3.58-10.2,2.66-6.73,5.73-13.45,9-19.84h0l.15-.33a4,4,0,0,0,.36-1.8,4,4,0,0,0-4.14-3.84l-34.69,1.31c-.2-.57-.42-1.14-.65-1.69a5.83,5.83,0,0,0,.63-2.6,5.89,5.89,0,0,0-11.78,0,5.81,5.81,0,0,0,.44,2.21,9.9,9.9,0,0,1-2.09,1.7,16.21,16.21,0,0,1-7.26,2.13c-.69,0-1.31.1-2.08.11l-2.3,0-4.6.07-9.21.14-9.2.14-4.61.07-2.3,0c-.76,0-1.4,0-2.11,0a16.94,16.94,0,0,1-7.64-2A10.5,10.5,0,0,1,158.6,166a5.89,5.89,0,1,0-9.6.58c-.32.77-.63,1.54-.89,2.33L113,167.07a4,4,0,0,0-2,.42,4,4,0,0,0-1.76,5.33l.12.23h0a216.41,216.41,0,0,1,9,19.69c1.33,3.36,2.56,6.74,3.62,10.14.52,1.7,1,3.4,1.41,5.11l1.31,5.39c3.57,14.37,7.33,28.62,11.06,42.9L157.7,339a25.91,25.91,0,0,0-2.94,2.33,17.92,17.92,0,0,0-4.54,7.78,22.74,22.74,0,0,0-.58,8.47,41,41,0,0,0,1.58,7.76c.72,2.46,1.6,4.86,2.37,7.07a45,45,0,0,1,1.63,6.59,94.7,94.7,0,0,1,.12,28.18c-.33,2.35-.72,4.7-1.2,7l-.7,3.62c-.24,1.24-.46,2.47-.63,3.71a145.71,145.71,0,0,0-1.45,14.82c-.2,4.24-.26,8.45-.23,12.67-1.39,0-2.78-.09-4.17-.16L133.87,448c-11-.89-22-2.08-32.8-3.84l0-.07c-.22-.63-.41-1.28-.6-1.93-.36-1.31-.71-2.64-1-4a78.14,78.14,0,0,1-1.26-8.27c-.31-2.79-.41-5.61-.47-8.43,0-1.44,0-2.74,0-4.39s0-3.16-.2-4.67a198,198,0,0,0-6.44-35.59,266.88,266.88,0,0,0-11.53-34,275.15,275.15,0,0,0-15.75-32.35c-2.85-5.29-6.22-10.27-9.4-15.37-1.62-2.54-3.43-4.94-5.14-7.41s-3.39-5-5.3-7.3c-3.68-4.69-7.63-9.65-10.68-13.75l-2.2-3.45L30,261.43l-1-1.82L27,256l-1.73-3.8a133.64,133.64,0,0,1-9.54-32.28A181.64,181.64,0,0,1,13.23,186a192.52,192.52,0,0,1,3.64-33.87,176.13,176.13,0,0,1,9.57-32.59,169.62,169.62,0,0,1,15.66-30,151.1,151.1,0,0,1,21.46-26A168.45,168.45,0,0,1,90,42.5c2.39-1.5,4.87-2.87,7.3-4.31,1.23-.7,2.41-1.48,3.68-2.1l3.8-1.9,3.79-1.9,1.9-.95,2-.84c2.61-1.1,5.19-2.26,7.81-3.32a182.58,182.58,0,0,1,132.66,0c2.62,1.06,5.21,2.22,7.81,3.32a42,42,0,0,1,3.85,1.79l3.79,1.9,3.8,1.9c1.28.62,2.46,1.4,3.69,2.1,2.42,1.44,4.9,2.81,7.29,4.31a168.65,168.65,0,0,1,26.47,21,151.48,151.48,0,0,1,21.46,26,169.71,169.71,0,0,1,15.66,30c1,2.65,2.06,5.28,3,8l2.6,8.1,2.19,8.22c.65,2.76,1.22,5.55,1.83,8.32A192.52,192.52,0,0,1,360,186,181.76,181.76,0,0,1,357.44,219.9Z"/>
        <path class="cls-1" d="M310.13,86.85a139.65,139.65,0,0,0-19.63-20C261.75,42.64,224.13,29.67,186.58,29.6s-75.18,13-103.93,37.22a144.52,144.52,0,0,0-35,43.39A159,159,0,0,0,31.11,163l1.55-6.73c.47-2.25,1.2-4.44,1.79-6.66l.93-3.32L36.45,143c.75-2.17,1.36-4.38,2.25-6.5a150.71,150.71,0,0,1,11.78-24.73A139.41,139.41,0,0,1,66.31,89.58,143.2,143.2,0,0,1,85.87,70.76l5.39-4.13c1.83-1.32,3.76-2.52,5.63-3.79L99.71,61c.94-.63,2-1.15,2.92-1.73l5.87-3.41A167.38,167.38,0,0,1,133.35,45a172,172,0,0,1,26.25-6.65,166.1,166.1,0,0,1,54,0A169.68,169.68,0,0,1,239.8,45a165.79,165.79,0,0,1,24.84,10.82l5.88,3.4c1,.58,2,1.1,2.91,1.73l2.82,1.89c1.87,1.27,3.8,2.47,5.63,3.79l5.39,4.13A142.09,142.09,0,0,1,306.84,89.6a140.14,140.14,0,0,1,15.83,22.17,150.66,150.66,0,0,1,11.79,24.72c.89,2.12,1.5,4.33,2.25,6.5l1.07,3.27.93,3.32c.59,2.22,1.33,4.41,1.8,6.66l1.54,6.73a158.67,158.67,0,0,0-16.57-52.76A141.74,141.74,0,0,0,310.13,86.85Z"/>
      </g>
    </g>
  </g>
</svg>
