<svg xmlns="http://www.w3.org/2000/svg" viewBox="0 0 415.26 720">
  <defs>
    <style>
      .cls-1 {
        fill: #494546;
      }
    </style>
  </defs>
  <title>Asset 11</title>
  <g id="Layer_2" data-name="Layer 2">
    <g id="Layer_1-2" data-name="Layer 1">
      <g>
        <path class="cls-1" d="M412.3,182.86a248.87,248.87,0,0,0-10.61-41.15,225.53,225.53,0,0,0-42.25-73.58C340.77,46.55,317.13,28.9,290.61,18a189.57,189.57,0,0,0-20.24-7.09A210.54,210.54,0,0,0,249.51,6.1a203.86,203.86,0,0,0-21.16-2.53c-3.54-.3-7.08-.37-10.62-.49-1.77-.08-3.53,0-5.29,0h-5c0-4.68,0-3.39-.06-.14a.58.58,0,0,0,0,.15,232.69,232.69,0,0,0-42.18,3.37A194.4,194.4,0,0,0,124.23,18.5,186,186,0,0,0,55.78,68.55c-18.63,21.51-32.62,46.65-42,73.24A247,247,0,0,0,3.05,182.73,204.34,204.34,0,0,0,.16,225.15,140,140,0,0,0,2.7,246.6a80.64,80.64,0,0,0,7.19,21.13c.41.86.92,1.7,1.42,2.54l.75,1.26.71,1.11,2.8,4.33,5.59,8.67c3.73,5.77,7.38,11.54,11,17.33,7.22,11.58,14.08,23.3,20.22,35.33,3.14,6,5.89,12.13,8.65,18.27l3.76,9.35c1.28,3.1,2.24,6.32,3.38,9.47a229.35,229.35,0,0,1,12,79.13l-.09,5,0,2.52-.1,2.68c-.1,3.56-.1,7.09,0,10.61s.25,7,.48,10.53l.38,5.24.22,2.6c.11,1,.22,2.07.43,3.09a28.69,28.69,0,0,0,14.34,19.92l.69.37.57.29,1.16.58,2.31,1.14,4.65,2.24c2.11,1,4.25,1.92,6.38,2.86a78.73,78.73,0,0,0-.68,12.15,23.11,23.11,0,0,0,8,16.55c.13.12.28.21.41.33-.09.14-.2.27-.29.42a13.59,13.59,0,0,0,1.55,15.82,3.88,3.88,0,0,0-.31.26,11.44,11.44,0,0,0-3.34,8.07v5.08l0,1.11a11.34,11.34,0,0,0,3.15,6.75,10.88,10.88,0,0,0-2.54,6.91v5.07l.05,1.06a10.73,10.73,0,0,0,2.45,5.86,11.46,11.46,0,0,0-3.14,7.85v5.07l0,1.12a11.35,11.35,0,0,0,2.93,6.53,11.19,11.19,0,0,0-2.63,7.13v5.07l.06,1.09a10.92,10.92,0,0,0,7.31,9.34c3.08,6,6.43,11.74,9.9,17.46l.79,1.28.2.32.27.4c.18.27.35.54.55.79a17.35,17.35,0,0,0,6.46,5.35l24.81,30.3,3.17,3.87.79,1c.34.4.7.82,1.09,1.2a17.28,17.28,0,0,0,8.42,4.73,17.55,17.55,0,0,0,3.23.44l.79,0H207l20,0h1.88l.8,0a18.47,18.47,0,0,0,3.22-.44,17.5,17.5,0,0,0,5.91-2.64,17.77,17.77,0,0,0,2.48-2.1c.38-.38.75-.81,1.08-1.2l.79-1,3.16-3.88,25.3-31,.64-.78a18,18,0,0,0,2.18-1.61,16.43,16.43,0,0,0,2.48-2.72c.77-1.07,1.23-1.89,1.76-2.74l9.37-15.4a12.33,12.33,0,0,0,6.26-3.37,12.13,12.13,0,0,0,3.55-8.67l0-2.9v-2.17l-.07-1.19a12.19,12.19,0,0,0-3.39-7.24,10.81,10.81,0,0,0,2.06-6.34v-5.08l-.05-1.05A10.93,10.93,0,0,0,294,610.6a11.41,11.41,0,0,0,3.13-7.89v-5.07l-.06-1.12a11.43,11.43,0,0,0-3.17-6.72,10.75,10.75,0,0,0,2.56-6.93v-5.08l-.05-1a10.79,10.79,0,0,0-3.17-6.55,14.08,14.08,0,0,0,3.8-7.77,13.85,13.85,0,0,0-1.73-8.76,13.47,13.47,0,0,0-.82-1.16c.06-.06.13-.1.2-.16a21.73,21.73,0,0,0,7.53-16c0-.36,0-.8,0-1.08l0-.89-.08-1.78c-.06-1.19-.12-2.37-.2-3.56-.12-1.87-.29-3.74-.47-5.61l6.72-3.37c3.1-1.57,6.08-3,9.28-4.69a27.73,27.73,0,0,0,13.83-18.73,28.34,28.34,0,0,0,.46-3l.27-2.6.47-5.2c.29-3.47.52-7,.67-10.46s.24-7,.18-10.56l-.07-2.66v-2.53l0-5.06a229,229,0,0,1,13-79c1.16-3.14,2.16-6.33,3.45-9.42l3.85-9.29c2.81-6.09,5.59-12.19,8.79-18.13,6.23-11.94,13.1-23.61,20.38-35.11,3.67-5.76,7.35-11.5,11.11-17.24l5.62-8.63,2.8-4.33.7-1.08.77-1.28c.5-.86,1.06-1.71,1.48-2.58a82.25,82.25,0,0,0,7.41-21.4,142.7,142.7,0,0,0,2.62-21.62A204.31,204.31,0,0,0,412.3,182.86Zm-396.65,2a232.88,232.88,0,0,1,10.26-38.75c9-25.18,22.36-48.87,39.85-68.9A172.32,172.32,0,0,1,129.47,31a180.54,180.54,0,0,1,38.08-11.07c6.55-1.05,13.14-2,19.79-2.41,3.31-.32,6.65-.36,10-.52s6.6-.06,10-.08a.53.53,0,0,0,0,.14c0,3.25,0,4.55.06-.14h1.09l1.26,0,2.51,0c1.67,0,3.35,0,5,.14,3.32.19,6.65.32,9.95.67,6.62.54,13.19,1.51,19.7,2.66a191.24,191.24,0,0,1,19.24,4.68,173,173,0,0,1,52.65,26.35A186.09,186.09,0,0,1,334,64.09a189.76,189.76,0,0,1,13.68,14.25c17.27,20,30.3,43.6,39.32,68.58a232.37,232.37,0,0,1,10.2,38.5A189,189,0,0,1,400,224.85a126.15,126.15,0,0,1-2.2,19.26A67.58,67.58,0,0,1,392,261.59a10.85,10.85,0,0,1-.52,1c-1.74-.49-3.49-1-5.25-1.42-3.9-1-7.79-2-11.71-2.89l-11.76-2.69-11.82-2.43c-3.93-.83-7.9-1.5-11.86-2.19l-11.88-2.07-11.93-1.75c-4-.55-8-1.21-12-1.63-15.95-2-32-3.45-48-4.54-8-.38-16.07-.88-24.11-1.13L207,239.39a794.69,794.69,0,0,0-96.29,6.17l-23.88,3.49c-4,.52-7.92,1.38-11.87,2.12l-11.84,2.3-11.82,2.37c-3.93.83-7.81,1.89-11.72,2.82-6,1.47-12,3-18,4.52a13.73,13.73,0,0,1-.69-1.25A68.62,68.62,0,0,1,15,244.1a128.21,128.21,0,0,1-2.22-19.48A191.75,191.75,0,0,1,15.65,184.89ZM288.12,544.82a12.2,12.2,0,0,1-4.41,2.41l-1.23.29-1.25.17-1.3,0h-1.78l-14.23-.1-56.9-.37-56.91-.2h-16l-1.24,0-1.18-.17-1.15-.29a11.6,11.6,0,0,1-4.13-2.3c-6.74-5.45-5.25-16.4-5.75-18.28q44.15.39,88.18.36,42,0,84.44-.55c-.09,1.09-.21,2.18-.28,3.26l-.37,6.92A13.06,13.06,0,0,1,288.12,544.82ZM129.14,646h-.72l-.38,0a3.89,3.89,0,0,1-.68-.13,3.43,3.43,0,0,1-1.25-.66,3.65,3.65,0,0,1-1.33-2.43c0-.12,0-.23,0-.36v-5.07a3.64,3.64,0,0,1,3.63-3.67l46.37.14,46.37.34,46.38.38,17.39.14h.72l.29,0a4.26,4.26,0,0,1,.49.1,3,3,0,0,1,.88.5,2.53,2.53,0,0,1,.89,1.74l0,5.33a2.57,2.57,0,0,1-2.48,2.54l-92.74.77-46.38.29-11.59,0Zm-4.06-28.52a3.34,3.34,0,0,1,3.3-3.37l92.74-.29,46.38-.21,11.59,0,5.8,0h.72l.41,0a4.6,4.6,0,0,1,.74.14,3.77,3.77,0,0,1,1.36.71,3.88,3.88,0,0,1,1.44,2.65v5.47a3.93,3.93,0,0,1-3.91,3.93l-92.74-.42-46.38-.13-17.39,0h-1.07a4.26,4.26,0,0,1-.62-.13,3.27,3.27,0,0,1-1.13-.61,3.31,3.31,0,0,1-1.2-2.22c0-.11,0-.2,0-.33v-5.07Zm3.3-23.82,92.74.27,46.38.21,17.39.08h.72l.36,0a4.7,4.7,0,0,1,.63.13,3.24,3.24,0,0,1,1.15.63,3.29,3.29,0,0,1,1.19,2.26c0,.11,0,.21,0,.33v2.17l0,2.9a3.34,3.34,0,0,1-3.28,3.34l-92.74.44-46.38.12-11.59,0-5.8,0h-.72l-.4,0a4.52,4.52,0,0,1-.75-.14,4,4,0,0,1-1.36-.71,4,4,0,0,1-1.44-2.65l0-.39v-5.07A4,4,0,0,1,128.38,593.7Zm161.26-15.18v4.35a4,4,0,0,1-4,4l-92.74-.47-46.38-.14-11.59,0-5.8,0h-.72l-.35,0a4.26,4.26,0,0,1-.62-.13,3.11,3.11,0,0,1-1.13-.61,3.35,3.35,0,0,1-1.2-2.21c0-.12,0-.21,0-.33v-5.08a3.36,3.36,0,0,1,3.3-3.38l92.74-.31,46.38-.23,11.59,0,5.8,0H286a4.85,4.85,0,0,1,.76.14,4.05,4.05,0,0,1,1.38.72,3.89,3.89,0,0,1,1.46,2.7l0,.39ZM240.17,703.66,237,707.53l-.8,1c-.21.24-.38.45-.59.66a9.59,9.59,0,0,1-1.34,1.12,9.47,9.47,0,0,1-3.18,1.41,9,9,0,0,1-1.73.23l-.45,0H227l-40,0h-1.88l-.45,0a9,9,0,0,1-1.72-.23,9.16,9.16,0,0,1-4.49-2.53c-.21-.21-.39-.42-.59-.65l-.79-1-3.17-3.88-19-23.32h4l48.14-.16,48.13-.43,4.73-.05Zm33.29-37.15c-.55.84-1.12,1.75-1.55,2.28a9.79,9.79,0,0,1-1.62,1.66,10.76,10.76,0,0,1-4.07,2.1,11.54,11.54,0,0,1-2.27.35c-.65,0-1.83,0-2.79,0l-6-.06L207,672.39l-48.14-.16-6,0c-1,0-2.17,0-2.75,0a9.86,9.86,0,0,1-2.09-.38,10.2,10.2,0,0,1-3.72-2,9.37,9.37,0,0,1-1.48-1.54c-.11-.13-.21-.29-.31-.43l-.16-.22-.2-.32-.82-1.26q-4.17-6.32-8.63-12.44h2.23l11.59,0,46.38.28,88.38.74Zm15.4-105.21a6,6,0,0,1-1.68,3.36,5.71,5.71,0,0,1-3.32,1.64c-.16,0-.32,0-.48.05H258.59l-51.62.06-51.61.06-12.9,0-6.45,0h-4.84c-.32,0-.39,0-.58,0a2,2,0,0,1-.49,0,6.08,6.08,0,0,1-5.21-5.21,6,6,0,0,1,1-4.25c.41.16.82.33,1.23.45.77.21,1.53.42,2.3.58s1.56.26,2.34.35,1.61.09,2.32.1h1.77l14.23,0,56.91-.19,56.9-.37,14.23-.1h1.78l2.24-.12c.76-.08,1.52-.22,2.27-.34s1.49-.38,2.22-.57c.28-.09.54-.21.81-.31A6.13,6.13,0,0,1,288.86,561.3Zm24.82-52.38-16,9.22-.27,0q-45.87-.48-92.23-.59-43.59-.07-87.2.32c-2.67-1.76-5.36-3.49-8.09-5.14l-4.43-2.65-2.23-1.3-1.11-.64-.56-.33-.43-.27a19.22,19.22,0,0,1-3.61-2.87c6.92-.38,13.88-.72,20.82-.95q7.38-.3,14.76-.49c4.92-.19,9.84-.28,14.77-.4,19.69-.46,39.39-.6,59.1-.6s39.42.38,59.13.89c17.44.42,34.88,1.13,52.33,1.78A19.31,19.31,0,0,1,313.68,508.92Zm67.7-230.37c-3.68,5.81-7.33,11.69-11,17.58C363.2,308,356.24,320.06,350,332.61c-3.17,6.24-6,12.7-8.75,19.15l-3.82,9.84c-1.28,3.27-2.27,6.67-3.41,10a237.28,237.28,0,0,0-11,83.23c.2,7.14.74,13.63.71,20.39,0,3.36-.05,6.74-.18,10.12l-.22,5.08L323.2,493a20.72,20.72,0,0,1-.23,2.13c-.07.45-.18.9-.28,1.34q-13.23-1.2-26.49-2.22l-14.84-.93c-4.95-.33-9.9-.59-14.85-.81l-14.86-.71-14.87-.45C226.87,491,217,491,207,490.79c-19.84-.07-39.69.26-59.53,1.13-18.3.84-36.51,2.12-54.81,4.28-.12-.46-.24-.91-.32-1.37-.13-.66-.18-1.27-.26-2l-.19-2.53-.32-5c-.19-3.36-.32-6.73-.37-10.08s0-6.69.1-10l.12-2.47.07-2.64.14-5.26.14-5.27.07-2.63c0-.88-.05-1.76-.07-2.64l-.36-10.54-.1-2.64-.24-2.63-.5-5.26c-.34-3.51-.6-7-1.23-10.5l-1.65-10.44-2.25-10.34c-.66-3.47-1.78-6.82-2.7-10.23l-1.44-5.09c-.5-1.69-1.12-3.34-1.67-5-1.18-3.31-2.19-6.7-3.52-10l-3.91-9.79c-2.86-6.41-5.7-12.83-8.94-19C57,320.28,50,308.23,42.67,296.45c-3.67-5.86-7.35-11.72-11.07-17.51L26,270.25l-.43-.67c3.93-.77,7.86-1.54,11.79-2.34,8.56,12.85,17.22,25.55,25.31,38.59a343.93,343.93,0,0,1,22.92,42.61,221.28,221.28,0,0,1,14.79,46,213.2,213.2,0,0,1,4,48.33A213.49,213.49,0,0,0,102,394.16a224.58,224.58,0,0,0-13.38-47,349.1,349.1,0,0,0-21.73-43.85c-7.3-12.7-15.09-25.06-22.77-37.43,2.93-.6,5.86-1.22,8.82-1.71l11.78-1.83,11.76-1.89c3.92-.61,7.83-1.35,11.78-1.73l23.65-2.87A943.38,943.38,0,0,1,207,250.81l23.81.34c7.93.2,15.86.68,23.79,1,4,.11,7.92.42,11.88.7l11.88.85c4,.23,7.92.63,11.86,1l11.86,1.13c7.91.76,15.77,1.87,23.67,2.76l11.79,1.67c3.93.56,7.87,1.1,11.78,1.78,12.78,1.89,25.46,4.33,38.08,7l-.51.79Z"/>
        <path class="cls-1" d="M89.53,78.71A161.54,161.54,0,0,1,164.76,41.1a197.78,197.78,0,0,1,42.25-4,197.22,197.22,0,0,1,42.26,4A161.43,161.43,0,0,1,324.5,78.7a193.1,193.1,0,0,1,28.73,31.91,166.66,166.66,0,0,0-26.55-34.24,155.38,155.38,0,0,0-35-26,159.15,159.15,0,0,0-41.06-15.31A198.68,198.68,0,0,0,207,30.56a198.65,198.65,0,0,0-43.56,4.49,159.19,159.19,0,0,0-41.07,15.3,155.72,155.72,0,0,0-35,26,166.66,166.66,0,0,0-26.55,34.24A193.54,193.54,0,0,1,89.53,78.71Z"/>
      </g>
    </g>
  </g>
</svg>
