<svg width="428" height="720" viewBox="0 0 428 720" fill="none" xmlns="http://www.w3.org/2000/svg">
<path d="M426.56 180.74C425.412 166.08 422.659 151.59 418.35 137.53C413.97 123.4 407.803 109.888 400 97.32C392.194 84.7803 382.929 73.2096 372.4 62.85C361.733 52.7786 350.139 43.7383 337.77 35.85L328.29 30.35L323.55 27.61C321.94 26.75 320.27 25.99 318.64 25.18L308.78 20.39C305.43 18.94 302.01 17.63 298.63 16.26L293.55 14.26C291.84 13.61 290.08 13.11 288.35 12.53L278 9.11C274.48 8.11 270.92 7.33 267.38 6.44L262 5.13C260.21 4.75 258.4 4.48 256.61 4.13L245.83 2.28C242.2 1.85 238.56 1.51 234.93 1.13L229.49 0.57L224 0.37L213.07 0L202.13 0.41L196.66 0.63L191.21 1.21C187.58 1.61 183.95 1.96 180.33 2.4L169.55 4.31C167.76 4.65 165.95 4.91 164.17 5.31L158.86 6.63C155.32 7.53 151.77 8.36 148.25 9.33L137.85 12.72C136.12 13.31 134.36 13.81 132.66 14.46L127.59 16.52C124.22 17.91 120.81 19.22 117.47 20.68L107.65 25.5C106.02 26.32 104.36 27.08 102.76 27.94L98 30.69L88.56 36.22C76.2602 44.1436 64.7357 53.2105 54.14 63.3C43.6875 73.6542 34.5 85.2116 26.77 97.73C19.0586 110.266 12.9795 123.734 8.67999 137.81C4.45162 151.808 1.76896 166.228 0.679988 180.81C-0.382881 195.299 -0.148615 209.853 1.37999 224.3C4.49717 253.047 11.609 281.218 22.51 308C25.26 314.66 28.13 321.27 31.37 327.73C34.5568 334.245 38.0851 340.587 41.94 346.73L47.61 355.73C49.46 358.68 51.4 361.59 53.11 364.63L58.38 373.63L63.33 382.84C69.8078 395.165 75.444 407.914 80.2 421C82.6 427.52 84.58 434.17 86.42 440.85C88.1625 447.528 89.5478 454.294 90.57 461.12C91.06 464.52 91.45 467.93 91.65 471.31L91.87 476.58C91.96 478.44 92.12 480.32 92.37 482.2C93.5062 489.639 95.7582 496.863 99.05 503.63C102.296 510.266 106.325 516.491 111.05 522.17C113.379 525.002 115.859 527.706 118.48 530.27C119.16 530.93 119.83 531.58 120.48 532.27C119.558 533.088 118.726 534.004 118 535C116.671 536.801 115.694 538.837 115.12 541C114.834 542.067 114.647 543.159 114.56 544.26L114.51 545.9V547.05L114.74 556.24C115.16 568.5 115.42 580.75 116 593V593.2C116.041 594.018 116.338 594.801 116.85 595.44L132.61 614.91L132.25 661.61L117.42 663.11V669.66L132.18 671.15V675.15C132.166 678.213 132.79 681.245 134.012 684.053C135.235 686.861 137.029 689.384 139.28 691.46C140.183 692.275 141.15 693.017 142.17 693.68C143.17 696.03 144.17 698.37 145.24 700.68C145.94 702.23 146.66 703.76 147.4 705.29L148.5 707.59L149.06 708.73L149.34 709.3L149.73 710.03C152.036 714.211 155.831 717.37 160.36 718.88C161.485 719.263 162.643 719.537 163.82 719.7C164.41 719.76 165 719.84 165.59 719.85H166.47H172.19L212.85 719.93C226.4 719.93 239.95 719.81 253.51 719.75H258.59H259.23H260.1C260.689 719.726 261.276 719.673 261.86 719.59C264.774 719.164 267.552 718.079 269.984 716.417C272.415 714.755 274.435 712.56 275.89 710L280.66 700.81L284.01 694.24C286.141 692.862 288.019 691.127 289.56 689.11C291.487 686.589 292.866 683.694 293.61 680.61C293.986 679.08 294.194 677.515 294.23 675.94C294.23 675.08 294.23 674.56 294.23 673.94V672.11V671.4L308.72 669.63V663.1L294.15 661.32V657.48L293.88 642.84C293.72 633.507 293.457 624.173 293.09 614.84L308.82 595.42C309.358 594.76 309.66 593.941 309.68 593.09V593L310.1 583.81L310.41 574.62L311.03 556.24L311.26 547.05C311.26 546.63 311.26 546.35 311.26 545.83C311.26 545.31 311.26 544.72 311.19 544.17C311.12 543.62 311.06 543.07 310.97 542.52L310.59 540.89C309.973 538.72 308.956 536.685 307.59 534.89C307.4 534.65 307.2 534.42 307 534.19C307.78 533.46 308.57 532.75 309.32 532.01C311.994 529.375 314.524 526.597 316.9 523.69C321.739 517.849 325.862 511.451 329.18 504.63C332.556 497.636 334.855 490.172 336 482.49C336.25 480.49 336.41 478.6 336.5 476.68L336.7 471.43C336.88 468.13 337.25 464.77 337.7 461.43C338.676 454.68 340.011 447.987 341.7 441.38C343.49 434.76 345.43 428.16 347.79 421.68C352.468 408.652 358.025 395.956 364.42 383.68L369.3 374.5L374.52 365.5C376.21 362.5 378.13 359.56 379.96 356.61L385.6 347.61C389.46 341.391 392.988 334.972 396.17 328.38C399.41 321.87 402.28 315.22 405.02 308.51C415.879 281.599 422.94 253.308 426 224.45C427.487 209.926 427.674 195.298 426.56 180.74ZM266.72 704.74C265.627 706.543 263.907 707.878 261.89 708.49C261.398 708.646 260.893 708.753 260.38 708.81C260.12 708.81 259.87 708.87 259.61 708.87H258.61H253.53C239.97 708.81 226.42 708.67 212.87 708.69L172.21 708.77H166.09C165.84 708.77 165.59 708.72 165.33 708.71C164.827 708.638 164.329 708.531 163.84 708.39C161.858 707.769 160.157 706.474 159.03 704.73L156.55 700.51C155.94 699.51 155.31 698.44 154.69 697.41H155.8L185.09 697.64L243.69 698.02H270.47L266.72 704.74ZM284.45 642.87L284.17 657.51L284.06 672.16V674C284.06 674.6 284.06 675.3 284.01 675.66C283.985 676.525 283.857 677.385 283.63 678.22C282.973 680.733 281.554 682.98 279.568 684.654C277.583 686.328 275.128 687.347 272.54 687.57H271.89H271.57H243.65L185.05 687.95L155.76 688.18H154C153.54 688.18 153.09 688.18 152.64 688.11C151.741 688.009 150.853 687.822 149.99 687.55C147.366 686.692 145.076 685.034 143.442 682.808C141.808 680.582 140.912 677.901 140.88 675.14L140.41 614.75C145.35 614.16 150.41 613.64 155.41 613.28C161.7 612.73 168.03 612.36 174.35 612.09C187.017 611.563 199.683 611.34 212.35 611.42C218.68 611.53 225.02 611.56 231.35 611.83C234.51 611.94 237.69 612 240.85 612.15L250.36 612.61C262 613.18 273.63 614.12 285.28 615C284.893 624.287 284.617 633.567 284.45 642.84V642.87ZM287.35 609.63C281.57 608.73 275.773 607.893 269.96 607.12L260.39 606.12C257.21 605.75 254.01 605.44 250.81 605.2C238.03 604.02 225.19 603.56 212.34 603.34C199.5 603.34 186.64 603.61 173.81 604.64C167.4 605.17 161 605.78 154.61 606.64C149.08 607.43 143.61 608.25 138.08 609.41L126.5 595C132.16 594.19 137.97 593.56 143.73 593.11C147.54 592.74 151.39 592.52 155.21 592.22L166.74 591.63C182.11 590.94 197.53 590.8 212.95 591.1C228.37 591.1 243.79 591.98 259.21 592.71C266.92 593.13 274.62 593.71 282.34 594.16L298.84 595.39L287.35 609.63ZM283 587.18C275.25 586.48 267.51 585.73 259.76 585.1L248.12 584.32C244.24 584.06 240.35 583.84 236.46 583.71L224.8 583.22C220.91 583.08 217.01 583.04 213.12 582.94C197.54 582.8 181.95 582.94 166.37 583.94L154.7 584.86C150.81 585.27 146.92 585.59 143.04 586.09L137.22 586.86L131.41 587.75C128.91 588.18 126.41 588.61 123.96 589.12C124.42 578.12 124.68 567.17 125.06 556.19L125.29 547V545.85C125.29 545.63 125.29 545.42 125.35 545.2C125.417 544.777 125.514 544.359 125.64 543.95C125.908 543.148 126.322 542.402 126.86 541.75C127.928 540.463 129.435 539.619 131.09 539.38C131.58 539.3 133.56 539.26 134.98 539.2L139.55 539.06C163.93 538.393 188.333 538.097 212.76 538.17C224.97 538.24 237.18 538.26 249.38 538.53C261.58 538.8 273.8 538.98 286.01 539.31L290.59 539.42L292.88 539.48H293.45H293.9C294.1 539.48 294.31 539.48 294.51 539.53C296.149 539.737 297.649 540.554 298.71 541.82C299.259 542.455 299.683 543.188 299.96 543.98C300.007 544.18 300.067 544.38 300.14 544.58L300.26 545.2L300.32 545.84C300.32 546.08 300.32 546.56 300.32 546.92L300.55 556.11L301.17 574.49L301.48 583.68L301.74 589.37C295.48 588.67 289.22 587.94 283 587.18ZM411.29 223C408.513 250.513 401.919 277.505 391.7 303.2C389.12 309.6 386.41 315.96 383.38 322.12C380.442 328.291 377.174 334.3 373.59 340.12L368 349.12C366.12 352.19 364.15 355.2 362.41 358.36L357 367.73L352 377.32C345.435 390.212 339.755 403.536 335 417.2C332.59 424.04 330.59 431.05 328.76 438.09C327.011 445.207 325.636 452.41 324.64 459.67C324.17 463.33 323.8 467.01 323.64 470.78L323.49 476.12C323.43 477.747 323.31 479.337 323.13 480.89C322.961 482.445 322.68 483.985 322.29 485.5C321.978 487.07 321.581 488.623 321.1 490.15C320.167 493.227 319.017 496.235 317.66 499.15C314.858 505.102 311.357 510.698 307.23 515.82C305.167 518.425 302.964 520.915 300.63 523.28C299.47 524.46 298.27 525.61 297.06 526.73L295.7 528L294.7 527.87C294.39 527.87 294.18 527.82 294.01 527.81H293.43L291.13 527.66L286.53 527.38C274.25 526.61 261.96 526.16 249.67 525.74C245.45 525.63 241.22 525.55 236.99 525.47L233.99 448.22L230.99 525.35C224.93 525.25 218.873 525.2 212.82 525.2C209.58 525.2 206.34 525.2 203.1 525.26L200.1 448.26L197.1 525.34C177.76 525.56 158.41 526.17 139.1 527.34L134.49 527.63L132.19 527.79C131.184 527.84 130.182 527.95 129.19 528.12C128.592 528.224 128.001 528.365 127.42 528.54C126.2 527.42 125 526.26 123.87 525.08C121.481 522.652 119.231 520.091 117.13 517.41C112.901 512.128 109.322 506.356 106.47 500.22C103.672 494.199 101.785 487.796 100.87 481.22C100.68 479.59 100.57 477.94 100.51 476.27L100.38 470.94C100.22 467.25 99.88 463.62 99.38 460.01C98.4271 452.827 97.0919 445.701 95.38 438.66C93.59 431.66 91.64 424.71 89.28 417.92C84.5994 404.324 79.0032 391.06 72.53 378.22L67.53 368.66L62.22 359.31C60.5 356.16 58.55 353.16 56.68 350.1L51.12 341.1C47.5372 335.216 44.266 329.147 41.32 322.92C38.32 316.7 35.6 310.3 33.02 303.85C22.8471 278.003 16.3212 250.866 13.63 223.22C11.13 195.74 13.09 167.84 21.21 141.78C25.2748 128.772 30.9879 116.337 38.21 104.78C45.4348 93.2571 53.994 82.627 63.71 73.11C73.6659 63.7504 84.4764 55.3437 96 48L104.91 42.87L109.37 40.3C110.88 39.5 112.45 38.8 113.98 38.04L123.23 33.57C126.38 32.22 129.59 31.01 132.77 29.73L137.54 27.82C139.14 27.22 140.79 26.76 142.42 26.22L152.21 23.1C155.51 22.21 158.86 21.46 162.21 20.63L167.21 19.41C168.88 19.06 170.58 18.82 172.27 18.52L182.39 16.78C185.79 16.39 189.2 16.09 192.61 15.78L197.71 15.26L202.85 15.09L213.11 14.77L223.37 15.13L228.5 15.32L233.61 15.85L243.81 16.94L253.92 18.71C255.61 19.02 257.3 19.26 258.97 19.62L263.97 20.86C267.28 21.7 270.62 22.46 273.92 23.36L283.68 26.52C285.3 27.06 286.96 27.52 288.55 28.13L293.26 30C296.42 31.3 299.62 32.52 302.76 33.87L311.98 38.37C313.51 39.14 315.07 39.84 316.58 40.65L321 43.24L329.87 48.39C341.34 55.7435 352.096 64.1534 362 73.51C371.643 83.0212 380.128 93.6381 387.28 105.14C394.423 116.661 400.062 129.048 404.06 142C412 167.92 413.88 195.68 411.29 223Z" fill="#494546"/>
<path d="M196.77 27L188.25 27.79L179.81 29.16C174.15 29.91 168.64 31.44 163.08 32.74C160.302 33.3842 157.559 34.1685 154.86 35.09L146.69 37.66C144 38.66 141.37 39.73 138.69 40.75L134.69 42.32C133.357 42.8089 132.052 43.3697 130.78 44L123.05 47.71L119.2 49.58L115.48 51.7L108.05 56L106.19 57.07L104.41 58.26L100.85 60.65C91.2871 66.9783 82.3469 74.2008 74.15 82.22L68.21 88.46L66.74 90.02L65.37 91.69L62.64 95.02L59.92 98.36C58.99 99.46 58.24 100.69 57.39 101.85C55.75 104.21 54.05 106.53 52.48 108.93C46.3316 118.646 41.2394 128.992 37.29 139.79L34.55 148L32.34 156.31C31.95 157.69 31.64 159.09 31.34 160.49L30.5 164.7C30.23 166.11 29.91 167.5 29.68 168.91L29.08 173.16C27.4275 184.46 26.825 195.889 27.28 207.3C28.1725 230.016 32.1489 252.505 39.1 274.15C42.5327 284.928 46.5998 295.493 51.28 305.79C55.8824 316.099 61.3696 325.989 67.68 335.35C56.28 315.92 48.1 294.82 42.17 273.24C39.1514 262.471 36.8134 251.523 35.17 240.46C33.5025 229.438 32.5804 218.316 32.41 207.17C32.2658 196.066 33.062 184.97 34.79 174L35.43 169.9C35.67 168.54 35.99 167.19 36.27 165.84L37.15 161.78C37.42 160.42 37.73 159.08 38.15 157.78L40.38 149.78L43.11 142C46.9919 131.678 51.9315 121.785 57.85 112.48C63.9415 103.268 70.947 94.695 78.76 86.89C94.45 71.36 113.29 59.06 133.33 49.67C153.37 40.28 175.2 34.61 197.26 32.09C202.77 31.29 208.34 31.23 213.89 30.94C216.672 30.8 219.458 30.8 222.24 30.94L230.59 31.1C233.37 31.28 236.14 31.57 238.92 31.8L243.08 32.16L245.17 32.35L247.23 32.68L255.5 34C256.87 34.24 258.26 34.4 259.63 34.7L263.71 35.62L271.89 37.45C274.61 38.11 277.26 39.01 279.95 39.78L283.95 40.98C285.29 41.39 286.65 41.74 287.95 42.28L295.82 45.28L299.75 46.77C301.05 47.31 302.3 47.93 303.58 48.5L311.23 52.02L313.15 52.89L315.01 53.89L318.72 55.89L326.14 59.89C288.62 35 242.22 22.66 196.77 27Z" fill="#494546"/>
<g clip-path="url(#clip0_2_17)">
<path d="M177.496 82.6339C179.713 73.7826 192.278 73.7826 194.504 82.6339L195.152 85.2436C195.531 86.7602 196.309 88.1478 197.406 89.2623C198.502 90.3768 199.876 91.1777 201.387 91.5818C202.897 91.9858 204.488 91.9784 205.994 91.5603C207.5 91.1422 208.867 90.3285 209.953 89.2039L211.824 87.2785C218.166 80.7176 229.052 87.0047 226.542 95.7739L225.812 98.3654C225.383 99.8678 225.363 101.458 225.754 102.971C226.146 104.483 226.935 105.864 228.04 106.969C229.145 108.074 230.526 108.863 232.039 109.255C233.551 109.647 235.141 109.627 236.644 109.197L239.226 108.458C247.986 105.948 254.282 116.834 247.721 123.176L245.796 125.047C244.671 126.133 243.858 127.5 243.44 129.006C243.022 130.512 243.014 132.103 243.418 133.613C243.822 135.123 244.623 136.498 245.738 137.594C246.852 138.691 248.24 139.469 249.756 139.848L252.366 140.495C261.217 142.713 261.217 155.278 252.366 157.504L249.756 158.152C248.24 158.531 246.852 159.309 245.738 160.406C244.623 161.502 243.822 162.876 243.418 164.387C243.014 165.897 243.022 167.488 243.44 168.994C243.858 170.5 244.671 171.867 245.796 172.953L247.721 174.824C254.282 181.166 247.995 192.052 239.226 189.542L236.635 188.812C235.132 188.383 233.542 188.363 232.029 188.754C230.517 189.146 229.136 189.935 228.031 191.04C226.926 192.145 226.137 193.526 225.745 195.039C225.353 196.551 225.373 198.141 225.803 199.644L226.542 202.226C229.052 210.986 218.166 217.282 211.824 210.721L209.953 208.796C208.867 207.671 207.5 206.858 205.994 206.44C204.488 206.022 202.897 206.014 201.387 206.418C199.876 206.822 198.502 207.623 197.406 208.738C196.309 209.852 195.531 211.24 195.152 212.756L194.504 215.366C192.287 224.217 179.722 224.217 177.496 215.366L176.848 212.756C176.469 211.24 175.691 209.852 174.594 208.738C173.498 207.623 172.124 206.822 170.613 206.418C169.103 206.014 167.512 206.022 166.006 206.44C164.5 206.858 163.133 207.671 162.047 208.796L160.176 210.721C153.834 217.282 142.948 210.995 145.458 202.226L146.188 199.635C146.617 198.133 146.636 196.544 146.245 195.033C145.854 193.521 145.065 192.141 143.961 191.037C142.858 189.932 141.479 189.142 139.967 188.75C138.456 188.357 136.867 188.376 135.365 188.803L132.774 189.542C124.014 192.052 117.718 181.166 124.279 174.824L126.204 172.953C127.329 171.867 128.142 170.5 128.56 168.994C128.978 167.488 128.986 165.897 128.582 164.387C128.178 162.876 127.377 161.502 126.262 160.406C125.148 159.309 123.76 158.531 122.244 158.152L119.634 157.504C110.783 155.287 110.783 142.722 119.634 140.495L122.244 139.848C123.76 139.469 125.148 138.691 126.262 137.594C127.377 136.498 128.178 135.123 128.582 133.613C128.986 132.103 128.978 130.512 128.56 129.006C128.142 127.5 127.329 126.133 126.204 125.047L124.279 123.176C117.718 116.834 124.005 105.948 132.774 108.458L135.365 109.188C136.867 109.617 138.456 109.636 139.967 109.245C141.479 108.854 142.859 108.065 143.963 106.961C145.068 105.858 145.858 104.479 146.25 102.967C146.643 101.456 146.624 99.8672 146.197 98.3654L145.458 95.7739C142.948 87.0139 153.834 80.7176 160.176 87.2785L162.047 89.2039C163.133 90.3285 164.5 91.1422 166.006 91.5603C167.512 91.9784 169.103 91.9858 170.613 91.5818C172.124 91.1777 173.498 90.3768 174.594 89.2623C175.691 88.1478 176.469 86.7602 176.848 85.2436L177.496 82.6339ZM231.379 153.562H188.281L162.421 188.046C169.008 192.024 176.495 194.271 184.184 194.578C191.873 194.884 199.515 193.24 206.398 189.798C213.281 186.356 219.181 181.229 223.549 174.893C227.916 168.557 230.61 161.219 231.379 153.562ZM231.379 144.437C230.61 136.781 227.916 129.443 223.549 123.107C219.181 116.771 213.281 111.644 206.398 108.202C199.515 104.76 191.873 103.116 184.184 103.422C176.495 103.728 169.008 105.976 162.421 109.954L188.281 144.447L231.379 144.437ZM159.063 112.199C158.789 112.39 158.534 112.591 158.269 112.792L159.063 112.199ZM155.13 115.438C150.48 119.704 146.768 124.891 144.231 130.669C141.694 136.447 140.387 142.689 140.393 149C140.393 162.277 146.069 174.231 155.13 182.562L180.297 149L155.13 115.438Z" fill="black"/>
</g>
<g clip-path="url(#clip1_2_17)">
<path d="M299.849 170.119C297.836 163.294 288.164 163.294 286.151 170.119L285.663 171.776C285.362 172.798 284.837 173.74 284.125 174.532C283.412 175.324 282.532 175.947 281.548 176.354C280.564 176.762 279.501 176.944 278.438 176.887C277.374 176.831 276.337 176.537 275.401 176.027L273.89 175.199C267.635 171.796 260.796 178.635 264.203 184.885L265.027 186.401C267.202 190.399 265.139 195.376 260.776 196.663L259.119 197.151C252.294 199.164 252.294 208.836 259.119 210.849L260.776 211.337C261.798 211.638 262.74 212.163 263.532 212.875C264.324 213.588 264.947 214.468 265.354 215.452C265.762 216.436 265.944 217.499 265.887 218.562C265.831 219.626 265.537 220.663 265.027 221.599L264.199 223.11C260.796 229.365 267.635 236.204 273.885 232.797L275.401 231.973C276.337 231.463 277.374 231.169 278.438 231.113C279.501 231.056 280.564 231.238 281.548 231.646C282.532 232.053 283.412 232.676 284.125 233.468C284.837 234.26 285.362 235.202 285.663 236.224L286.151 237.881C288.164 244.706 297.836 244.706 299.849 237.881L300.337 236.224C300.638 235.202 301.163 234.26 301.875 233.468C302.588 232.676 303.468 232.053 304.452 231.646C305.436 231.238 306.499 231.056 307.562 231.113C308.626 231.169 309.663 231.463 310.599 231.973L312.11 232.801C318.365 236.204 325.204 229.365 321.797 223.115L320.973 221.599C320.463 220.663 320.169 219.626 320.113 218.562C320.056 217.499 320.238 216.436 320.646 215.452C321.053 214.468 321.676 213.588 322.468 212.875C323.26 212.163 324.202 211.638 325.224 211.337L326.881 210.849C333.706 208.836 333.706 199.164 326.881 197.151L325.224 196.663C324.202 196.362 323.26 195.837 322.468 195.125C321.676 194.412 321.053 193.532 320.646 192.548C320.238 191.564 320.056 190.501 320.113 189.438C320.169 188.374 320.463 187.337 320.973 186.401L321.801 184.89C325.204 178.635 318.365 171.796 312.115 175.203L310.599 176.027C309.663 176.537 308.626 176.831 307.562 176.887C306.499 176.944 305.436 176.762 304.452 176.354C303.468 175.947 302.588 175.324 301.875 174.532C301.163 173.74 300.638 172.798 300.337 171.776L299.849 170.119ZM293 218.284C289.212 218.284 285.579 216.779 282.9 214.1C280.221 211.421 278.716 207.788 278.716 204C278.716 200.212 280.221 196.579 282.9 193.9C285.579 191.221 289.212 189.716 293 189.716C296.787 189.716 300.419 191.221 303.097 193.898C305.774 196.576 307.279 200.208 307.279 203.995C307.279 207.782 305.774 211.414 303.097 214.092C300.419 216.77 296.787 218.274 293 218.274V218.284Z" fill="black"/>
</g>
<g clip-path="url(#clip2_2_17)">
<path d="M276 272.958C273.762 272.958 271.546 273.399 269.478 274.256C267.411 275.112 265.532 276.367 263.95 277.95C262.367 279.532 261.112 281.411 260.256 283.478C259.399 285.546 258.958 287.762 258.958 290C258.958 292.238 259.399 294.454 260.256 296.521C261.112 298.589 262.367 300.468 263.95 302.05C265.532 303.633 267.411 304.888 269.478 305.744C271.546 306.601 273.762 307.041 276 307.041C280.52 307.041 284.854 305.246 288.05 302.05C291.246 298.854 293.041 294.52 293.041 290C293.041 285.48 291.246 281.146 288.05 277.95C284.854 274.754 280.52 272.958 276 272.958ZM264.208 290C264.208 286.873 265.451 283.873 267.662 281.662C269.873 279.451 272.873 278.208 276 278.208C279.127 278.208 282.127 279.451 284.338 281.662C286.549 283.873 287.791 286.873 287.791 290C287.791 293.127 286.549 296.127 284.338 298.338C282.127 300.549 279.127 301.791 276 301.791C272.873 301.791 269.873 300.549 267.662 298.338C265.451 296.127 264.208 293.127 264.208 290Z" fill="black"/>
<path d="M285.429 255.051C282.662 245.653 269.338 245.653 266.571 255.051L266.078 256.726C265.884 257.382 265.547 257.986 265.09 258.495C264.632 259.003 264.067 259.403 263.435 259.665C262.804 259.927 262.121 260.044 261.438 260.007C260.755 259.971 260.089 259.783 259.489 259.456L257.956 258.616C249.346 253.933 239.933 263.351 244.621 271.956L245.456 273.489C245.783 274.089 245.971 274.755 246.007 275.438C246.044 276.121 245.927 276.804 245.665 277.435C245.403 278.067 245.003 278.632 244.495 279.09C243.986 279.547 243.382 279.884 242.726 280.078L241.051 280.571C231.653 283.338 231.653 296.662 241.051 299.429L242.726 299.923C243.382 300.116 243.986 300.453 244.495 300.91C245.003 301.368 245.403 301.933 245.665 302.565C245.927 303.196 246.044 303.879 246.007 304.562C245.971 305.245 245.783 305.911 245.456 306.511L244.616 308.044C239.933 316.654 249.346 326.073 257.956 321.379L259.489 320.545C260.089 320.217 260.755 320.029 261.438 319.993C262.121 319.956 262.804 320.074 263.435 320.335C264.067 320.597 264.632 320.997 265.09 321.505C265.547 322.014 265.884 322.619 266.078 323.275L266.571 324.949C269.338 334.347 282.662 334.347 285.429 324.949L285.923 323.275C286.116 322.619 286.453 322.014 286.91 321.505C287.368 320.997 287.933 320.597 288.565 320.335C289.196 320.074 289.879 319.956 290.562 319.993C291.245 320.029 291.911 320.217 292.511 320.545L294.044 321.385C302.654 326.073 312.073 316.649 307.379 308.044L306.545 306.511C306.217 305.911 306.029 305.245 305.993 304.562C305.956 303.879 306.074 303.196 306.335 302.565C306.597 301.933 306.997 301.368 307.505 300.91C308.014 300.453 308.619 300.116 309.275 299.923L310.949 299.429C320.347 296.662 320.347 283.338 310.949 280.571L309.275 280.078C308.619 279.884 308.014 279.547 307.505 279.09C306.997 278.632 306.597 278.067 306.335 277.435C306.074 276.804 305.956 276.121 305.993 275.438C306.029 274.755 306.217 274.089 306.545 273.489L307.385 271.956C312.073 263.346 302.649 253.933 294.044 258.621L292.511 259.456C291.911 259.783 291.245 259.971 290.562 260.007C289.879 260.044 289.196 259.927 288.565 259.665C287.933 259.403 287.368 259.003 286.91 258.495C286.453 257.986 286.116 257.382 285.923 256.726L285.429 255.051ZM271.606 256.537C272.897 252.153 279.103 252.153 280.394 256.537L280.888 258.211C281.303 259.619 282.027 260.915 283.008 262.007C283.99 263.098 285.202 263.955 286.558 264.516C287.914 265.078 289.378 265.329 290.843 265.25C292.308 265.172 293.738 264.767 295.026 264.065L296.554 263.225C300.565 261.046 304.954 265.43 302.77 269.446L301.935 270.979C301.234 272.268 300.83 273.697 300.753 275.162C300.675 276.627 300.927 278.09 301.489 279.445C302.05 280.8 302.908 282.013 303.999 282.993C305.09 283.974 306.387 284.698 307.794 285.112L309.464 285.606C313.847 286.897 313.847 293.103 309.464 294.394L307.789 294.888C306.381 295.303 305.085 296.027 303.994 297.008C302.903 297.99 302.045 299.202 301.484 300.558C300.922 301.914 300.672 303.378 300.75 304.843C300.828 306.308 301.233 307.738 301.935 309.026L302.775 310.554C304.954 314.565 300.57 318.954 296.554 316.77L295.026 315.935C293.737 315.233 292.308 314.828 290.842 314.75C289.377 314.672 287.912 314.924 286.557 315.486C285.201 316.047 283.988 316.906 283.007 317.997C282.026 319.089 281.302 320.386 280.888 321.794L280.394 323.464C279.103 327.847 272.897 327.847 271.606 323.464L271.112 321.789C270.697 320.382 269.973 319.086 268.992 317.996C268.011 316.905 266.799 316.048 265.444 315.487C264.089 314.925 262.625 314.674 261.161 314.752C259.696 314.83 258.267 315.234 256.979 315.935L255.446 316.775C251.435 318.954 247.046 314.57 249.23 310.554L250.065 309.026C250.768 307.737 251.174 306.308 251.253 304.842C251.331 303.376 251.081 301.911 250.519 300.555C249.958 299.198 249.1 297.985 248.008 297.003C246.917 296.022 245.619 295.297 244.211 294.883L242.537 294.389C238.153 293.098 238.153 286.892 242.537 285.601L244.211 285.107C245.617 284.692 246.913 283.967 248.003 282.987C249.092 282.007 249.949 280.795 250.511 279.44C251.072 278.086 251.323 276.623 251.246 275.159C251.169 273.695 250.765 272.267 250.065 270.979L249.225 269.446C247.046 265.435 251.43 261.046 255.446 263.23L256.979 264.065C258.267 264.766 259.696 265.171 261.161 265.248C262.625 265.326 264.089 265.075 265.444 264.513C266.799 263.952 268.011 263.095 268.992 262.005C269.973 260.914 270.697 259.618 271.112 258.211L271.606 256.537Z" fill="black"/>
</g>
<g clip-path="url(#clip3_2_17)">
<path d="M177.83 278.498C175.658 269.828 163.351 269.828 161.17 278.498L160.536 281.054C160.164 282.539 159.402 283.898 158.329 284.99C157.255 286.081 155.909 286.866 154.43 287.262C152.95 287.657 151.392 287.65 149.917 287.241C148.441 286.831 147.103 286.034 146.039 284.933L144.207 283.047C137.995 276.621 127.333 282.779 129.791 291.368L130.506 293.906C130.926 295.376 130.945 296.933 130.562 298.413C130.179 299.894 129.406 301.245 128.325 302.327C127.244 303.409 125.894 304.182 124.413 304.567C122.933 304.952 121.377 304.934 119.906 304.515L117.368 303.791C108.788 301.333 102.621 311.995 109.047 318.207L110.933 320.039C112.034 321.103 112.831 322.441 113.241 323.917C113.65 325.392 113.657 326.95 113.262 328.429C112.866 329.909 112.081 331.255 110.99 332.329C109.898 333.402 108.539 334.164 107.054 334.536L104.498 335.17C95.8282 337.342 95.8282 349.649 104.498 351.83L107.054 352.464C108.539 352.836 109.898 353.598 110.99 354.671C112.081 355.745 112.866 357.091 113.262 358.571C113.657 360.05 113.65 361.608 113.241 363.083C112.831 364.559 112.034 365.897 110.933 366.961L109.047 368.793C102.621 375.005 108.779 385.667 117.368 383.209L119.906 382.494C121.377 382.073 122.935 382.054 124.416 382.437C125.898 382.821 127.25 383.594 128.332 384.676C129.415 385.759 130.188 387.111 130.572 388.593C130.955 390.074 130.936 391.632 130.515 393.103L129.791 395.632C127.333 404.212 137.995 410.379 144.207 403.953L146.039 402.067C147.103 400.966 148.441 400.169 149.917 399.759C151.392 399.35 152.95 399.343 154.43 399.738C155.909 400.134 157.255 400.919 158.329 402.01C159.402 403.102 160.164 404.461 160.536 405.946L161.17 408.502C163.342 417.172 175.649 417.172 177.83 408.502L178.464 405.946C178.836 404.461 179.598 403.102 180.671 402.01C181.745 400.919 183.091 400.134 184.571 399.738C186.05 399.343 187.608 399.35 189.083 399.759C190.559 400.169 191.897 400.966 192.961 402.067L194.793 403.953C201.005 410.379 211.667 404.221 209.209 395.632L208.494 393.094C208.073 391.623 208.054 390.065 208.437 388.584C208.821 387.102 209.594 385.75 210.676 384.668C211.759 383.585 213.111 382.812 214.593 382.428C216.074 382.045 217.632 382.064 219.103 382.485L221.632 383.209C230.212 385.667 236.379 375.005 229.953 368.793L228.067 366.961C226.966 365.897 226.169 364.559 225.759 363.083C225.35 361.608 225.343 360.05 225.738 358.571C226.134 357.091 226.919 355.745 228.01 354.671C229.102 353.598 230.461 352.836 231.946 352.464L234.502 351.83C243.172 349.658 243.172 337.351 234.502 335.17L231.946 334.536C230.461 334.164 229.102 333.402 228.01 332.329C226.919 331.255 226.134 329.909 225.738 328.429C225.343 326.95 225.35 325.392 225.759 323.917C226.169 322.441 226.966 321.103 228.067 320.039L229.953 318.207C236.379 311.995 230.221 301.333 221.632 303.791L219.094 304.506C217.624 304.926 216.067 304.945 214.587 304.562C213.106 304.178 211.755 303.406 210.673 302.325C209.591 301.244 208.818 299.894 208.433 298.413C208.048 296.933 208.066 295.377 208.485 293.906L209.209 291.368C211.667 282.788 201.005 276.621 194.793 283.047L192.961 284.933C191.897 286.034 190.559 286.831 189.083 287.241C187.608 287.65 186.05 287.657 184.571 287.262C183.091 286.866 181.745 286.081 180.671 284.99C179.598 283.898 178.836 282.539 178.464 281.054L177.83 278.498ZM169.5 388.161C163.581 388.244 157.705 387.151 152.213 384.944C146.72 382.737 141.721 379.46 137.506 375.304C133.291 371.148 129.944 366.196 127.66 360.736C125.375 355.275 124.199 349.415 124.199 343.496C124.199 337.576 125.375 331.716 127.66 326.255C129.944 320.795 133.291 315.843 137.506 311.687C141.721 307.531 146.72 304.254 152.213 302.047C157.705 299.84 163.581 298.747 169.5 298.83C181.347 298.83 192.709 303.537 201.086 311.914C209.463 320.291 214.17 331.653 214.17 343.5C214.17 355.347 209.463 366.709 201.086 375.086C192.709 383.463 181.347 388.17 169.5 388.17V388.161Z" fill="black"/>
</g>
<defs>
<clipPath id="clip0_2_17">
<rect width="146" height="146" fill="white" transform="translate(113 76)"/>
</clipPath>
<clipPath id="clip1_2_17">
<rect width="78" height="78" fill="white" transform="translate(254 165)"/>
</clipPath>
<clipPath id="clip2_2_17">
<rect width="84" height="84" fill="white" transform="translate(234 248)"/>
</clipPath>
<clipPath id="clip3_2_17">
<rect width="143" height="143" fill="white" transform="translate(98 272)"/>
</clipPath>
</defs>
</svg>
