<?xml version="1.0" encoding="utf-8"?>
<!-- Generator: Adobe Illustrator 19.2.1, SVG Export Plug-In . SVG Version: 6.00 Build 0)  -->
<svg version="1.1" id="layer" xmlns="http://www.w3.org/2000/svg" xmlns:xlink="http://www.w3.org/1999/xlink" x="0px"
	y="0px" viewBox="0 0 652 652" style="enable-background:new 0 0 652 652;" xml:space="preserve">
	<style type="text/css">
		.st0 {
			fill: #fcbb60;
		}

		.st1 {
			fill: #faf9f7;
		}

		.st2 {
			fill: #faf9f7;
		}
	</style>
	<path class="st0" d="M156.9,260.6c-0.7,2.9-3,4.9-5.1,4.4c-2.2-0.5-3.4-3.3-2.8-6.4c0.7-3.1,3.1-5.2,5.3-4.6
	C156.5,254.7,157.6,257.6,156.9,260.6 M143.5,257.9c0.2-3.3-1.6-6-4.2-6.1c-2.6-0.1-4.8,2.6-4.8,6c-0.1,3.3,1.9,5.8,4.3,5.8
	C141.2,263.6,143.3,261.1,143.5,257.9 M128.4,258.4c-0.5-3.4-3-5.7-5.7-5.2c-2.8,0.5-4.5,3.8-3.9,7.2c0.6,3.3,3.2,5.4,5.8,4.8
	C127.1,264.8,128.8,261.7,128.4,258.4 M112.4,262.6c-1.2-3.3-4.4-5-7.1-3.8c-2.8,1.2-3.9,4.9-2.5,8.1c1.3,3.1,4.5,4.6,7,3.5
	C112.4,269.2,113.6,265.7,112.4,262.6 M96.7,270.3c-1.9-2.9-5.5-3.9-8.1-2.1c-2.5,1.8-2.8,5.6-0.8,8.4c2,2.7,5.5,3.5,7.9,1.8
	C98.1,276.8,98.6,273.2,96.7,270.3 M82.6,281.3c-2.5-2.4-6.4-2.5-8.4-0.3c-2.1,2.2-1.5,5.9,1.1,8.2c2.5,2.2,6.2,2.2,8.1,0.1
	C85.4,287.2,85.1,283.7,82.6,281.3 M188.7,312.7c-1.4,0.5-2.7,2.2-2.9,3.7c-0.2,1.5,0.7,2.2,2.1,1.7c1.3-0.5,2.6-2.1,2.9-3.6
	C191,313,190.1,312.1,188.7,312.7 M189,303.5c-1.5,0.8-2.7,2.8-2.7,4.3c0,1.5,1.2,2.1,2.6,1.3c1.4-0.8,2.6-2.7,2.7-4.2
	C191.7,303.3,190.5,302.6,189,303.5 M187.7,294.1c-1.6,1.1-2.6,3.4-2.3,4.9c0.3,1.5,1.7,1.9,3.2,0.7c1.5-1.1,2.5-3.3,2.3-4.8
	C190.8,293.4,189.3,293,187.7,294.1 M184.6,284.9c-1.6,1.5-2.3,4-1.7,5.5c0.6,1.5,2.3,1.5,3.8,0c1.5-1.5,2.3-3.9,1.8-5.4
	C187.9,283.5,186.2,283.4,184.6,284.9 M179.3,276.2c-1.5,1.9-1.9,4.6-0.9,6c1,1.4,2.9,1,4.4-0.8c1.5-1.8,2-4.5,1-6
	C182.9,273.9,180.9,274.3,179.3,276.2 M171.7,268.5c-1.4,2.3-1.3,5.2,0.1,6.4c1.4,1.2,3.5,0.3,4.8-1.9c1.4-2.2,1.4-5.1,0.1-6.4
	C175.3,265.3,173.1,266.1,171.7,268.5 M161.5,262.4c-1.1,2.7-0.5,5.6,1.3,6.6c1.8,0.9,4-0.5,5.1-3.1c1.1-2.6,0.6-5.6-1.1-6.6
	C165,258.2,162.7,259.6,161.5,262.4 M152.8,275c0.6-2.3-0.4-4.5-2.2-4.9c-1.8-0.4-3.7,1.3-4.2,3.7c-0.5,2.3,0.5,4.5,2.3,4.7
	C150.4,278.8,152.3,277.2,152.8,275 M141.9,273.4c0.1-2.4-1.4-4.4-3.4-4.4c-2,0.1-3.8,2.2-3.9,4.7c-0.1,2.5,1.5,4.3,3.5,4.2
	C140.1,277.8,141.8,275.8,141.9,273.4 M129.9,274.4c-0.3-2.5-2.3-4.1-4.5-3.6c-2.2,0.5-3.6,3-3.1,5.5c0.4,2.4,2.5,3.9,4.5,3.4
	C128.8,279.2,130.2,276.8,129.9,274.4 M117.3,278.1c-0.9-2.4-3.3-3.5-5.4-2.5c-2.1,1-3.1,3.7-2.1,6.1c1,2.3,3.4,3.3,5.4,2.3
	C117.2,283,118.1,280.4,117.3,278.1 M105,284.4c-1.4-2.1-4.1-2.7-6.1-1.3c-2,1.4-2.3,4.3-0.8,6.3c1.4,2,4.1,2.5,6,1.1
	C105.9,289.2,106.4,286.5,105,284.4 M93.9,293c-1.8-1.7-4.7-1.7-6.4,0c-1.6,1.7-1.4,4.5,0.5,6.1c1.9,1.6,4.6,1.5,6.2-0.1
	C95.9,297.4,95.7,294.7,93.9,293 M181.4,308.1c-1.3,0.7-2.3,2.4-2.2,3.7c0.1,1.3,1.1,1.7,2.4,1c1.2-0.7,2.2-2.3,2.2-3.6
	C183.7,307.9,182.6,307.4,181.4,308.1 M179.9,300.4c-1.3,1-2.1,2.8-1.8,4.1c0.3,1.3,1.6,1.5,2.9,0.5c1.3-0.9,2.1-2.7,1.8-4
	C182.5,299.7,181.2,299.4,179.9,300.4 M176.8,293c-1.3,1.3-1.9,3.3-1.3,4.5c0.6,1.2,2.1,1.2,3.4-0.1c1.3-1.2,1.9-3.2,1.3-4.4
	C179.6,291.8,178.1,291.8,176.8,293 M172,286.2c-1.2,1.6-1.5,3.7-0.6,4.8c0.9,1.1,2.5,0.7,3.8-0.8c1.2-1.5,1.5-3.6,0.7-4.8
	C174.9,284.3,173.2,284.7,172,286.2 M165.3,280.5c-1.1,1.9-1,4.1,0.2,5c1.2,0.9,3,0.2,4.1-1.6c1.1-1.8,1-4-0.1-5
	C168.2,277.9,166.4,278.6,165.3,280.5 M156.7,276.2c-0.9,2.1-0.3,4.4,1.2,5c1.5,0.6,3.4-0.5,4.2-2.6c0.9-2.1,0.4-4.4-1.1-5
	C159.5,272.8,157.5,274,156.7,276.2 M149.6,286.1c0.4-1.8-0.4-3.5-1.9-3.7c-1.5-0.2-3,1.1-3.5,3c-0.4,1.8,0.5,3.4,1.9,3.6
	C147.7,289.2,149.2,287.9,149.6,286.1 M140.7,285.3c0.1-1.9-1.1-3.4-2.7-3.2c-1.6,0.1-3,1.8-3.1,3.7c-0.1,1.9,1.2,3.3,2.8,3.1
	C139.2,288.8,140.6,287.2,140.7,285.3 M131,286.4c-0.3-1.9-1.9-3.1-3.6-2.6c-1.7,0.5-2.9,2.4-2.5,4.3c0.3,1.9,1.9,3,3.6,2.5
	C130.1,290.1,131.2,288.3,131,286.4 M120.9,289.6c-0.7-1.8-2.6-2.6-4.2-1.8c-1.7,0.8-2.5,2.9-1.7,4.7c0.7,1.7,2.6,2.5,4.2,1.7
	C120.8,293.4,121.6,291.3,120.9,289.6 M111.2,294.8c-1-1.6-3.2-2-4.7-0.8c-1.6,1.1-1.9,3.3-0.8,4.8c1.1,1.5,3.2,1.8,4.7,0.7
	C111.8,298.4,112.2,296.3,111.2,294.8 M102.3,301.7c-1.4-1.3-3.6-1.2-4.9,0.1c-1.3,1.4-1.2,3.5,0.2,4.7c1.4,1.2,3.6,1.1,4.8-0.2
	C103.7,305,103.7,302.9,102.3,301.7 M165.9,294.5c-1,1.3-1.2,3-0.4,3.9c0.8,0.8,2.2,0.5,3.2-0.7c1-1.2,1.2-3,0.5-3.9
	C168.4,292.8,167,293.2,165.9,294.5 M160.1,290.1c-0.9,1.5-0.7,3.3,0.3,4c1,0.7,2.5,0,3.4-1.4c0.9-1.5,0.8-3.2-0.2-4
	C162.6,287.9,161,288.5,160.1,290.1 M152.9,286.9c-0.7,1.7-0.2,3.4,1.1,3.9c1.2,0.5,2.8-0.5,3.5-2.1c0.7-1.7,0.3-3.4-1-3.9
	C155.1,284.2,153.5,285.2,152.9,286.9 M53.9,397c2.7-1.3,4.1-4,3.2-5.9c-0.9-2-4-2.6-6.8-1.4c-2.9,1.3-4.4,4.1-3.4,6.1
	C48,397.9,51.1,398.4,53.9,397 M48.5,384.5c3.1-0.9,5.1-3.4,4.6-5.8c-0.5-2.4-3.4-3.8-6.6-3c-3.3,0.8-5.5,3.5-4.8,6
	C42.2,384.2,45.3,385.4,48.5,384.5 M45.8,369.6c3.3-0.3,5.9-2.6,5.9-5.2c0-2.7-2.6-4.8-5.9-4.6c-3.5,0.1-6.3,2.6-6.2,5.4
	C39.6,367.9,42.4,369.9,45.8,369.6 M46.5,353.1c3.3,0.5,6.4-1.4,7-4.2c0.6-2.8-1.5-5.5-4.9-6.2c-3.4-0.6-6.8,1.2-7.4,4.2
	C40.6,349.9,43,352.7,46.5,353.1 M102.6,419.4c-0.5,1.6,0.4,2.6,1.9,2.3c1.5-0.4,3.1-1.9,3.6-3.5c0.5-1.6-0.3-2.6-1.8-2.3
	C104.7,416.2,103.1,417.8,102.6,419.4 M93.2,420.1c-0.8,1.8-0.1,3.1,1.5,3c1.6-0.1,3.5-1.5,4.2-3.2c0.8-1.7,0.1-3-1.4-3
	C95.9,416.9,94,418.4,93.2,420.1 M83.5,419c-1.1,1.9-0.7,3.6,1,3.8c1.6,0.2,3.8-1.1,4.9-2.9c1.1-1.8,0.7-3.5-0.9-3.7
	C86.9,415.9,84.7,417.1,83.5,419 M73.9,415.7c-1.6,1.9-1.5,4,0.2,4.6c1.6,0.6,4.1-0.4,5.6-2.3c1.5-1.8,1.4-3.8-0.1-4.5
	C78,412.8,75.4,413.8,73.9,415.7 M64.7,409.8c-2,1.8-2.4,4.2-0.8,5.3c1.6,1,4.3,0.4,6.2-1.4c1.9-1.8,2.3-4.1,0.8-5.1
	C69.5,407.4,66.7,408,64.7,409.8 M56.7,401.2c-2.5,1.7-3.4,4.3-2,5.8c1.4,1.5,4.4,1.4,6.7-0.3c2.3-1.6,3.2-4.1,1.9-5.7
	C62.1,399.6,59.1,399.6,56.7,401.2 M67.1,390c2.1-1,3.3-3.1,2.6-4.8c-0.7-1.7-3-2.3-5.1-1.3c-2.2,1-3.4,3.2-2.7,4.9
	C62.6,390.6,64.9,391.1,67.1,390 M63.3,379.7c2.3-0.6,3.9-2.7,3.6-4.6c-0.3-2-2.5-3.1-4.8-2.5c-2.4,0.6-4.1,2.8-3.7,4.7
	C58.7,379.3,60.9,380.4,63.3,379.7 M61.7,367.7c2.4-0.2,4.5-2,4.5-4.1c0.1-2.1-1.8-3.8-4.3-3.7c-2.5,0.1-4.7,2-4.7,4.2
	C57.2,366.3,59.2,367.9,61.7,367.7 M97.7,411.1c-0.7,1.5-0.1,2.7,1.2,2.7c1.3,0,2.9-1.2,3.5-2.6c0.7-1.4,0.2-2.7-1.1-2.7
	C100,408.4,98.4,409.6,97.7,411.1 M89.8,409.6c-1,1.6-0.6,3,0.7,3.3c1.3,0.3,3.1-0.7,4.1-2.2c0.9-1.5,0.6-3-0.6-3.3
	C92.6,407.1,90.8,408.1,89.8,409.6 M82.2,406.3c-1.3,1.6-1.2,3.3,0.1,3.9c1.3,0.6,3.3-0.2,4.5-1.7c1.2-1.5,1.2-3.2,0-3.8
	C85.5,404.1,83.4,404.8,82.2,406.3 M75.1,401c-1.6,1.5-1.9,3.5-0.7,4.4c1.2,0.9,3.4,0.5,4.9-0.9c1.5-1.4,1.9-3.3,0.7-4.3
	C78.9,399.2,76.7,399.6,75.1,401 M69.1,393.5c-1.9,1.3-2.7,3.5-1.7,4.8c1,1.3,3.3,1.3,5.2,0c1.8-1.3,2.5-3.3,1.6-4.7
	C73.3,392.3,71,392.3,69.1,393.5 M77.3,384.6c1.6-0.8,2.6-2.5,2.1-3.9c-0.5-1.4-2.2-1.9-3.9-1.1c-1.7,0.8-2.7,2.6-2.2,4
	C73.9,384.9,75.7,385.4,77.3,384.6 M74.6,376c1.8-0.5,3.1-2.2,2.9-3.7c-0.2-1.6-1.8-2.5-3.7-2.1c-1.9,0.5-3.2,2.2-2.9,3.8
	C71.1,375.6,72.8,376.5,74.6,376 M83.4,394c-1.3,1.2-1.6,2.9-0.7,3.7c0.9,0.8,2.7,0.6,3.9-0.6c1.2-1.2,1.5-2.8,0.7-3.6
	C86.4,392.6,84.7,392.8,83.4,394 M78.8,387.5c-1.5,1-2.1,2.8-1.4,4c0.7,1.1,2.6,1.2,4,0.2c1.5-1,2.1-2.7,1.4-3.9
	C82.1,386.6,80.3,386.5,78.8,387.5" />
	<path class="st1" d="M29.9,254.5c3,0.6,5,2.9,4.5,5c-0.4,2.2-3.2,3.5-6.3,2.9c-3.1-0.6-5.3-2.9-4.7-5.2
	C24,255.1,26.9,253.9,29.9,254.5 M27.6,267.9c-3.3-0.1-6,1.8-6,4.3c0,2.6,2.8,4.7,6.1,4.7c3.3,0,5.8-2,5.7-4.4
	C33.3,270.1,30.8,268.1,27.6,267.9 M28.5,283c-3.3,0.5-5.6,3.2-5,5.9c0.6,2.7,3.9,4.4,7.3,3.7c3.3-0.7,5.3-3.3,4.7-5.9
	C34.8,284.2,31.7,282.5,28.5,283 M33,298.9c-3.2,1.3-4.9,4.5-3.6,7.2c1.3,2.7,5,3.8,8.2,2.3c3.1-1.4,4.5-4.6,3.3-7.1
	C39.6,298.8,36.1,297.7,33,298.9 M41.2,314.4c-2.9,2-3.8,5.6-1.9,8.1c1.9,2.5,5.7,2.7,8.5,0.6c2.7-2.1,3.4-5.6,1.6-7.9
	C47.6,312.8,44,312.5,41.2,314.4 M52.5,328.3c-2.3,2.6-2.4,6.4-0.1,8.4c2.3,2,6,1.4,8.2-1.3c2.1-2.6,2-6.2-0.1-8.1
	C58.3,325.3,54.8,325.7,52.5,328.3 M66.2,339.4c-1.7,3-1,6.7,1.6,8.2c2.5,1.4,5.8,0,7.3-3c1.4-3,0.7-6.4-1.7-7.8
	C71,335.3,67.8,336.4,66.2,339.4 M80.9,347.1c-1,3.2,0.4,6.6,3,7.3c2.5,0.8,5.2-1.3,6.1-4.5c0.8-3.1-0.5-6.2-2.9-7
	C84.6,342.1,81.8,343.9,80.9,347.1 M95.7,351.1c-0.3,3.2,1.5,6,3.9,6.2c2.4,0.1,4.4-2.3,4.6-5.5c0.2-3.1-1.5-5.7-3.8-5.9
	C98.1,345.6,96,347.9,95.7,351.1 M109.4,351.6c0.3,3,2.2,5.2,4.4,4.8c2.1-0.4,3.5-3.1,3.2-6c-0.3-2.9-2.2-4.9-4.2-4.7
	C110.7,346,109.2,348.6,109.4,351.6 M121.6,349.1c0.7,2.7,2.7,4.3,4.5,3.5c1.8-0.8,2.6-3.6,1.9-6.2c-0.7-2.6-2.6-4.1-4.4-3.4
	C121.8,343.6,120.9,346.4,121.6,349.1 M131.7,344.2c1,2.4,3,3.4,4.4,2.2c1.4-1.1,1.7-3.8,0.8-6.1c-1-2.2-2.8-3.2-4.2-2.2
	C131.2,339.1,130.7,341.8,131.7,344.2 M81.2,221.4c0.6,1.4,2.3,2.6,3.8,2.8c1.5,0.2,2.2-0.8,1.7-2.1c-0.6-1.3-2.2-2.6-3.7-2.8
	C81.4,219.1,80.6,220,81.2,221.4 M139.7,337.5c1.2,2,3,2.5,4,1.2c1-1.3,1-3.9-0.2-5.8c-1.1-1.9-2.9-2.4-3.9-1.2
	C138.6,332.9,138.6,335.5,139.7,337.5 M72,221.3c0.9,1.5,2.8,2.6,4.4,2.5c1.5-0.1,2.1-1.3,1.2-2.7c-0.8-1.4-2.7-2.5-4.3-2.5
	C71.7,218.7,71.1,219.8,72,221.3 M145.7,329.7c1.2,1.6,2.9,1.7,3.6,0.2c0.7-1.4,0.3-3.8-0.9-5.4c-1.2-1.5-2.8-1.7-3.5-0.3
	C144.1,325.6,144.5,328.1,145.7,329.7 M62.6,222.8c1.2,1.5,3.4,2.5,5,2.1c1.5-0.3,1.8-1.8,0.7-3.3c-1.1-1.5-3.3-2.4-4.9-2.2
	C61.8,219.8,61.5,221.3,62.6,222.8 M149.8,321.1c1.3,1.2,2.7,1,3.1-0.5c0.4-1.5-0.2-3.7-1.5-4.9c-1.2-1.2-2.6-1.1-3.1,0.4
	C147.9,317.6,148.5,319.9,149.8,321.1 M53.5,226.2c1.6,1.5,4.1,2.2,5.6,1.6c1.5-0.7,1.4-2.4-0.1-3.8c-1.5-1.5-3.9-2.2-5.5-1.6
	C52,222.9,52,224.7,53.5,226.2 M152.2,312.2c1.3,0.9,2.4,0.4,2.6-1.1c0.2-1.5-0.7-3.4-1.9-4.4c-1.2-0.9-2.4-0.5-2.6,1
	C150.1,309.3,151,311.3,152.2,312.2 M45,231.7c2,1.5,4.7,1.8,6,0.8c1.3-1,0.9-3-0.9-4.4c-1.9-1.4-4.5-1.8-6-0.9
	C42.6,228.2,43,230.2,45,231.7 M37.4,239.5c2.4,1.3,5.2,1.2,6.4-0.2c1.1-1.4,0.2-3.5-2-4.8c-2.3-1.3-5.1-1.3-6.4,0.1
	C34.2,236,35.1,238.2,37.4,239.5 M31.6,249.8c2.8,1,5.7,0.3,6.5-1.5c0.8-1.8-0.6-4-3.2-5c-2.7-1-5.6-0.5-6.6,1.3
	C27.3,246.4,28.8,248.8,31.6,249.8 M44.4,258.2c-2.3-0.5-4.5,0.5-4.8,2.3c-0.3,1.8,1.4,3.7,3.8,4.2c2.4,0.5,4.4-0.7,4.7-2.4
	C48.3,260.5,46.7,258.7,44.4,258.2 M43.1,269.1c-2.5-0.1-4.4,1.5-4.3,3.5c0.1,2,2.2,3.7,4.7,3.7c2.5,0,4.3-1.6,4.1-3.6
	C47.6,270.9,45.5,269.2,43.1,269.1 M44.4,281.2c-2.5,0.4-4,2.4-3.5,4.6c0.6,2.1,3.1,3.5,5.6,3c2.4-0.5,3.9-2.6,3.3-4.6
	C49.2,282.1,46.8,280.8,44.4,281.2 M48.4,293.6c-2.4,0.9-3.5,3.4-2.4,5.5c1,2.1,3.8,3,6.1,2c2.3-1,3.2-3.5,2.2-5.5
	C53.3,293.6,50.7,292.7,48.4,293.6 M55,305.8c-2.1,1.4-2.6,4.2-1.1,6.1c1.5,1.9,4.3,2.2,6.3,0.7c2-1.5,2.4-4.2,1-6
	C59.8,304.7,57,304.3,55,305.8 M63.9,316.6c-1.7,1.9-1.6,4.8,0.2,6.4c1.8,1.6,4.5,1.3,6.1-0.7c1.6-1.9,1.4-4.7-0.3-6.2
	C68.3,314.6,65.6,314.8,63.9,316.6 M74.5,325.6c-1.2,2.2-0.6,5,1.4,6.2c2,1.2,4.4,0.3,5.5-2c1.1-2.2,0.4-4.8-1.4-6
	C78.2,322.6,75.7,323.4,74.5,325.6 M86,332c-0.7,2.4,0.4,5,2.4,5.7c2,0.7,4.1-0.7,4.7-3.1c0.6-2.3-0.5-4.8-2.4-5.5
	C88.9,328.4,86.7,329.6,86,332 M97.7,335.7c-0.2,2.4,1.2,4.6,3.1,4.9c1.9,0.2,3.5-1.5,3.7-3.9c0.1-2.3-1.2-4.4-3-4.7
	C99.6,331.7,97.9,333.3,97.7,335.7 M108.7,336.8c0.2,2.3,1.8,4.1,3.6,3.9c1.7-0.2,2.9-2.2,2.6-4.5c-0.2-2.2-1.8-3.9-3.5-3.8
	C109.8,332.5,108.5,334.5,108.7,336.8 M118.7,335.4c0.5,2.2,2.2,3.5,3.7,2.9c1.5-0.5,2.2-2.7,1.6-4.7c-0.6-2.1-2.2-3.3-3.6-2.9
	C119,331.2,118.2,333.3,118.7,335.4 M127.3,332.1c0.8,1.9,2.4,2.8,3.7,2c1.2-0.8,1.5-3,0.8-4.8c-0.8-1.8-2.4-2.7-3.6-2
	C126.9,328,126.5,330.2,127.3,332.1 M76.8,228.9c0.7,1.3,2.4,2.2,3.7,2.1c1.3-0.1,1.7-1.2,1-2.4c-0.7-1.2-2.3-2.2-3.6-2.1
	C76.5,226.5,76.1,227.6,76.8,228.9 M69.2,230.5c1,1.3,2.9,2.1,4.1,1.7c1.2-0.3,1.4-1.6,0.5-2.9c-1-1.3-2.8-2-4.1-1.7
	C68.4,227.9,68.1,229.2,69.2,230.5 M61.8,233.8c1.3,1.3,3.3,1.8,4.5,1.2c1.2-0.6,1.1-2.1-0.1-3.4c-1.3-1.2-3.3-1.8-4.5-1.2
	C60.5,231,60.5,232.5,61.8,233.8 M55.2,238.8c1.6,1.2,3.8,1.4,4.8,0.5c1-0.9,0.6-2.6-0.9-3.7c-1.5-1.2-3.7-1.4-4.8-0.6
	C53.2,235.9,53.6,237.6,55.2,238.8 M49.6,245.6c1.9,1,4.1,0.9,5-0.4c0.9-1.2,0.1-3-1.7-4c-1.8-1-4.1-0.9-5,0.2
	C46.9,242.7,47.7,244.6,49.6,245.6 M45.5,254.3c2.1,0.8,4.4,0.2,5-1.3c0.6-1.5-0.6-3.3-2.7-4.1c-2.1-0.8-4.4-0.3-5,1.2
	C42.1,251.6,43.3,253.5,45.5,254.3 M55.6,261.1c-1.8-0.4-3.4,0.5-3.6,2c-0.2,1.5,1.2,3,3.1,3.4c1.8,0.4,3.4-0.6,3.6-2
	C58.7,263,57.4,261.5,55.6,261.1 M55,270.1c-1.9-0.1-3.3,1.2-3.2,2.8c0.2,1.6,1.9,3,3.8,3c1.9,0,3.2-1.3,3.1-2.9
	C58.5,271.4,56.9,270.1,55,270.1 M56.4,279.8c-1.9,0.3-3,1.9-2.5,3.6c0.5,1.7,2.5,2.8,4.3,2.4c1.8-0.4,2.9-2,2.4-3.6
	C60.1,280.5,58.2,279.5,56.4,279.8 M59.8,289.7c-1.8,0.7-2.5,2.6-1.7,4.3c0.9,1.7,3,2.4,4.7,1.6c1.7-0.8,2.4-2.7,1.5-4.3
	C63.6,289.8,61.6,289,59.8,289.7 M65.2,299.4c-1.5,1.1-1.9,3.2-0.7,4.7c1.2,1.5,3.4,1.8,4.9,0.7c1.5-1.1,1.7-3.2,0.6-4.7
	C68.9,298.6,66.8,298.3,65.2,299.4 M72.4,308.1c-1.3,1.4-1.1,3.6,0.3,4.9c1.4,1.3,3.5,1.1,4.7-0.3c1.2-1.4,1-3.6-0.3-4.8
	C75.7,306.6,73.6,306.7,72.4,308.1 M80.8,315.3c-0.9,1.7-0.4,3.9,1.2,4.8c1.5,1,3.5,0.4,4.3-1.3c0.8-1.7,0.3-3.7-1.2-4.7
	C83.6,313.1,81.6,313.6,80.8,315.3 M89.9,320.7c-0.5,1.8,0.4,3.8,2,4.5c1.6,0.6,3.3-0.4,3.7-2.2c0.5-1.8-0.4-3.7-1.9-4.3
	C92.1,318,90.4,318.9,89.9,320.7 M99.2,324c-0.2,1.9,1,3.6,2.5,3.9c1.5,0.3,2.9-1,3-2.9c0.1-1.8-1-3.5-2.5-3.8
	C100.7,320.9,99.4,322.2,99.2,324 M108.2,325.3c0.2,1.8,1.5,3.3,2.9,3.2c1.4-0.1,2.4-1.6,2.2-3.4c-0.2-1.8-1.5-3.2-2.8-3.2
	C109.1,322,108,323.5,108.2,325.3 M63.5,244.6c1.3,1,3.1,1.1,3.9,0.3c0.8-0.8,0.5-2.2-0.8-3.2c-1.3-1-3-1.1-3.9-0.4
	C61.9,242.2,62.2,243.6,63.5,244.6 M59.3,250.5c1.5,0.8,3.3,0.7,3.9-0.4c0.6-1,0-2.5-1.5-3.4c-1.5-0.8-3.3-0.7-4,0.3
	C57.1,248.1,57.8,249.7,59.3,250.5 M56.4,257.9c1.7,0.6,3.4,0.1,3.8-1.2c0.4-1.3-0.6-2.8-2.2-3.4c-1.7-0.6-3.4-0.2-3.9,1.1
	C53.6,255.7,54.6,257.2,56.4,257.9" />
	<path class="st0" d="M275.9,265.4H224c-1.1,0-2,0.9-2,2v63c0,1.1,0.9,2.1,2,2.1h8.5c1.1,0,2-0.9,2-2.1v-22.8h39.7
	c20.3,0,21.7-8.7,21.7-23.1C296,268.7,288.3,265.4,275.9,265.4 M283.4,289.8c0,3.6-1.1,6.9-8.8,6.9h-40v-20.2h39.3
	c7.2,0,9.4,1.7,9.4,7.3V289.8z M431,265.4h-50.4c-1.1,0-2,0.9-2,2v63c0,1.1,0.9,2.1,2,2.1h8.5c1.1,0,2-0.9,2-2.1v-22.9h39.6
	c7.3,0,10.5,0.9,10.5,9v13.8c0,1.1,0.9,2.1,2,2.1h8c1.1,0,2-0.9,2-2.1v-16.1c0-5.5-1.9-9.3-5.9-11.6c3.7-1.7,6.7-5.2,6.7-12.3v-5.1
	C454.1,272.4,450.4,265.4,431,265.4 M441.5,289.5c0,4.5-1.9,7.1-11.5,7.1h-38.9v-20.1H428c12.9,0,13.5,2.5,13.5,7.3V289.5z
	 M621,329.1l-33.2-31.9l29.3-28.2c0.6-0.6,0.8-1.5,0.5-2.2c-0.3-0.8-1.1-1.3-1.9-1.3h-11.8c-0.5,0-1,0.2-1.4,0.6l-25.1,24l-24.8-24
	c-0.4-0.4-0.9-0.6-1.4-0.6H539c-0.8,0-1.6,0.5-1.9,1.3c-0.3,0.8-0.1,1.7,0.5,2.2l29.3,28.2l-25.4,24.3h-68.2v-17.9h49.2
	c1.1,0,2-0.9,2-2v-7c0-1.1-0.9-2-2-2h-49.2v-16h51.3c1.1,0,2-0.9,2-2v-7c0-1.1-0.9-2-2-2h-61.9c-1.1,0-2,0.9-2,2v63
	c0,1.1,0.9,2.1,2,2.1h84.8c0.5,0,1.1-0.2,1.4-0.6l28.4-27.9l28.8,27.9c0.4,0.4,0.9,0.6,1.4,0.6h12c0.8,0,1.6-0.5,1.9-1.3
	C621.8,330.5,621.6,329.6,621,329.1 M337.9,265.1l0,20.6c7.3,0.5,13.3,6.6,13.3,14c0,7.7-6.3,14-14,14c-7.7,0-14-6.3-14-14
	c0-2.9,0.8-5.6,2.3-7.8l-14.6-14.8c-5.3,6.1-8.7,14-8.7,22.6c0,19,16,34.7,35,34.7c19,0,35-15.7,35-34.7
	C372.2,281,356.6,265.5,337.9,265.1 M333.2,265.2v27.8l-27.8-27.8H333.2z" />
	<path class="st2" d="M225.3,376.4h-4.3v-24.9h19.3v3.9h-15v6.3h14.3v3.9h-14.3V376.4z M247.1,358.1h-4.1v18.3h4.1V358.1z
	 M247.1,351.5h-4.1v4.1h4.1V351.5z M323.7,358.1h-4.1v18.3h4.1V358.1z M323.7,351.5h-4.1v4.1h4.1V351.5z M254,351.5h-4.1v24.9h4.1
	V351.5z M264.5,376.8c1.5,0,2.7,0,3.8-0.2l0.3-0.1v-3.6l-0.5,0.1c-0.9,0.2-1.6,0.2-2.2,0.2c-2,0-2.3-0.8-2.3-1.5v-10.2h5v-3.4h-5
	v-5.4h-4.1v5.4h-3.6v3.4h3.6v10.8C259.5,374.3,260.4,376.8,264.5,376.8 M312.5,376.8c1.5,0,2.7,0,3.8-0.2l0.3-0.1v-3.6l-0.5,0.1
	c-0.9,0.2-1.6,0.2-2.2,0.2c-2,0-2.3-0.8-2.3-1.5v-10.2h5v-3.4h-5v-5.4h-4.1v5.4h-3.6v3.4h3.6v10.8
	C307.5,374.3,308.4,376.8,312.5,376.8 M290.8,377c2.4,0,5.5-0.8,7.2-2.4c0.5,1.7,1.9,2,3.2,2c0.9,0,1.9-0.1,2.7-0.2l0.3-0.1v-3.2
	l-0.5,0.1c-0.3,0.1-0.8,0.1-1.1,0.1c-0.8,0-1.1-0.3-1.1-1.1v-9.5c0-3.5-3-5.4-8.5-5.4c-5.8,0-8.7,2-9.1,6.4l0,0.4h4l0-0.4
	c0.1-2.1,1.7-3.1,5-3.1c3.3,0,4.7,0.7,4.7,2.5c0,1.1-0.6,1.5-2.7,1.7l-3.8,0.4c-5.6,0.6-7.9,2.3-7.9,5.8
	C283.2,373,284,377,290.8,377 M297.6,369.1c0,2.6-2.8,4.5-6.6,4.5c-2.2,0-3.7-1-3.7-2.4c0-1.5,1-2.2,3.6-2.5l3.8-0.5
	c1.3-0.2,2.2-0.3,2.8-0.7V369.1z M336.7,377c6.4,0,10.6-3.8,10.6-9.8c0-5.9-4.1-9.8-10.6-9.8c-6.4,0-10.6,3.8-10.6,9.8
	C326.2,373.2,330.3,377,336.7,377 M336.7,361.1c4.6,0,6.2,3.2,6.2,6.2c0,3-1.6,6.2-6.2,6.2c-4.6,0-6.2-3.2-6.2-6.2
	C330.5,364.3,332.1,361.1,336.7,361.1 M368.4,364.1c0-4.2-2.8-6.6-7.8-6.6c-1.7,0-4.6,0.4-6.5,2.6v-2H350v18.3h4.1v-10.5
	c0-3.3,2.7-4.8,5.4-4.8c3.2,0,4.8,1.2,4.8,3.7v11.7h4.1V364.1z M275.1,367.2c0-3.3,2-5.3,5.4-5.4h0.4c0.6,0,1.1,0,1.5,0.1l0.4,0
	v-4.2l-0.3,0c-0.4,0-1-0.1-1.4-0.1c-2.4,0-4.4,1-5.8,3v-2.4H271v18.3h4.1V367.2z M393.6,377c4.7,0,7.3-1.9,8.9-3.6l0.5,3h3.3v-13.7
	h-11.8v3.9h7.8c-0.5,4-3.8,6.6-8.5,6.6c-2.7,0-8.9-0.9-8.9-9c0-4.4,2.3-9.2,8.8-9.2c4.2,0,6.6,1.5,7.7,4.8l0.1,0.3h4.5l-0.1-0.5
	c-1.3-5.5-5.6-8.4-12.4-8.4c-6,0-12.9,3.5-12.9,13.4C380.6,370.2,384,377,393.6,377 M432.2,377c6.4,0,10.6-3.8,10.6-9.8
	c0-5.9-4.1-9.8-10.6-9.8c-6.4,0-10.6,3.8-10.6,9.8C421.6,373.2,425.7,377,432.2,377 M432.2,361.1c4.6,0,6.2,3.2,6.2,6.2
	c0,3-1.6,6.2-6.2,6.2c-4.6,0-6.2-3.2-6.2-6.2C425.9,364.3,427.6,361.1,432.2,361.1 M453.1,377c1.7,0,4.6-0.4,6.5-2.6v2h4.1v-18.3
	h-4.1v10.5c0,3.3-2.7,4.8-5.4,4.8c-3.2,0-4.8-1.2-4.8-3.7v-11.7h-4.1v12.4C445.4,374.6,448.2,377,453.1,377 M471.1,374.8
	c1.4,1.4,3.8,2.3,6.3,2.3c5.9,0,9.9-3.9,9.9-9.7c0-5.8-4-9.7-9.9-9.7c-2.5,0-4.9,0.9-6.3,2.3v-1.9H467v25.1h4.1V374.8z M477.1,361.3
	c4.5,0,6,3.1,6,6.1c0,3.7-2.3,6.1-6,6.1c-3.8,0-6.1-2.3-6.1-6.1C470.9,364.4,472.6,361.3,477.1,361.3 M413.3,367.1
	c0-3.3,2-5.3,5.4-5.4h0.4c0.6,0,1.1,0,1.5,0.1l0.4,0v-4.2l-0.3,0c-0.4,0-1-0.1-1.4-0.1c-2.4,0-4.4,1-5.8,3v-2.4h-4.1v18.3h4.1V367.1
	z M491.8,351.6c-2.5,0-4.8,2-4.8,4.8c0,2.9,2.3,4.8,4.8,4.8c2.6,0,4.8-1.9,4.8-4.8C496.7,353.6,494.4,351.6,491.8,351.6
	 M491.8,352.6c2.1,0,3.8,1.6,3.8,3.8c0,2.2-1.7,3.8-3.8,3.8c-2.1,0-3.7-1.6-3.7-3.8C488.1,354.3,489.7,352.6,491.8,352.6
	 M493.1,359.2h1.1l-1.6-2.4c0.9-0.1,1.5-0.5,1.5-1.5c0-1.1-0.7-1.6-2.1-1.6h-2.2v5.5h0.9v-2.4h0.9L493.1,359.2z M490.8,356.1v-1.6
	h1.1c0.6,0,1.2,0.1,1.2,0.7c0,0.8-0.6,0.8-1.3,0.8H490.8z" />
</svg>