<?xml version="1.0" standalone="no"?>
<!DOCTYPE svg PUBLIC "-//W3C//DTD SVG 20010904//EN"
 "http://www.w3.org/TR/2001/REC-SVG-20010904/DTD/svg10.dtd">
<svg version="1.0" xmlns="http://www.w3.org/2000/svg"
 width="16" height="16" viewBox="0 0 672.000000 594.000000"
 preserveAspectRatio="xMidYMid meet">

<g transform="translate(0.000000,594.000000) scale(0.100000,-0.100000)"
fill="#ffffff" stroke="none">
<path d="M1000 5287 c-49 -16 -123 -93 -138 -143 -16 -55 -18 -3339 -1 -3397
13 -49 73 -115 124 -138 37 -17 78 -19 543 -19 l503 0 24 25 c32 31 32 69 0
100 l-24 25 -491 0 -491 0 -24 25 -25 24 0 1656 0 1656 25 24 24 25 1344 0
c1299 0 1346 1 1368 19 32 26 32 86 0 112 -22 18 -68 19 -1375 18 -959 -1
-1361 -4 -1386 -12z"/>
<path d="M3998 5286 c-41 -31 -37 -113 7 -130 9 -3 410 -6 891 -6 l875 0 24
-25 25 -24 0 -1656 0 -1656 -25 -24 -24 -25 -1729 0 -1729 0 -27 -21 c-33 -26
-36 -79 -6 -109 19 -19 33 -20 380 -20 l360 0 0 -165 0 -165 -212 0 c-117 0
-229 -4 -248 -10 -48 -13 -106 -63 -132 -113 -16 -32 -22 -66 -26 -144 -5
-114 0 -145 28 -173 20 -20 37 -20 980 -20 943 0 960 0 980 20 28 28 33 59 28
173 -4 78 -10 112 -26 144 -26 50 -84 100 -132 113 -19 6 -131 10 -247 10
l-213 0 0 165 0 165 998 0 c943 0 999 1 1037 19 51 23 111 89 124 138 17 58
15 3342 -1 3397 -16 54 -90 128 -144 144 -62 18 -1792 17 -1816 -2z m-353
-3861 l0 -160 -235 0 -235 0 -3 150 c-1 82 0 155 2 162 4 11 53 13 238 11
l233 -3 0 -160z m596 -334 c18 -14 23 -31 27 -80 l4 -61 -862 0 -862 0 4 61
c8 108 -74 99 858 99 771 0 809 -1 831 -19z"/>
<path d="M1185 4965 l-25 -24 0 -1335 c0 -734 3 -1342 6 -1351 18 -47 -86 -45
2244 -45 1639 0 2187 3 2203 12 46 24 46 26 47 366 l0 323 -25 24 c-33 34 -77
33 -104 -1 -20 -26 -21 -39 -21 -300 l0 -274 -2100 0 -2100 0 0 1240 0 1240
2100 0 2100 0 0 -824 c0 -818 0 -823 21 -850 27 -34 71 -35 104 -1 l25 24 0
876 0 876 -25 24 -24 25 -2201 0 -2201 0 -24 -25z"/>
<path d="M1656 4349 l-26 -20 0 -190 c0 -176 1 -190 20 -209 19 -19 33 -20
519 -20 l500 0 20 26 c19 25 21 40 21 195 0 179 -6 209 -47 228 -16 8 -173 11
-502 11 -469 0 -479 0 -505 -21z m904 -209 l0 -80 -390 0 -390 0 0 80 0 80
390 0 390 0 0 -80z"/>
<path d="M2913 4360 c-38 -16 -43 -41 -43 -228 0 -174 1 -179 23 -200 23 -22
24 -22 518 -22 l496 0 21 23 c21 22 22 32 22 204 0 163 -2 183 -19 204 l-19
24 -489 2 c-269 1 -498 -2 -510 -7z m887 -220 l0 -80 -390 0 -390 0 0 80 0 80
390 0 390 0 0 -80z"/>
<path d="M4151 4356 c-14 -8 -28 -22 -32 -32 -4 -11 -8 -96 -8 -190 -1 -159 1
-173 20 -198 l20 -26 500 0 c486 0 500 1 519 20 19 19 20 33 20 209 l0 190
-26 20 c-26 21 -36 21 -508 21 -386 -1 -486 -3 -505 -14z m889 -216 l0 -80
-390 0 -390 0 0 80 0 80 390 0 390 0 0 -80z"/>
<path d="M1680 3743 c-8 -3 -23 -12 -32 -21 -17 -14 -18 -44 -18 -357 0 -323
1 -344 19 -366 l19 -24 497 0 497 0 24 28 24 28 0 324 c0 343 -3 364 -47 384
-25 11 -952 15 -983 4z m878 -380 l2 -233 -390 0 -390 0 0 235 0 235 388 -2
387 -3 3 -232z"/>
<path d="M2913 3740 c-12 -5 -26 -18 -32 -29 -14 -26 -15 -675 -1 -701 20 -37
59 -40 530 -40 471 0 510 3 530 40 6 11 10 154 10 353 0 315 -1 336 -19 358
l-19 24 -489 2 c-269 1 -498 -2 -510 -7z m887 -375 l0 -235 -390 0 -390 0 0
235 0 235 390 0 390 0 0 -235z"/>
<path d="M4154 3738 c-22 -10 -44 -47 -44 -72 0 -7 9 -25 21 -40 l20 -26 500
0 c486 0 500 1 519 20 27 27 26 81 -1 106 -20 18 -45 19 -508 21 -323 1 -493
-2 -507 -9z"/>
<path d="M4164 3430 c-26 -10 -54 -48 -54 -71 0 -9 9 -28 21 -43 l20 -26 500
0 c486 0 500 1 519 20 25 25 26 71 1 101 l-19 24 -484 2 c-265 1 -493 -2 -504
-7z"/>
<path d="M4164 3120 c-26 -10 -54 -48 -54 -71 0 -9 9 -28 21 -43 l20 -26 504
0 504 0 15 22 c21 30 20 71 -3 99 l-19 24 -484 2 c-265 1 -493 -2 -504 -7z"/>
<path d="M3054 2017 c-34 -30 -36 -83 -3 -109 19 -16 52 -18 359 -18 307 0
340 2 359 18 33 26 31 79 -3 109 l-27 23 -329 0 -329 0 -27 -23z"/>
</g>
</svg>
